SplineFontDB: 3.0
FontName: FreeSansOblique
FullName: Free Sans Oblique
FamilyName: FreeSans
Weight: Book
Copyright: Copyleft 2002, 2003, 2005, 2008 Free Software Foundation.
Version: $Revision: 1.78 $
ItalicAngle: -12
UnderlinePosition: -201
UnderlineWidth: 50
Ascent: 800
Descent: 200
LayerCount: 2
Layer: 0 1 "Back" 
Layer: 1 1 "Fore" 
XUID: [1021 666 1620398626 12141359]
FSType: 0
OS2Version: 1
OS2_WeightWidthSlopeOnly: 0
OS2_UseTypoMetrics: 1
CreationTime: 1203284335
ModificationTime: 1218404363
PfmFamily: 17
TTFWeight: 400
TTFWidth: 5
LineGap: 90
VLineGap: 0
Panose: 2 11 5 4 2 2 2 9 2 4
OS2TypoAscent: 0
OS2TypoAOffset: 1
OS2TypoDescent: 0
OS2TypoDOffset: 1
OS2TypoLinegap: 0
OS2WinAscent: -72
OS2WinAOffset: 1
OS2WinDescent: -131
OS2WinDOffset: 1
HheadAscent: -72
HheadAOffset: 1
HheadDescent: 131
HheadDOffset: 1
OS2SubXSize: 650
OS2SubYSize: 699
OS2SubXOff: 47
OS2SubYOff: 140
OS2SupXSize: 650
OS2SupYSize: 699
OS2SupXOff: -163
OS2SupYOff: 479
OS2StrikeYSize: 49
OS2StrikeYPos: 258
OS2Vendor: 'GNU '
OS2CodePages: 200000bf.1ff70000
OS2UnicodeRanges: e4010eff.4000617b.00000020.00000000
Lookup: 1 0 0 "'init' Initial Forms lookup 0"  {"'init' Initial Forms lookup 0 subtable"  } ['init' ('beng' <'dflt' > 'bng2' <'dflt' > ) ]
Lookup: 4 0 0 "'akhn' Akhand in Bengali lookup 1"  {"'akhn' Akhand in Bengali lookup 1 subtable"  } ['akhn' ('beng' <'dflt' > ) ]
Lookup: 4 8 1 "'liga' Standard Ligatures in Armenian lookup 2"  {"'liga' Standard Ligatures in Armenian lookup 2 subtable"  } ['liga' ('armn' <'dflt' > ) ]
Lookup: 4 0 0 "'rphf' Reph Form in Bengali lookup 3"  {"'rphf' Reph Form in Bengali lookup 3 subtable"  } ['rphf' ('beng' <'dflt' > ) ]
Lookup: 4 8 0 "'dlig' Discretionary Ligatures in Hebrew lookup 4"  {"'dlig' Discretionary Ligatures in Hebrew lookup 4 subtable"  } ['dlig' ('hebr' <'dflt' > ) ]
Lookup: 4 0 0 "'blwf' Below Base Forms in Bengali lookup 5"  {"'blwf' Below Base Forms in Bengali lookup 5 subtable"  } ['blwf' ('beng' <'dflt' > ) ]

StartChar: .notdef
Encoding: 65536 -1 0
Width: 364
Flags: MW
LayerCount: 2
Fore
SplineSet
33 0 m 1,0,-1
 33 666 l 1,1,-1
 298 666 l 1,2,-1
 298 0 l 1,3,-1
 33 0 l 1,0,-1
66 33 m 1,4,-1
 265 33 l 1,5,-1
 265 633 l 1,6,-1
 66 633 l 1,7,-1
 66 33 l 1,4,-1
EndSplineSet
Validated: 1
EndChar

StartChar: exclam
Encoding: 33 33 4
Width: 278
GlyphClass: 2
Flags: MW
LayerCount: 2
Fore
SplineSet
363 729 m 1,0,-1
 289 379 l 1,1,-1
 222 168 l 1,2,-1
 182 168 l 1,3,-1
 205 379 l 1,4,-1
 279 729 l 1,5,-1
 363 729 l 1,0,-1
230 103 m 1,6,-1
 208 0 l 1,7,-1
 124 0 l 1,8,-1
 146 103 l 1,9,-1
 230 103 l 1,6,-1
EndSplineSet
Validated: 1
EndChar

StartChar: quotedbl
Encoding: 34 34 5
Width: 355
GlyphClass: 2
Flags: MW
LayerCount: 2
Fore
SplineSet
202 709 m 1,0,-1
 296 709 l 1,1,-1
 272 598 l 1,2,-1
 217 464 l 1,3,-1
 177 464 l 1,4,-1
 178 598 l 1,5,-1
 202 709 l 1,0,-1
361 709 m 1,6,-1
 455 709 l 1,7,-1
 431 598 l 1,8,-1
 376 464 l 1,9,-1
 336 464 l 1,10,-1
 337 598 l 1,11,-1
 361 709 l 1,6,-1
EndSplineSet
Validated: 1
EndChar

StartChar: numbersign
Encoding: 35 35 6
Width: 556
GlyphClass: 2
Flags: MW
LayerCount: 2
Fore
SplineSet
632 697 m 1,0,-1
 555 503 l 1,1,-1
 649 503 l 1,2,-1
 635 439 l 1,3,-1
 530 439 l 1,4,-1
 457 255 l 1,5,-1
 564 255 l 1,6,-1
 550 191 l 1,7,-1
 432 191 l 1,8,-1
 349 -20 l 1,9,-1
 273 -20 l 1,10,-1
 356 191 l 1,11,-1
 231 191 l 1,12,-1
 148 -20 l 1,13,-1
 72 -20 l 1,14,-1
 155 191 l 1,15,-1
 54 191 l 1,16,-1
 68 255 l 1,17,-1
 180 255 l 1,18,-1
 253 439 l 1,19,-1
 144 439 l 1,20,-1
 157 503 l 1,21,-1
 278 503 l 1,22,-1
 355 697 l 1,23,-1
 431 697 l 1,24,-1
 355 503 l 1,25,-1
 479 503 l 1,26,-1
 556 697 l 1,27,-1
 632 697 l 1,0,-1
454 439 m 1,28,-1
 330 439 l 1,29,-1
 256 255 l 1,30,-1
 381 255 l 1,31,-1
 454 439 l 1,28,-1
EndSplineSet
Validated: 1
EndChar

StartChar: dollar
Encoding: 36 36 7
Width: 556
GlyphClass: 2
Flags: MW
LayerCount: 2
Fore
SplineSet
311 318 m 1,0,1
 224 348 224 348 188 377.5 c 128,-1,2
 152 407 152 407 152 469 c 0,3,4
 152 489 152 489 155.5 512.5 c 128,-1,5
 159 536 159 536 174 572 c 128,-1,6
 189 608 189 608 213.5 636.5 c 128,-1,7
 238 665 238 665 285.5 688 c 128,-1,8
 333 711 333 711 396 716 c 1,9,-1
 407 770 l 1,10,-1
 466 770 l 1,11,-1
 455 716 l 1,12,13
 530 712 530 712 571.5 672.5 c 128,-1,14
 613 633 613 633 613 565 c 0,15,16
 613 543 613 543 607 519 c 1,17,-1
 528 519 l 1,18,-1
 529 534 l 2,19,20
 530 543 530 543 530 555 c 0,21,22
 530 594 530 594 505.5 619 c 128,-1,23
 481 644 481 644 440 646 c 1,24,-1
 387 397 l 1,25,26
 484 367 484 367 524.5 337 c 128,-1,27
 565 307 565 307 565 243 c 0,28,29
 565 130 565 130 492.5 55.5 c 128,-1,30
 420 -19 420 -19 298 -23 c 1,31,-1
 276 -126 l 1,32,-1
 217 -126 l 1,33,-1
 239 -23 l 1,34,35
 151 -9 151 -9 110 28.5 c 128,-1,36
 69 66 69 66 69 134 c 0,37,38
 69 163 69 163 77 208 c 1,39,-1
 156 208 l 1,40,-1
 155 197 l 2,41,42
 152 168 152 168 152 150 c 0,43,44
 152 109 152 109 175 85.5 c 128,-1,45
 198 62 198 62 253 46 c 1,46,-1
 311 318 l 1,0,1
381 645 m 1,47,48
 338 642 338 642 307 623.5 c 128,-1,49
 276 605 276 605 261.5 580.5 c 128,-1,50
 247 556 247 556 241 536 c 128,-1,51
 235 516 235 516 235 501 c 0,52,53
 235 464 235 464 256.5 442.5 c 128,-1,54
 278 421 278 421 330 405 c 1,55,-1
 381 645 l 1,47,48
368 309 m 1,56,-1
 312 46 l 1,57,58
 391 52 391 52 434 95 c 128,-1,59
 477 138 477 138 477 211 c 0,60,61
 477 247 477 247 452.5 269 c 128,-1,62
 428 291 428 291 368 309 c 1,56,-1
EndSplineSet
Validated: 1
EndChar

StartChar: percent
Encoding: 37 37 8
Width: 889
GlyphClass: 2
Flags: MW
LayerCount: 2
Fore
SplineSet
759 709 m 1,0,-1
 825 709 l 1,1,-1
 275 -20 l 1,2,-1
 209 -20 l 1,3,-1
 759 709 l 1,0,-1
345 682 m 0,4,5
 403 682 403 682 443 644.5 c 128,-1,6
 483 607 483 607 483 552 c 0,7,8
 483 471 483 471 418.5 408.5 c 128,-1,9
 354 346 354 346 270 346 c 0,10,11
 211 346 211 346 172.5 383.5 c 128,-1,12
 134 421 134 421 134 478 c 0,13,14
 134 557 134 557 199 619.5 c 128,-1,15
 264 682 264 682 345 682 c 0,4,5
329 616 m 0,16,17
 281 616 281 616 242.5 578.5 c 128,-1,18
 204 541 204 541 204 494 c 0,19,20
 204 459 204 459 227.5 435.5 c 128,-1,21
 251 412 251 412 286 412 c 0,22,23
 335 412 335 412 374 449.5 c 128,-1,24
 413 487 413 487 413 534 c 0,25,26
 413 571 413 571 390 593.5 c 128,-1,27
 367 616 367 616 329 616 c 0,16,17
757 320 m 0,28,29
 815 320 815 320 855 282.5 c 128,-1,30
 895 245 895 245 895 190 c 0,31,32
 895 109 895 109 830.5 46.5 c 128,-1,33
 766 -16 766 -16 682 -16 c 0,34,35
 623 -16 623 -16 584.5 21.5 c 128,-1,36
 546 59 546 59 546 116 c 0,37,38
 546 195 546 195 611 257.5 c 128,-1,39
 676 320 676 320 757 320 c 0,28,29
741 254 m 0,40,41
 693 254 693 254 654.5 216.5 c 128,-1,42
 616 179 616 179 616 132 c 0,43,44
 616 97 616 97 639.5 73.5 c 128,-1,45
 663 50 663 50 698 50 c 0,46,47
 747 50 747 50 786 87.5 c 128,-1,48
 825 125 825 125 825 172 c 0,49,50
 825 209 825 209 802 231.5 c 128,-1,51
 779 254 779 254 741 254 c 0,40,41
EndSplineSet
Validated: 1
EndChar

StartChar: ampersand
Encoding: 38 38 9
Width: 667
GlyphClass: 2
Flags: MW
LayerCount: 2
Fore
SplineSet
83 128 m 0,0,1
 83 173 83 173 98.5 212.5 c 128,-1,2
 114 252 114 252 137 278 c 128,-1,3
 160 304 160 304 188.5 327.5 c 128,-1,4
 217 351 217 351 242.5 364 c 128,-1,5
 268 377 268 377 288 390 c 1,6,7
 281 408 281 408 279 413 c 2,8,-1
 261 455 l 2,9,10
 247 489 247 489 247 523 c 0,11,12
 247 596 247 596 310 652.5 c 128,-1,13
 373 709 373 709 455 709 c 0,14,15
 516 709 516 709 552 676 c 128,-1,16
 588 643 588 643 588 587 c 0,17,18
 588 522 588 522 544 471 c 128,-1,19
 500 420 500 420 407 378 c 1,20,-1
 505 215 l 1,21,22
 548 265 548 265 565 334 c 1,23,-1
 644 334 l 1,24,25
 624 235 624 235 544 151 c 1,26,-1
 634 0 l 1,27,-1
 528 0 l 1,28,-1
 482 78 l 1,29,30
 414 22 414 22 363.5 -0.5 c 128,-1,31
 313 -23 313 -23 253 -23 c 0,32,33
 174 -23 174 -23 128.5 17.5 c 128,-1,34
 83 58 83 58 83 128 c 0,0,1
377 434 m 1,35,36
 446 469 446 469 475.5 501 c 128,-1,37
 505 533 505 533 505 574 c 0,38,39
 505 604 505 604 486.5 621.5 c 128,-1,40
 468 639 468 639 436 639 c 0,41,42
 392 639 392 639 361 608 c 128,-1,43
 330 577 330 577 330 533 c 0,44,45
 330 512 330 512 338 494.5 c 128,-1,46
 346 477 346 477 377 434 c 1,35,36
448 137 m 1,47,-1
 329 336 l 1,48,49
 245 291 245 291 208 249.5 c 128,-1,50
 171 208 171 208 171 159 c 128,-1,51
 171 110 171 110 200.5 82 c 128,-1,52
 230 54 230 54 280 54 c 0,53,54
 349 54 349 54 448 137 c 1,47,-1
EndSplineSet
Validated: 1
EndChar

StartChar: quotesingle
Encoding: 39 39 10
Width: 191
GlyphClass: 2
Flags: MW
LayerCount: 2
Fore
SplineSet
198 709 m 1,0,-1
 292 709 l 1,1,-1
 268 598 l 1,2,-1
 213 464 l 1,3,-1
 173 464 l 1,4,-1
 174 598 l 1,5,-1
 198 709 l 1,0,-1
EndSplineSet
Validated: 1
EndChar

StartChar: parenleft
Encoding: 40 40 11
Width: 333
GlyphClass: 2
Flags: MW
LayerCount: 2
Fore
SplineSet
391 729 m 1,0,-1
 446 729 l 1,1,2
 191 416 191 416 191 79 c 0,3,4
 191 -70 191 -70 246 -213 c 1,5,-1
 191 -213 l 1,6,7
 113 -76 113 -76 113 116 c 0,8,9
 113 268 113 268 186.5 430 c 128,-1,10
 260 592 260 592 391 729 c 1,0,-1
EndSplineSet
Validated: 1
EndChar

StartChar: parenright
Encoding: 41 41 12
Width: 333
GlyphClass: 2
Flags: MW
LayerCount: 2
Fore
SplineSet
325 407 m 0,0,1
 325 349 325 349 313.5 285 c 128,-1,2
 302 221 302 221 274 139 c 128,-1,3
 246 57 246 57 188 -35 c 128,-1,4
 130 -127 130 -127 48 -213 c 1,5,-1
 -7 -213 l 1,6,7
 117 -61 117 -61 182.5 104 c 128,-1,8
 248 269 248 269 248 431 c 0,9,10
 248 589 248 589 193 729 c 1,11,-1
 248 729 l 1,12,13
 283 667 283 667 304 579.5 c 128,-1,14
 325 492 325 492 325 407 c 0,0,1
EndSplineSet
Validated: 1
EndChar

StartChar: asterisk
Encoding: 42 42 13
Width: 389
GlyphClass: 2
Flags: MW
LayerCount: 2
Fore
SplineSet
319 729 m 1,0,-1
 381 729 l 1,1,-1
 352 617 l 1,2,-1
 462 655 l 1,3,-1
 471 593 l 1,4,-1
 358 566 l 1,5,-1
 411 475 l 1,6,-1
 353 438 l 1,7,-1
 309 534 l 1,8,-1
 228 439 l 1,9,-1
 181 479 l 1,10,-1
 273 567 l 1,11,-1
 169 598 l 1,12,-1
 199 657 l 1,13,-1
 299 617 l 1,14,-1
 319 729 l 1,0,-1
EndSplineSet
Validated: 1
EndChar

StartChar: plus
Encoding: 43 43 14
Width: 584
GlyphClass: 2
Flags: MW
LayerCount: 2
Fore
SplineSet
591 269 m 1,0,-1
 576 197 l 1,1,-1
 369 197 l 1,2,-1
 325 -11 l 1,3,-1
 255 -11 l 1,4,-1
 299 197 l 1,5,-1
 92 197 l 1,6,-1
 107 269 l 1,7,-1
 314 269 l 1,8,-1
 358 473 l 1,9,-1
 428 473 l 1,10,-1
 384 269 l 1,11,-1
 591 269 l 1,0,-1
EndSplineSet
Validated: 1
EndChar

StartChar: comma
Encoding: 44 44 15
Width: 278
GlyphClass: 2
Flags: MW
LayerCount: 2
Fore
SplineSet
109 103 m 1,0,-1
 214 103 l 1,1,-1
 188 -16 l 2,2,3
 175 -78 175 -78 141.5 -112.5 c 128,-1,4
 108 -147 108 -147 61 -147 c 2,5,-1
 55 -147 l 1,6,-1
 63 -109 l 1,7,8
 99 -109 99 -109 117.5 -85 c 128,-1,9
 136 -61 136 -61 146 0 c 1,10,-1
 87 0 l 1,11,-1
 109 103 l 1,0,-1
EndSplineSet
Validated: 1
EndChar

StartChar: hyphen
Encoding: 45 45 16
Width: 333
GlyphClass: 2
Flags: MW
LayerCount: 2
Fore
SplineSet
351 312 m 1,0,-1
 336 240 l 1,1,-1
 97 240 l 1,2,-1
 112 312 l 1,3,-1
 351 312 l 1,0,-1
EndSplineSet
Validated: 1
EndChar

StartChar: period
Encoding: 46 46 17
Width: 278
GlyphClass: 2
Flags: MW
LayerCount: 2
Fore
SplineSet
213 103 m 1,0,-1
 191 0 l 1,1,-1
 87 0 l 1,2,-1
 109 103 l 1,3,-1
 213 103 l 1,0,-1
EndSplineSet
Validated: 1
EndChar

StartChar: slash
Encoding: 47 47 18
Width: 278
GlyphClass: 2
Flags: MW
LayerCount: 2
Fore
SplineSet
379 729 m 1,0,-1
 434 729 l 1,1,-1
 43 -20 l 1,2,-1
 -12 -20 l 1,3,-1
 379 729 l 1,0,-1
EndSplineSet
Validated: 1
EndChar

StartChar: zero
Encoding: 48 48 19
Width: 556
GlyphClass: 2
Flags: MW
LayerCount: 2
Fore
SplineSet
98 170 m 0,0,1
 98 198 98 198 101.5 235 c 128,-1,2
 105 272 105 272 114.5 325 c 128,-1,3
 124 378 124 378 138.5 429 c 128,-1,4
 153 480 153 480 178 531.5 c 128,-1,5
 203 583 203 583 235.5 621.5 c 128,-1,6
 268 660 268 660 315 684.5 c 128,-1,7
 362 709 362 709 418 709 c 0,8,9
 503 709 503 709 550.5 657.5 c 128,-1,10
 598 606 598 606 598 514 c 0,11,12
 598 480 598 480 593 434 c 128,-1,13
 588 388 588 388 576 324.5 c 128,-1,14
 564 261 564 261 539.5 202 c 128,-1,15
 515 143 515 143 481.5 91.5 c 128,-1,16
 448 40 448 40 394.5 8.5 c 128,-1,17
 341 -23 341 -23 276 -23 c 0,18,19
 246 -23 246 -23 217 -14 c 128,-1,20
 188 -5 188 -5 160 15 c 128,-1,21
 132 35 132 35 115 75 c 128,-1,22
 98 115 98 115 98 170 c 0,0,1
287 54 m 0,23,24
 337 54 337 54 378 92 c 128,-1,25
 419 130 419 130 442.5 184.5 c 128,-1,26
 466 239 466 239 482 304.5 c 128,-1,27
 498 370 498 370 504 420 c 128,-1,28
 510 470 510 470 510 504 c 0,29,30
 510 565 510 565 482.5 598.5 c 128,-1,31
 455 632 455 632 406 632 c 0,32,33
 345 632 345 632 298.5 576.5 c 128,-1,34
 252 521 252 521 229.5 441 c 128,-1,35
 207 361 207 361 196.5 294 c 128,-1,36
 186 227 186 227 186 181 c 0,37,38
 186 122 186 122 213 88 c 128,-1,39
 240 54 240 54 287 54 c 0,23,24
EndSplineSet
Validated: 1
EndChar

StartChar: one
Encoding: 49 49 20
Width: 556
GlyphClass: 2
Flags: MW
LayerCount: 2
Fore
SplineSet
367 505 m 1,0,-1
 208 505 l 1,1,-1
 221 568 l 1,2,3
 329 583 329 583 364.5 605.5 c 128,-1,4
 400 628 400 628 440 709 c 1,5,-1
 498 709 l 1,6,-1
 347 0 l 1,7,-1
 259 0 l 1,8,-1
 367 505 l 1,0,-1
EndSplineSet
Validated: 1
EndChar

StartChar: two
Encoding: 50 50 21
Width: 556
GlyphClass: 2
Flags: MW
LayerCount: 2
Fore
SplineSet
428 709 m 0,0,1
 483 709 483 709 522.5 692.5 c 128,-1,2
 562 676 562 676 582 648.5 c 128,-1,3
 602 621 602 621 611 593.5 c 128,-1,4
 620 566 620 566 620 537 c 0,5,6
 620 387 620 387 422 287 c 2,7,-1
 310 230 l 2,8,9
 173 162 173 162 147 87 c 1,10,-1
 524 87 l 1,11,-1
 505 0 l 1,12,-1
 34 0 l 1,13,14
 67 121 67 121 117 179.5 c 128,-1,15
 167 238 167 238 297 307 c 2,16,-1
 401 359 l 2,17,18
 463 391 463 391 497.5 434 c 128,-1,19
 532 477 532 477 532 525 c 128,-1,20
 532 573 532 573 500 602.5 c 128,-1,21
 468 632 468 632 416 632 c 0,22,23
 390 632 390 632 367 626 c 128,-1,24
 344 620 344 620 328 610.5 c 128,-1,25
 312 601 312 601 297.5 588 c 128,-1,26
 283 575 283 575 274.5 560.5 c 128,-1,27
 266 546 266 546 258 531.5 c 128,-1,28
 250 517 250 517 246.5 504 c 128,-1,29
 243 491 243 491 239.5 480.5 c 128,-1,30
 236 470 236 470 235 463 c 1,31,-1
 147 463 l 1,32,33
 176 590 176 590 244 649.5 c 128,-1,34
 312 709 312 709 428 709 c 0,0,1
EndSplineSet
Validated: 1
EndChar

StartChar: three
Encoding: 51 51 22
Width: 556
GlyphClass: 2
Flags: MW
LayerCount: 2
Fore
SplineSet
555 249 m 0,0,1
 555 135 555 135 474.5 56 c 128,-1,2
 394 -23 394 -23 264 -23 c 0,3,4
 170 -23 170 -23 120.5 20 c 128,-1,5
 71 63 71 63 71 144 c 0,6,7
 71 168 71 168 76 206 c 1,8,-1
 164 206 l 1,9,-1
 162 193 l 2,10,11
 159 169 159 169 159 154 c 0,12,13
 159 108 159 108 191.5 81 c 128,-1,14
 224 54 224 54 277 54 c 0,15,16
 361 54 361 54 414 104.5 c 128,-1,17
 467 155 467 155 467 236 c 0,18,19
 467 279 467 279 432 303 c 128,-1,20
 397 327 397 327 335 327 c 0,21,22
 311 327 311 327 290 325 c 1,23,-1
 306 400 l 1,24,-1
 324 400 l 2,25,26
 511 400 511 400 511 545 c 0,27,28
 511 585 511 585 482.5 608.5 c 128,-1,29
 454 632 454 632 405 632 c 0,30,31
 367 632 367 632 336.5 619 c 128,-1,32
 306 606 306 606 290 590.5 c 128,-1,33
 274 575 274 575 261.5 550 c 128,-1,34
 249 525 249 525 245 512 c 128,-1,35
 241 499 241 499 237 480 c 1,36,-1
 149 480 l 1,37,38
 155 501 155 501 157 509 c 128,-1,39
 159 517 159 517 170.5 546 c 128,-1,40
 182 575 182 575 193 591.5 c 128,-1,41
 204 608 204 608 226 633.5 c 128,-1,42
 248 659 248 659 273 673 c 128,-1,43
 298 687 298 687 335.5 698 c 128,-1,44
 373 709 373 709 417 709 c 0,45,46
 499 709 499 709 549 669 c 128,-1,47
 599 629 599 629 599 563 c 0,48,49
 599 496 599 496 570 449.5 c 128,-1,50
 541 403 541 403 477 367 c 1,51,52
 519 346 519 346 537 319 c 128,-1,53
 555 292 555 292 555 249 c 0,0,1
EndSplineSet
Validated: 1
EndChar

StartChar: four
Encoding: 52 52 23
Width: 556
GlyphClass: 2
Flags: MW
LayerCount: 2
Fore
SplineSet
362 170 m 1,0,-1
 63 170 l 1,1,-1
 83 262 l 1,2,-1
 499 709 l 1,3,-1
 565 709 l 1,4,-1
 467 248 l 1,5,-1
 573 248 l 1,6,-1
 556 170 l 1,7,-1
 450 170 l 1,8,-1
 414 0 l 1,9,-1
 326 0 l 1,10,-1
 362 170 l 1,0,-1
379 248 m 1,11,-1
 444 556 l 1,12,-1
 158 248 l 1,13,-1
 379 248 l 1,11,-1
EndSplineSet
Validated: 1
EndChar

StartChar: five
Encoding: 53 53 24
Width: 556
GlyphClass: 2
Flags: MW
LayerCount: 2
Fore
SplineSet
271 -23 m 0,0,1
 238 -23 238 -23 207 -16 c 128,-1,2
 176 -9 176 -9 143 8 c 128,-1,3
 110 25 110 25 90 62 c 128,-1,4
 70 99 70 99 70 152 c 2,5,-1
 70 174 l 1,6,-1
 158 174 l 1,7,8
 162 54 162 54 283 54 c 0,9,10
 368 54 368 54 423.5 115 c 128,-1,11
 479 176 479 176 479 269 c 0,12,13
 479 327 479 327 446 358.5 c 128,-1,14
 413 390 413 390 353 390 c 0,15,16
 309 390 309 390 279.5 376.5 c 128,-1,17
 250 363 250 363 204 323 c 1,18,-1
 124 323 l 1,19,-1
 259 709 l 1,20,-1
 629 709 l 1,21,-1
 611 622 l 1,22,-1
 311 622 l 1,23,-1
 241 424 l 1,24,25
 311 467 311 467 381 467 c 0,26,27
 466 467 466 467 516.5 420 c 128,-1,28
 567 373 567 373 567 295 c 0,29,30
 567 181 567 181 498 93 c 0,31,32
 410 -23 410 -23 271 -23 c 0,0,1
EndSplineSet
Validated: 1
EndChar

StartChar: six
Encoding: 54 54 25
Width: 556
GlyphClass: 2
Flags: MW
LayerCount: 2
Fore
SplineSet
566 271 m 0,0,1
 566 248 566 248 558.5 215.5 c 128,-1,2
 551 183 551 183 531 140 c 128,-1,3
 511 97 511 97 481 61.5 c 128,-1,4
 451 26 451 26 400 1.5 c 128,-1,5
 349 -23 349 -23 286 -23 c 0,6,7
 198 -23 198 -23 145.5 28.5 c 128,-1,8
 93 80 93 80 93 167 c 0,9,10
 93 261 93 261 124 376.5 c 128,-1,11
 155 492 155 492 198 560 c 0,12,13
 293 709 293 709 435 709 c 0,14,15
 515 709 515 709 563 666 c 128,-1,16
 611 623 611 623 611 551 c 0,17,18
 611 535 611 535 610 524 c 1,19,-1
 522 524 l 1,20,21
 523 526 523 526 523 529 c 0,22,23
 523 567 523 567 499.5 599.5 c 128,-1,24
 476 632 476 632 421 632 c 0,25,26
 345 632 345 632 288 558.5 c 128,-1,27
 231 485 231 485 209 358 c 1,28,29
 293 442 293 442 388 442 c 0,30,31
 468 442 468 442 517 395 c 128,-1,32
 566 348 566 348 566 271 c 0,0,1
364 365 m 0,33,34
 288 365 288 365 234.5 309.5 c 128,-1,35
 181 254 181 254 181 174 c 0,36,37
 181 121 181 121 214 87.5 c 128,-1,38
 247 54 247 54 299 54 c 0,39,40
 373 54 373 54 425.5 113 c 128,-1,41
 478 172 478 172 478 256 c 0,42,43
 478 305 478 305 446.5 335 c 128,-1,44
 415 365 415 365 364 365 c 0,33,34
EndSplineSet
Validated: 1
EndChar

StartChar: seven
Encoding: 55 55 26
Width: 556
GlyphClass: 2
Flags: MW
LayerCount: 2
Fore
SplineSet
671 709 m 1,0,-1
 654 628 l 1,1,2
 526 502 526 502 405.5 322 c 128,-1,3
 285 142 285 142 235 0 c 1,4,-1
 137 0 l 1,5,6
 204 158 204 158 297.5 295 c 128,-1,7
 391 432 391 432 560 622 c 1,8,-1
 177 622 l 1,9,-1
 196 709 l 1,10,-1
 671 709 l 1,0,-1
EndSplineSet
Validated: 1
EndChar

StartChar: eight
Encoding: 56 56 27
Width: 556
GlyphClass: 2
Flags: MW
LayerCount: 2
Fore
SplineSet
560 239 m 0,0,1
 560 218 560 218 553 189 c 128,-1,2
 546 160 546 160 526 121.5 c 128,-1,3
 506 83 506 83 476 52 c 128,-1,4
 446 21 446 21 395 -1 c 128,-1,5
 344 -23 344 -23 281 -23 c 0,6,7
 187 -23 187 -23 130.5 22.5 c 128,-1,8
 74 68 74 68 74 145 c 0,9,10
 74 300 74 300 233 373 c 1,11,-1
 221 383 l 2,12,13
 190 408 190 408 179.5 427.5 c 128,-1,14
 169 447 169 447 169 480 c 0,15,16
 169 567 169 567 234 632 c 0,17,18
 308 709 308 709 421 709 c 0,19,20
 473 709 473 709 511 694 c 128,-1,21
 549 679 549 679 568 655.5 c 128,-1,22
 587 632 587 632 595.5 608.5 c 128,-1,23
 604 585 604 585 604 561 c 0,24,25
 604 527 604 527 594 497 c 128,-1,26
 584 467 584 467 568.5 448.5 c 128,-1,27
 553 430 553 430 535.5 413 c 128,-1,28
 518 396 518 396 502.5 388.5 c 128,-1,29
 487 381 487 381 477 373 c 1,30,31
 560 326 560 326 560 239 c 0,0,1
364 408 m 0,32,33
 432 408 432 408 474 448 c 128,-1,34
 516 488 516 488 516 545 c 0,35,36
 516 586 516 586 487 609 c 128,-1,37
 458 632 458 632 407 632 c 0,38,39
 342 632 342 632 299.5 592 c 128,-1,40
 257 552 257 552 257 491 c 0,41,42
 257 452 257 452 285.5 430 c 128,-1,43
 314 408 314 408 364 408 c 0,32,33
344 334 m 0,44,45
 268 334 268 334 215 283.5 c 128,-1,46
 162 233 162 233 162 160 c 0,47,48
 162 113 162 113 196.5 83.5 c 128,-1,49
 231 54 231 54 287 54 c 0,50,51
 366 54 366 54 419 103.5 c 128,-1,52
 472 153 472 153 472 226 c 0,53,54
 472 275 472 275 437.5 304.5 c 128,-1,55
 403 334 403 334 344 334 c 0,44,45
EndSplineSet
Validated: 1
EndChar

StartChar: nine
Encoding: 57 57 28
Width: 556
GlyphClass: 2
Flags: MW
LayerCount: 2
Fore
SplineSet
404 709 m 0,0,1
 459 709 459 709 499.5 690.5 c 128,-1,2
 540 672 540 672 560.5 642 c 128,-1,3
 581 612 581 612 590 583 c 128,-1,4
 599 554 599 554 599 525 c 0,5,6
 599 495 599 495 595.5 456.5 c 128,-1,7
 592 418 592 418 582 364 c 128,-1,8
 572 310 572 310 556.5 258.5 c 128,-1,9
 541 207 541 207 514 155 c 128,-1,10
 487 103 487 103 452.5 64.5 c 128,-1,11
 418 26 418 26 368 1.5 c 128,-1,12
 318 -23 318 -23 258 -23 c 0,13,14
 178 -23 178 -23 130.5 20 c 128,-1,15
 83 63 83 63 83 135 c 0,16,17
 83 151 83 151 84 162 c 1,18,-1
 171 162 l 1,19,20
 171 110 171 110 196.5 82 c 128,-1,21
 222 54 222 54 270 54 c 0,22,23
 421 54 421 54 481 324 c 1,24,25
 472 315 472 315 454 301.5 c 128,-1,26
 436 288 436 288 416 275 c 128,-1,27
 396 262 396 262 366 253 c 128,-1,28
 336 244 336 244 303 244 c 0,29,30
 222 244 222 244 174 291 c 128,-1,31
 126 338 126 338 126 417 c 0,32,33
 126 442 126 442 133 475 c 128,-1,34
 140 508 140 508 160 550 c 128,-1,35
 180 592 180 592 209.5 626.5 c 128,-1,36
 239 661 239 661 290 685 c 128,-1,37
 341 709 341 709 404 709 c 0,0,1
392 632 m 0,38,39
 319 632 319 632 266.5 574 c 128,-1,40
 214 516 214 516 214 436 c 0,41,42
 214 382 214 382 244 351.5 c 128,-1,43
 274 321 274 321 327 321 c 0,44,45
 403 321 403 321 457 378 c 128,-1,46
 511 435 511 435 511 514 c 0,47,48
 511 564 511 564 477 598 c 128,-1,49
 443 632 443 632 392 632 c 0,38,39
EndSplineSet
Validated: 1
EndChar

StartChar: colon
Encoding: 58 58 29
Width: 278
GlyphClass: 2
Flags: MW
LayerCount: 2
Fore
SplineSet
236 103 m 1,0,-1
 214 0 l 1,1,-1
 110 0 l 1,2,-1
 132 103 l 1,3,-1
 236 103 l 1,0,-1
326 524 m 1,4,-1
 304 421 l 1,5,-1
 200 421 l 1,6,-1
 222 524 l 1,7,-1
 326 524 l 1,4,-1
EndSplineSet
Validated: 1
EndChar

StartChar: semicolon
Encoding: 59 59 30
Width: 278
GlyphClass: 2
Flags: MW
LayerCount: 2
Fore
SplineSet
325 524 m 1,0,-1
 303 421 l 1,1,-1
 199 421 l 1,2,-1
 221 524 l 1,3,-1
 325 524 l 1,0,-1
132 103 m 1,4,-1
 237 103 l 1,5,-1
 211 -16 l 2,6,7
 198 -78 198 -78 164.5 -112.5 c 128,-1,8
 131 -147 131 -147 84 -147 c 2,9,-1
 78 -147 l 1,10,-1
 86 -109 l 1,11,12
 122 -109 122 -109 140.5 -85 c 128,-1,13
 159 -61 159 -61 169 0 c 1,14,-1
 110 0 l 1,15,-1
 132 103 l 1,4,-1
EndSplineSet
Validated: 1
EndChar

StartChar: less
Encoding: 60 60 31
Width: 584
GlyphClass: 2
Flags: MW
LayerCount: 2
Fore
SplineSet
87 198 m 1,0,-1
 102 267 l 1,1,-1
 635 474 l 1,2,-1
 618 395 l 1,3,-1
 196 231 l 1,4,-1
 549 68 l 1,5,-1
 532 -9 l 1,6,-1
 87 198 l 1,0,-1
EndSplineSet
Validated: 1
EndChar

StartChar: equal
Encoding: 61 61 32
Width: 584
GlyphClass: 2
Flags: MW
LayerCount: 2
Fore
SplineSet
609 355 m 1,0,-1
 594 283 l 1,1,-1
 111 283 l 1,2,-1
 125 355 l 1,3,-1
 609 355 l 1,0,-1
572 183 m 1,4,-1
 558 111 l 1,5,-1
 74 111 l 1,6,-1
 89 183 l 1,7,-1
 572 183 l 1,4,-1
EndSplineSet
Validated: 1
EndChar

StartChar: greater
Encoding: 62 62 33
Width: 584
GlyphClass: 2
Flags: MW
LayerCount: 2
Fore
SplineSet
596 267 m 1,0,-1
 581 198 l 1,1,-1
 48 -9 l 1,2,-1
 65 70 l 1,3,-1
 487 234 l 1,4,-1
 134 397 l 1,5,-1
 151 474 l 1,6,-1
 596 267 l 1,0,-1
EndSplineSet
Validated: 1
EndChar

StartChar: question
Encoding: 63 63 34
Width: 556
GlyphClass: 2
Flags: MW
LayerCount: 2
Fore
SplineSet
449 741 m 0,0,1
 500 741 500 741 538 726 c 128,-1,2
 576 711 576 711 594.5 686.5 c 128,-1,3
 613 662 613 662 621.5 638 c 128,-1,4
 630 614 630 614 630 590 c 0,5,6
 630 538 630 538 608 496.5 c 128,-1,7
 586 455 586 455 553 427 c 128,-1,8
 520 399 520 399 486 374 c 128,-1,9
 452 349 452 349 422 316.5 c 128,-1,10
 392 284 392 284 381 246 c 2,11,-1
 371 199 l 1,12,-1
 281 199 l 1,13,-1
 293 254 l 2,14,15
 302 295 302 295 330.5 330 c 128,-1,16
 359 365 359 365 392.5 390.5 c 128,-1,17
 426 416 426 416 458.5 442.5 c 128,-1,18
 491 469 491 469 512.5 503 c 128,-1,19
 534 537 534 537 534 578 c 0,20,21
 534 616 534 616 504 640 c 128,-1,22
 474 664 474 664 427 664 c 0,23,24
 361 664 361 664 323.5 626.5 c 128,-1,25
 286 589 286 589 269 507 c 1,26,-1
 184 507 l 1,27,28
 231 741 231 741 449 741 c 0,0,1
351 103 m 1,29,-1
 329 0 l 1,30,-1
 239 0 l 1,31,-1
 261 103 l 1,32,-1
 351 103 l 1,29,-1
EndSplineSet
Validated: 1
EndChar

StartChar: at
Encoding: 64 64 35
Width: 1015
GlyphClass: 2
Flags: MW
LayerCount: 2
Fore
SplineSet
597 134 m 1,0,1
 558 102 558 102 523.5 82 c 128,-1,2
 489 62 489 62 445 62 c 0,3,4
 384 62 384 62 347 100 c 128,-1,5
 310 138 310 138 310 201 c 0,6,7
 310 275 310 275 357.5 351 c 128,-1,8
 405 427 405 427 479 475.5 c 128,-1,9
 553 524 553 524 626 524 c 0,10,11
 717 524 717 524 735 435 c 1,12,-1
 771 501 l 1,13,-1
 853 501 l 1,14,-1
 704 221 l 2,15,16
 680 176 680 176 680 163 c 0,17,18
 680 149 680 149 692.5 138 c 128,-1,19
 705 127 705 127 721 127 c 0,20,21
 774 127 774 127 828.5 170.5 c 128,-1,22
 883 214 883 214 918 281.5 c 128,-1,23
 953 349 953 349 953 414 c 0,24,25
 953 522 953 522 870 593 c 128,-1,26
 787 664 787 664 660 664 c 0,27,28
 539 664 539 664 424.5 596.5 c 128,-1,29
 310 529 310 529 239 420 c 128,-1,30
 168 311 168 311 168 196 c 0,31,32
 168 79 168 79 253 7 c 128,-1,33
 338 -65 338 -65 475 -65 c 0,34,35
 557 -65 557 -65 679 -33 c 1,36,-1
 692 -100 l 1,37,38
 577 -142 577 -142 447 -142 c 0,39,40
 293 -142 293 -142 186.5 -49.5 c 128,-1,41
 80 43 80 43 80 182 c 0,42,43
 80 251 80 251 105.5 327 c 128,-1,44
 131 403 131 403 183 477 c 128,-1,45
 235 551 235 551 305 609.5 c 128,-1,46
 375 668 375 668 473.5 704.5 c 128,-1,47
 572 741 572 741 681 741 c 0,48,49
 835 741 835 741 935.5 654 c 128,-1,50
 1036 567 1036 567 1036 434 c 0,51,52
 1036 348 1036 348 1008 279 c 128,-1,53
 980 210 980 210 939.5 170 c 128,-1,54
 899 130 899 130 850 103 c 128,-1,55
 801 76 801 76 762.5 66.5 c 128,-1,56
 724 57 724 57 696 57 c 0,57,58
 642 57 642 57 619.5 76 c 128,-1,59
 597 95 597 95 597 120 c 2,60,-1
 597 134 l 1,0,1
478 124 m 0,61,62
 520 124 520 124 560 157 c 128,-1,63
 600 190 600 190 625.5 235 c 128,-1,64
 651 280 651 280 666.5 323 c 128,-1,65
 682 366 682 366 682 390 c 0,66,67
 682 455 682 455 614 455 c 0,68,69
 561 455 561 455 510.5 413.5 c 128,-1,70
 460 372 460 372 431 315 c 128,-1,71
 402 258 402 258 402 210 c 0,72,73
 402 173 402 173 423.5 148.5 c 128,-1,74
 445 124 445 124 478 124 c 0,61,62
EndSplineSet
Validated: 1
EndChar

StartChar: A
Encoding: 65 65 36
Width: 667
GlyphClass: 2
Flags: MW
LayerCount: 2
Fore
SplineSet
524 219 m 1,0,-1
 239 219 l 1,1,-1
 116 0 l 1,2,-1
 17 0 l 1,3,-1
 432 729 l 1,4,-1
 552 729 l 1,5,-1
 653 0 l 1,6,-1
 551 0 l 1,7,-1
 524 219 l 1,0,-1
514 297 m 1,8,-1
 474 630 l 1,9,-1
 283 297 l 1,10,-1
 514 297 l 1,8,-1
EndSplineSet
Validated: 1
EndChar

StartChar: B
Encoding: 66 66 37
Width: 667
GlyphClass: 2
Flags: MW
LayerCount: 2
Fore
SplineSet
672 258 m 0,0,1
 672 153 672 153 598.5 76.5 c 128,-1,2
 525 0 525 0 409 0 c 2,3,-1
 79 0 l 1,4,-1
 234 729 l 1,5,-1
 530 729 l 2,6,7
 582 729 582 729 619 715.5 c 128,-1,8
 656 702 656 702 675 679.5 c 128,-1,9
 694 657 694 657 702.5 633.5 c 128,-1,10
 711 610 711 610 711 584 c 0,11,12
 711 517 711 517 675.5 465 c 128,-1,13
 640 413 640 413 575 384 c 1,14,15
 628 361 628 361 650 332.5 c 128,-1,16
 672 304 672 304 672 258 c 0,0,1
441 415 m 2,17,18
 536 415 536 415 575.5 458.5 c 128,-1,19
 615 502 615 502 615 561 c 0,20,21
 615 647 615 647 491 647 c 2,22,-1
 311 647 l 1,23,-1
 261 415 l 1,24,-1
 441 415 l 2,17,18
417 82 m 2,25,26
 489 82 489 82 532.5 127.5 c 128,-1,27
 576 173 576 173 576 242 c 0,28,29
 576 333 576 333 470 333 c 2,30,-1
 244 333 l 1,31,-1
 190 82 l 1,32,-1
 417 82 l 2,25,26
EndSplineSet
Validated: 1
EndChar

StartChar: C
Encoding: 67 67 38
Width: 722
GlyphClass: 2
Flags: MW
LayerCount: 2
Fore
SplineSet
367 -23 m 0,0,1
 308 -23 308 -23 261.5 -5.5 c 128,-1,2
 215 12 215 12 188 39.5 c 128,-1,3
 161 67 161 67 143 103.5 c 128,-1,4
 125 140 125 140 118.5 173.5 c 128,-1,5
 112 207 112 207 112 242 c 0,6,7
 112 336 112 336 146.5 432.5 c 128,-1,8
 181 529 181 529 240 600 c 0,9,10
 357 741 357 741 532 741 c 0,11,12
 564 741 564 741 592.5 735.5 c 128,-1,13
 621 730 621 730 653.5 714.5 c 128,-1,14
 686 699 686 699 709.5 673.5 c 128,-1,15
 733 648 733 648 750 604 c 128,-1,16
 767 560 767 560 770 503 c 1,17,-1
 674 503 l 1,18,19
 668 584 668 584 629.5 622 c 128,-1,20
 591 660 591 660 515 660 c 0,21,22
 445 660 445 660 389 627 c 128,-1,23
 333 594 333 594 300.5 546.5 c 128,-1,24
 268 499 268 499 246 441 c 128,-1,25
 224 383 224 383 216 338 c 128,-1,26
 208 293 208 293 208 260 c 0,27,28
 208 169 208 169 255.5 113.5 c 128,-1,29
 303 58 303 58 381 58 c 0,30,31
 436 58 436 58 478.5 75 c 128,-1,32
 521 92 521 92 551 125.5 c 128,-1,33
 581 159 581 159 599 189.5 c 128,-1,34
 617 220 617 220 637 266 c 1,35,-1
 735 266 l 1,36,37
 668 106 668 106 578 41.5 c 128,-1,38
 488 -23 488 -23 367 -23 c 0,0,1
EndSplineSet
Validated: 1
EndChar

StartChar: D
Encoding: 68 68 39
Width: 722
GlyphClass: 2
Flags: MW
LayerCount: 2
Fore
SplineSet
526 729 m 2,0,1
 593 729 593 729 641.5 704 c 128,-1,2
 690 679 690 679 714 639.5 c 128,-1,3
 738 600 738 600 748.5 562.5 c 128,-1,4
 759 525 759 525 759 488 c 0,5,6
 759 394 759 394 726.5 295 c 128,-1,7
 694 196 694 196 643 134 c 0,8,9
 533 0 533 0 371 0 c 2,10,-1
 89 0 l 1,11,-1
 244 729 l 1,12,-1
 526 729 l 2,0,1
200 82 m 1,13,-1
 372 82 l 2,14,15
 511 82 511 82 591 205 c 0,16,17
 621 253 621 253 642 332 c 128,-1,18
 663 411 663 411 663 480 c 0,19,20
 663 558 663 558 617.5 602.5 c 128,-1,21
 572 647 572 647 492 647 c 2,22,-1
 321 647 l 1,23,-1
 200 82 l 1,13,-1
EndSplineSet
Validated: 1
EndChar

StartChar: E
Encoding: 69 69 40
Width: 667
GlyphClass: 2
Flags: MW
LayerCount: 2
Fore
SplineSet
255 332 m 1,0,-1
 201 82 l 1,1,-1
 630 82 l 1,2,-1
 613 0 l 1,3,-1
 90 0 l 1,4,-1
 245 729 l 1,5,-1
 751 729 l 1,6,-1
 734 647 l 1,7,-1
 322 647 l 1,8,-1
 272 414 l 1,9,-1
 668 414 l 1,10,-1
 650 332 l 1,11,-1
 255 332 l 1,0,-1
EndSplineSet
Validated: 1
EndChar

StartChar: F
Encoding: 70 70 41
Width: 611
GlyphClass: 2
Flags: MW
LayerCount: 2
Fore
SplineSet
255 332 m 1,0,-1
 184 0 l 1,1,-1
 90 0 l 1,2,-1
 245 729 l 1,3,-1
 734 729 l 1,4,-1
 717 647 l 1,5,-1
 322 647 l 1,6,-1
 272 414 l 1,7,-1
 619 414 l 1,8,-1
 602 332 l 1,9,-1
 255 332 l 1,0,-1
EndSplineSet
Validated: 1
EndChar

StartChar: G
Encoding: 71 71 42
Width: 778
GlyphClass: 2
Flags: MW
LayerCount: 2
Fore
SplineSet
205 277 m 0,0,1
 205 211 205 211 224.5 165 c 128,-1,2
 244 119 244 119 277.5 97 c 128,-1,3
 311 75 311 75 343 66.5 c 128,-1,4
 375 58 375 58 411 58 c 0,5,6
 505 58 505 58 584.5 115.5 c 128,-1,7
 664 173 664 173 687 277 c 2,8,-1
 693 303 l 1,9,-1
 471 303 l 1,10,-1
 489 385 l 1,11,-1
 793 385 l 1,12,-1
 710 -4 l 1,13,-1
 651 -4 l 1,14,-1
 647 86 l 1,15,16
 581 31 581 31 521 4 c 128,-1,17
 461 -23 461 -23 378 -23 c 0,18,19
 343 -23 343 -23 308.5 -15.5 c 128,-1,20
 274 -8 274 -8 237 12 c 128,-1,21
 200 32 200 32 172.5 62.5 c 128,-1,22
 145 93 145 93 127 144.5 c 128,-1,23
 109 196 109 196 109 261 c 0,24,25
 109 358 109 358 150 454.5 c 128,-1,26
 191 551 191 551 263 623 c 0,27,28
 381 741 381 741 555 741 c 0,29,30
 673 741 673 741 741 683 c 128,-1,31
 809 625 809 625 809 525 c 2,32,-1
 809 508 l 1,33,-1
 718 508 l 1,34,35
 717 552 717 552 699 584 c 128,-1,36
 681 616 681 616 652.5 631.5 c 128,-1,37
 624 647 624 647 595.5 653.5 c 128,-1,38
 567 660 567 660 537 660 c 0,39,40
 471 660 471 660 416.5 637.5 c 128,-1,41
 362 615 362 615 327 578 c 128,-1,42
 292 541 292 541 267 499 c 128,-1,43
 242 457 242 457 229 411.5 c 128,-1,44
 216 366 216 366 210.5 333.5 c 128,-1,45
 205 301 205 301 205 277 c 0,0,1
EndSplineSet
Validated: 1
EndChar

StartChar: H
Encoding: 72 72 43
Width: 722
GlyphClass: 2
Flags: MW
LayerCount: 2
Fore
SplineSet
621 332 m 1,0,-1
 248 332 l 1,1,-1
 177 0 l 1,2,-1
 83 0 l 1,3,-1
 238 729 l 1,4,-1
 332 729 l 1,5,-1
 265 414 l 1,6,-1
 638 414 l 1,7,-1
 705 729 l 1,8,-1
 799 729 l 1,9,-1
 644 0 l 1,10,-1
 550 0 l 1,11,-1
 621 332 l 1,0,-1
EndSplineSet
Validated: 1
EndChar

StartChar: I
Encoding: 73 73 44
Width: 278
GlyphClass: 2
Flags: MW
LayerCount: 2
Fore
SplineSet
349 729 m 1,0,-1
 194 0 l 1,1,-1
 100 0 l 1,2,-1
 255 729 l 1,3,-1
 349 729 l 1,0,-1
EndSplineSet
Validated: 1
EndChar

StartChar: J
Encoding: 74 74 45
Width: 500
GlyphClass: 2
Flags: MW
LayerCount: 2
Fore
SplineSet
213 -23 m 0,0,1
 166 -23 166 -23 131 -8 c 128,-1,2
 96 7 96 7 79 31 c 128,-1,3
 62 55 62 55 54.5 77.5 c 128,-1,4
 47 100 47 100 47 122 c 128,-1,5
 47 144 47 144 53 170 c 2,6,-1
 67 234 l 1,7,-1
 161 234 l 1,8,-1
 147 168 l 2,9,10
 143 152 143 152 143 134 c 0,11,12
 143 100 143 100 168 79 c 128,-1,13
 193 58 193 58 233 58 c 0,14,15
 266 58 266 58 292 72.5 c 128,-1,16
 318 87 318 87 332 103 c 128,-1,17
 346 119 346 119 357.5 147.5 c 128,-1,18
 369 176 369 176 371.5 186 c 128,-1,19
 374 196 374 196 378 216 c 2,20,-1
 487 729 l 1,21,-1
 581 729 l 1,22,-1
 465 182 l 2,23,24
 444 84 444 84 378 30.5 c 128,-1,25
 312 -23 312 -23 213 -23 c 0,0,1
EndSplineSet
Validated: 1
EndChar

StartChar: K
Encoding: 75 75 46
Width: 667
GlyphClass: 2
Flags: MW
LayerCount: 2
Fore
SplineSet
226 249 m 1,0,-1
 173 0 l 1,1,-1
 79 0 l 1,2,-1
 234 729 l 1,3,-1
 328 729 l 1,4,-1
 249 356 l 1,5,-1
 693 729 l 1,6,-1
 813 729 l 1,7,-1
 452 431 l 1,8,-1
 658 0 l 1,9,-1
 548 0 l 1,10,-1
 380 376 l 1,11,-1
 226 249 l 1,0,-1
EndSplineSet
Validated: 1
EndChar

StartChar: L
Encoding: 76 76 47
Width: 556
GlyphClass: 2
Flags: MW
LayerCount: 2
Fore
SplineSet
329 729 m 1,0,-1
 191 82 l 1,1,-1
 551 82 l 1,2,-1
 534 0 l 1,3,-1
 80 0 l 1,4,-1
 235 729 l 1,5,-1
 329 729 l 1,0,-1
EndSplineSet
Validated: 1
EndChar

StartChar: M
Encoding: 77 77 48
Width: 833
GlyphClass: 2
Flags: MW
LayerCount: 2
Fore
SplineSet
467 0 m 1,0,-1
 370 0 l 1,1,-1
 293 605 l 1,2,-1
 164 0 l 1,3,-1
 75 0 l 1,4,-1
 230 729 l 1,5,-1
 359 729 l 1,6,-1
 439 102 l 1,7,-1
 785 729 l 1,8,-1
 916 729 l 1,9,-1
 761 0 l 1,10,-1
 672 0 l 1,11,-1
 801 605 l 1,12,-1
 467 0 l 1,0,-1
EndSplineSet
Validated: 1
EndChar

StartChar: N
Encoding: 78 78 49
Width: 722
GlyphClass: 2
Flags: MW
LayerCount: 2
Fore
SplineSet
801 729 m 1,0,-1
 646 0 l 1,1,-1
 540 0 l 1,2,-1
 291 591 l 1,3,-1
 165 0 l 1,4,-1
 76 0 l 1,5,-1
 231 729 l 1,6,-1
 335 729 l 1,7,-1
 585 131 l 1,8,-1
 712 729 l 1,9,-1
 801 729 l 1,0,-1
EndSplineSet
Validated: 1
EndChar

StartChar: O
Encoding: 79 79 50
Width: 778
GlyphClass: 2
Flags: MW
LayerCount: 2
Fore
SplineSet
391 -23 m 0,0,1
 351 -23 351 -23 313.5 -15.5 c 128,-1,2
 276 -8 276 -8 237 12 c 128,-1,3
 198 32 198 32 169 63 c 128,-1,4
 140 94 140 94 122 145.5 c 128,-1,5
 104 197 104 197 104 263 c 0,6,7
 104 358 104 358 141.5 451.5 c 128,-1,8
 179 545 179 545 246 614 c 0,9,10
 367 741 367 741 537 741 c 0,11,12
 620 741 620 741 680 715 c 128,-1,13
 740 689 740 689 770.5 646 c 128,-1,14
 801 603 801 603 814.5 558 c 128,-1,15
 828 513 828 513 828 464 c 0,16,17
 828 438 828 438 823.5 403.5 c 128,-1,18
 819 369 819 369 806 321 c 128,-1,19
 793 273 793 273 772.5 227 c 128,-1,20
 752 181 752 181 717.5 135 c 128,-1,21
 683 89 683 89 639 54.5 c 128,-1,22
 595 20 595 20 531 -1.5 c 128,-1,23
 467 -23 467 -23 391 -23 c 0,0,1
732 446 m 0,24,25
 732 507 732 507 712.5 551 c 128,-1,26
 693 595 693 595 660.5 617.5 c 128,-1,27
 628 640 628 640 594.5 650 c 128,-1,28
 561 660 561 660 525 660 c 0,29,30
 455 660 455 660 391.5 626.5 c 128,-1,31
 328 593 328 593 284 533 c 0,32,33
 200 417 200 417 200 271 c 0,34,35
 200 211 200 211 220 166.5 c 128,-1,36
 240 122 240 122 272 100 c 128,-1,37
 304 78 304 78 337 68 c 128,-1,38
 370 58 370 58 404 58 c 0,39,40
 470 58 470 58 524 81 c 128,-1,41
 578 104 578 104 612.5 141.5 c 128,-1,42
 647 179 647 179 671.5 222 c 128,-1,43
 696 265 696 265 708.5 311 c 128,-1,44
 721 357 721 357 726.5 390 c 128,-1,45
 732 423 732 423 732 446 c 0,24,25
EndSplineSet
Validated: 1
EndChar

StartChar: P
Encoding: 80 80 51
Width: 667
GlyphClass: 2
Flags: MW
LayerCount: 2
Fore
SplineSet
733 568 m 0,0,1
 733 462 733 462 662 385.5 c 128,-1,2
 591 309 591 309 479 309 c 2,3,-1
 251 309 l 1,4,-1
 185 0 l 1,5,-1
 91 0 l 1,6,-1
 246 729 l 1,7,-1
 548 729 l 2,8,9
 733 729 733 729 733 568 c 0,0,1
462 391 m 2,10,11
 542 391 542 391 589.5 437 c 128,-1,12
 637 483 637 483 637 550 c 0,13,14
 637 647 637 647 517 647 c 2,15,-1
 323 647 l 1,16,-1
 268 391 l 1,17,-1
 462 391 l 2,10,11
EndSplineSet
Validated: 1
EndChar

StartChar: Q
Encoding: 81 81 52
Width: 778
GlyphClass: 2
Flags: MW
LayerCount: 2
Fore
SplineSet
537 741 m 0,0,1
 590 741 590 741 637 728 c 128,-1,2
 684 715 684 715 729 685 c 128,-1,3
 774 655 774 655 801 596 c 128,-1,4
 828 537 828 537 828 456 c 0,5,6
 828 348 828 348 783 249 c 128,-1,7
 738 150 738 150 655 76 c 1,8,-1
 733 -1 l 1,9,-1
 673 -59 l 1,10,-1
 586 28 l 1,11,12
 531 -1 531 -1 489.5 -12 c 128,-1,13
 448 -23 448 -23 390 -23 c 0,14,15
 255 -23 255 -23 179.5 53 c 128,-1,16
 104 129 104 129 104 264 c 0,17,18
 104 379 104 379 158 488 c 128,-1,19
 212 597 212 597 301 664 c 0,20,21
 405 741 405 741 537 741 c 0,0,1
732 446 m 0,22,23
 732 507 732 507 712.5 551 c 128,-1,24
 693 595 693 595 660.5 617.5 c 128,-1,25
 628 640 628 640 594.5 650 c 128,-1,26
 561 660 561 660 525 660 c 0,27,28
 454 660 454 660 391 626.5 c 128,-1,29
 328 593 328 593 285 533 c 0,30,31
 245 479 245 479 222.5 409.5 c 128,-1,32
 200 340 200 340 200 272 c 0,33,34
 200 171 200 171 255.5 114.5 c 128,-1,35
 311 58 311 58 409 58 c 0,36,37
 463 58 463 58 528 87 c 1,38,-1
 466 149 l 1,39,-1
 524 205 l 1,40,-1
 598 132 l 1,41,42
 732 261 732 261 732 446 c 0,22,23
EndSplineSet
Validated: 1
EndChar

StartChar: R
Encoding: 82 82 53
Width: 722
GlyphClass: 2
Flags: MW
LayerCount: 2
Fore
SplineSet
562 47 m 0,0,1
 562 84 562 84 578 146 c 128,-1,2
 594 208 594 208 594 239 c 0,3,4
 594 314 594 314 493 314 c 2,5,-1
 254 314 l 1,6,-1
 187 0 l 1,7,-1
 93 0 l 1,8,-1
 248 729 l 1,9,-1
 584 729 l 2,10,11
 680 729 680 729 725 691.5 c 128,-1,12
 770 654 770 654 770 575 c 0,13,14
 770 535 770 535 758.5 500.5 c 128,-1,15
 747 466 747 466 733 445.5 c 128,-1,16
 719 425 719 425 695.5 405 c 128,-1,17
 672 385 672 385 660.5 378 c 128,-1,18
 649 371 649 371 630 360 c 1,19,20
 665 337 665 337 677.5 317 c 128,-1,21
 690 297 690 297 690 264 c 0,22,23
 690 242 690 242 676.5 167.5 c 128,-1,24
 663 93 663 93 663 76 c 0,25,26
 663 42 663 42 684 23 c 1,27,-1
 679 0 l 1,28,-1
 566 0 l 1,29,30
 562 28 562 28 562 47 c 0,0,1
674 558 m 0,31,32
 674 610 674 610 643.5 628.5 c 128,-1,33
 613 647 613 647 555 647 c 2,34,-1
 325 647 l 1,35,-1
 271 396 l 1,36,-1
 502 396 l 2,37,38
 551 396 551 396 587 412 c 128,-1,39
 623 428 623 428 640.5 453.5 c 128,-1,40
 658 479 658 479 666 505 c 128,-1,41
 674 531 674 531 674 558 c 0,31,32
EndSplineSet
Validated: 1
EndChar

StartChar: S
Encoding: 83 83 54
Width: 667
GlyphClass: 2
Flags: MW
LayerCount: 2
Fore
SplineSet
488 741 m 0,0,1
 552 741 552 741 599 724.5 c 128,-1,2
 646 708 646 708 669.5 681 c 128,-1,3
 693 654 693 654 703.5 626.5 c 128,-1,4
 714 599 714 599 714 571 c 0,5,6
 714 552 714 552 706 515 c 1,7,-1
 618 515 l 1,8,9
 622 542 622 542 622 551 c 0,10,11
 622 660 622 660 470 660 c 0,12,13
 386 660 386 660 330 621 c 128,-1,14
 274 582 274 582 274 518 c 0,15,16
 274 485 274 485 295.5 467 c 128,-1,17
 317 449 317 449 375 432 c 2,18,-1
 547 383 l 2,19,20
 609 366 609 366 639 323.5 c 128,-1,21
 669 281 669 281 669 237 c 0,22,23
 669 217 669 217 662 189.5 c 128,-1,24
 655 162 655 162 632 123.5 c 128,-1,25
 609 85 609 85 574 53.5 c 128,-1,26
 539 22 539 22 475 -0.5 c 128,-1,27
 411 -23 411 -23 330 -23 c 0,28,29
 217 -23 217 -23 153 28 c 128,-1,30
 89 79 89 79 89 169 c 0,31,32
 89 199 89 199 98 232 c 1,33,-1
 185 232 l 1,34,35
 181 207 181 207 181 191 c 0,36,37
 181 123 181 123 221 90.5 c 128,-1,38
 261 58 261 58 346 58 c 0,39,40
 450 58 450 58 511.5 102 c 128,-1,41
 573 146 573 146 573 209 c 0,42,43
 573 245 573 245 546.5 268.5 c 128,-1,44
 520 292 520 292 460 309 c 2,45,-1
 289 357 l 2,46,47
 239 371 239 371 208.5 408 c 128,-1,48
 178 445 178 445 178 492 c 0,49,50
 178 530 178 530 198.5 577.5 c 128,-1,51
 219 625 219 625 250 656 c 0,52,53
 332 741 332 741 488 741 c 0,0,1
EndSplineSet
Validated: 1
EndChar

StartChar: T
Encoding: 84 84 55
Width: 611
GlyphClass: 2
Flags: MW
LayerCount: 2
Fore
SplineSet
493 647 m 1,0,-1
 355 0 l 1,1,-1
 261 0 l 1,2,-1
 399 647 l 1,3,-1
 158 647 l 1,4,-1
 175 729 l 1,5,-1
 748 729 l 1,6,-1
 731 647 l 1,7,-1
 493 647 l 1,0,-1
EndSplineSet
Validated: 1
EndChar

StartChar: U
Encoding: 85 85 56
Width: 722
GlyphClass: 2
Flags: MW
LayerCount: 2
Fore
SplineSet
363 -23 m 0,0,1
 255 -23 255 -23 189.5 27 c 128,-1,2
 124 77 124 77 124 155 c 0,3,4
 124 185 124 185 138 251 c 2,5,-1
 240 729 l 1,6,-1
 334 729 l 1,7,-1
 225 217 l 2,8,9
 220 190 220 190 220 173 c 0,10,11
 220 121 220 121 264.5 89.5 c 128,-1,12
 309 58 309 58 381 58 c 0,13,14
 466 58 466 58 523.5 100.5 c 128,-1,15
 581 143 581 143 597 217 c 2,16,-1
 706 729 l 1,17,-1
 800 729 l 1,18,-1
 691 217 l 2,19,20
 668 108 668 108 578.5 42.5 c 128,-1,21
 489 -23 489 -23 363 -23 c 0,0,1
EndSplineSet
Validated: 1
EndChar

StartChar: V
Encoding: 86 86 57
Width: 667
GlyphClass: 2
Flags: MW
LayerCount: 2
Fore
SplineSet
392 0 m 1,0,-1
 292 0 l 1,1,-1
 185 729 l 1,2,-1
 282 729 l 1,3,-1
 365 112 l 1,4,-1
 701 729 l 1,5,-1
 800 729 l 1,6,-1
 392 0 l 1,0,-1
EndSplineSet
Validated: 1
EndChar

StartChar: W
Encoding: 87 87 58
Width: 944
GlyphClass: 2
Flags: MW
LayerCount: 2
Fore
SplineSet
744 0 m 1,0,-1
 642 0 l 1,1,-1
 601 592 l 1,2,-1
 311 0 l 1,3,-1
 209 0 l 1,4,-1
 177 729 l 1,5,-1
 277 729 l 1,6,-1
 292 137 l 1,7,-1
 580 729 l 1,8,-1
 676 729 l 1,9,-1
 717 137 l 1,10,-1
 980 729 l 1,11,-1
 1084 729 l 1,12,-1
 744 0 l 1,0,-1
EndSplineSet
Validated: 1
EndChar

StartChar: X
Encoding: 88 88 59
Width: 667
GlyphClass: 2
Flags: MW
LayerCount: 2
Fore
SplineSet
471 374 m 1,0,-1
 650 0 l 1,1,-1
 535 0 l 1,2,-1
 401 304 l 1,3,-1
 137 0 l 1,4,-1
 22 0 l 1,5,-1
 361 374 l 1,6,-1
 194 729 l 1,7,-1
 307 729 l 1,8,-1
 432 444 l 1,9,-1
 680 729 l 1,10,-1
 794 729 l 1,11,-1
 471 374 l 1,0,-1
EndSplineSet
Validated: 1
EndChar

StartChar: Y
Encoding: 89 89 60
Width: 667
GlyphClass: 2
Flags: MW
LayerCount: 2
Fore
SplineSet
448 286 m 1,0,-1
 387 0 l 1,1,-1
 293 0 l 1,2,-1
 354 286 l 1,3,-1
 168 729 l 1,4,-1
 280 729 l 1,5,-1
 416 372 l 1,6,-1
 705 729 l 1,7,-1
 816 729 l 1,8,-1
 448 286 l 1,0,-1
EndSplineSet
Validated: 1
EndChar

StartChar: Z
Encoding: 90 90 61
Width: 611
GlyphClass: 2
Flags: MW
LayerCount: 2
Fore
SplineSet
737 729 m 1,0,-1
 719 645 l 1,1,-1
 163 82 l 1,2,-1
 601 82 l 1,3,-1
 584 0 l 1,4,-1
 28 0 l 1,5,-1
 46 84 l 1,6,-1
 601 647 l 1,7,-1
 195 647 l 1,8,-1
 212 729 l 1,9,-1
 737 729 l 1,0,-1
EndSplineSet
Validated: 1
EndChar

StartChar: bracketleft
Encoding: 91 91 62
Width: 278
GlyphClass: 2
Flags: MW
LayerCount: 2
Fore
SplineSet
405 729 m 1,0,-1
 390 657 l 1,1,-1
 288 657 l 1,2,-1
 118 -141 l 1,3,-1
 220 -141 l 1,4,-1
 205 -213 l 1,5,-1
 19 -213 l 1,6,-1
 219 729 l 1,7,-1
 405 729 l 1,0,-1
EndSplineSet
Validated: 1
EndChar

StartChar: backslash
Encoding: 92 92 63
Width: 278
GlyphClass: 2
Flags: MW
LayerCount: 2
Fore
SplineSet
147 729 m 1,0,-1
 202 729 l 1,1,-1
 280 -20 l 1,2,-1
 225 -20 l 1,3,-1
 147 729 l 1,0,-1
EndSplineSet
Validated: 1
EndChar

StartChar: bracketright
Encoding: 93 93 64
Width: 278
GlyphClass: 2
Flags: MW
LayerCount: 2
Fore
SplineSet
-23 -213 m 1,0,-1
 -8 -141 l 1,1,-1
 95 -141 l 1,2,-1
 265 657 l 1,3,-1
 162 657 l 1,4,-1
 177 729 l 1,5,-1
 364 729 l 1,6,-1
 164 -213 l 1,7,-1
 -23 -213 l 1,0,-1
EndSplineSet
Validated: 1
EndChar

StartChar: asciicircum
Encoding: 94 94 65
Width: 469
GlyphClass: 2
Flags: MW
LayerCount: 2
Fore
SplineSet
349 709 m 1,0,-1
 422 709 l 1,1,-1
 496 329 l 1,2,-1
 427 329 l 1,3,-1
 369 628 l 1,4,-1
 187 329 l 1,5,-1
 115 329 l 1,6,-1
 349 709 l 1,0,-1
EndSplineSet
Validated: 1
EndChar

StartChar: underscore
Encoding: 95 95 66
Width: 556
GlyphClass: 2
Flags: MW
LayerCount: 2
Fore
SplineSet
551 -126 m 1,0,-1
 540 -176 l 1,1,-1
 -59 -176 l 1,2,-1
 -48 -126 l 1,3,-1
 551 -126 l 1,0,-1
EndSplineSet
Validated: 1
EndChar

StartChar: grave
Encoding: 96 96 67
Width: 333
GlyphClass: 2
Flags: MW
LayerCount: 2
Fore
SplineSet
285 740 m 1,0,-1
 357 592 l 1,1,-1
 304 592 l 1,2,-1
 179 740 l 1,3,-1
 285 740 l 1,0,-1
EndSplineSet
Validated: 1
EndChar

StartChar: a
Encoding: 97 97 68
Width: 556
GlyphClass: 2
Flags: MW
LayerCount: 2
Fore
SplineSet
372 462 m 0,0,1
 264 462 264 462 235 369 c 1,2,-1
 151 369 l 1,3,4
 165 452 165 452 227.5 495.5 c 128,-1,5
 290 539 290 539 394 539 c 0,6,7
 473 539 473 539 520.5 508 c 128,-1,8
 568 477 568 477 568 426 c 0,9,10
 568 416 568 416 562 389 c 2,11,-1
 498 88 l 2,12,13
 497 85 497 85 497 78 c 0,14,15
 497 49 497 49 535 49 c 0,16,17
 543 49 543 49 552 51 c 1,18,-1
 539 -14 l 1,19,20
 531 -15 531 -15 521 -17.5 c 128,-1,21
 511 -20 511 -20 503.5 -21.5 c 128,-1,22
 496 -23 496 -23 486 -23 c 0,23,24
 450 -23 450 -23 430 -5.5 c 128,-1,25
 410 12 410 12 410 43 c 2,26,-1
 410 54 l 1,27,28
 400 47 400 47 390.5 37.5 c 128,-1,29
 381 28 381 28 363 17.5 c 128,-1,30
 345 7 345 7 324.5 -2 c 128,-1,31
 304 -11 304 -11 273.5 -17 c 128,-1,32
 243 -23 243 -23 209 -23 c 0,33,34
 142 -23 142 -23 103.5 11 c 128,-1,35
 65 45 65 45 65 105 c 0,36,37
 65 197 65 197 147 249 c 0,38,39
 184 272 184 272 230.5 283.5 c 128,-1,40
 277 295 277 295 315 297 c 128,-1,41
 353 299 353 299 387.5 302 c 128,-1,42
 422 305 422 305 444.5 318.5 c 128,-1,43
 467 332 467 332 473 361 c 2,44,-1
 476 379 l 2,45,46
 478 395 478 395 478 398 c 0,47,48
 478 426 478 426 447.5 444 c 128,-1,49
 417 462 417 462 372 462 c 0,0,1
451 258 m 1,50,51
 422 248 422 248 362 238.5 c 128,-1,52
 302 229 302 229 261 221.5 c 128,-1,53
 220 214 220 214 186.5 187 c 128,-1,54
 153 160 153 160 153 115 c 0,55,56
 153 83 153 83 176 66 c 128,-1,57
 199 49 199 49 242 49 c 0,58,59
 308 49 308 49 364.5 83.5 c 128,-1,60
 421 118 421 118 431 164 c 2,61,-1
 451 258 l 1,50,51
EndSplineSet
Validated: 1
EndChar

StartChar: b
Encoding: 98 98 69
Width: 556
GlyphClass: 2
Flags: MW
LayerCount: 2
Fore
SplineSet
294 -23 m 0,0,1
 188 -23 188 -23 146 78 c 1,2,-1
 129 0 l 1,3,-1
 54 0 l 1,4,-1
 209 729 l 1,5,-1
 293 729 l 1,6,-1
 235 454 l 1,7,8
 244 462 244 462 252.5 472.5 c 128,-1,9
 261 483 261 483 277 495 c 128,-1,10
 293 507 293 507 310.5 516.5 c 128,-1,11
 328 526 328 526 354.5 532.5 c 128,-1,12
 381 539 381 539 411 539 c 0,13,14
 487 539 487 539 537.5 483 c 128,-1,15
 588 427 588 427 588 343 c 0,16,17
 588 266 588 266 557.5 187 c 128,-1,18
 527 108 527 108 477 55 c 0,19,20
 443 20 443 20 393.5 -1.5 c 128,-1,21
 344 -23 344 -23 294 -23 c 0,0,1
296 54 m 0,22,23
 344 54 344 54 382 77 c 128,-1,24
 420 100 420 100 441.5 132.5 c 128,-1,25
 463 165 463 165 477 205 c 128,-1,26
 491 245 491 245 495.5 274 c 128,-1,27
 500 303 500 303 500 324 c 0,28,29
 500 389 500 389 469 425.5 c 128,-1,30
 438 462 438 462 383 462 c 0,31,32
 291 462 291 462 231 361 c 0,33,34
 185 282 185 282 185 183 c 0,35,36
 185 124 185 124 215 89 c 128,-1,37
 245 54 245 54 296 54 c 0,22,23
EndSplineSet
Validated: 1
EndChar

StartChar: c
Encoding: 99 99 70
Width: 500
GlyphClass: 2
Flags: MW
LayerCount: 2
Fore
SplineSet
381 539 m 0,0,1
 458 539 458 539 506 496 c 128,-1,2
 554 453 554 453 554 392 c 0,3,4
 554 391 554 391 553.5 387 c 128,-1,5
 553 383 553 383 552.5 376 c 128,-1,6
 552 369 552 369 552 363 c 2,7,-1
 551 348 l 1,8,-1
 467 348 l 1,9,10
 468 357 468 357 468 370 c 0,11,12
 468 413 468 413 440.5 437.5 c 128,-1,13
 413 462 413 462 366 462 c 0,14,15
 318 462 318 462 280 438 c 128,-1,16
 242 414 242 414 221 380 c 128,-1,17
 200 346 200 346 186.5 304.5 c 128,-1,18
 173 263 173 263 168.5 232.5 c 128,-1,19
 164 202 164 202 164 181 c 0,20,21
 164 123 164 123 194.5 88.5 c 128,-1,22
 225 54 225 54 277 54 c 0,23,24
 388 54 388 54 434 180 c 1,25,-1
 518 180 l 1,26,27
 513 162 513 162 509.5 152 c 128,-1,28
 506 142 506 142 495.5 118 c 128,-1,29
 485 94 485 94 473.5 78 c 128,-1,30
 462 62 462 62 441.5 41 c 128,-1,31
 421 20 421 20 397.5 7.5 c 128,-1,32
 374 -5 374 -5 339 -14 c 128,-1,33
 304 -23 304 -23 263 -23 c 0,34,35
 210 -23 210 -23 171 -3.5 c 128,-1,36
 132 16 132 16 112.5 47.5 c 128,-1,37
 93 79 93 79 84.5 109.5 c 128,-1,38
 76 140 76 140 76 170 c 0,39,40
 76 329 76 329 160.5 434 c 128,-1,41
 245 539 245 539 381 539 c 0,0,1
EndSplineSet
Validated: 1
EndChar

StartChar: d
Encoding: 100 100 71
Width: 556
GlyphClass: 2
Flags: MW
LayerCount: 2
Fore
SplineSet
430 76 m 1,0,1
 407 31 407 31 352.5 4 c 128,-1,2
 298 -23 298 -23 244 -23 c 0,3,4
 166 -23 166 -23 119.5 29.5 c 128,-1,5
 73 82 73 82 73 170 c 0,6,7
 73 328 73 328 156 433.5 c 128,-1,8
 239 539 239 539 363 539 c 0,9,10
 416 539 416 539 449 518 c 128,-1,11
 482 497 482 497 506 448 c 1,12,-1
 566 729 l 1,13,-1
 650 729 l 1,14,-1
 495 0 l 1,15,-1
 414 0 l 1,16,-1
 430 76 l 1,0,1
278 54 m 0,17,18
 322 54 322 54 358 76.5 c 128,-1,19
 394 99 394 99 414.5 131.5 c 128,-1,20
 435 164 435 164 449 203.5 c 128,-1,21
 463 243 463 243 468 274 c 128,-1,22
 473 305 473 305 473 327 c 0,23,24
 473 391 473 391 442 426.5 c 128,-1,25
 411 462 411 462 355 462 c 0,26,27
 309 462 309 462 273 438.5 c 128,-1,28
 237 415 237 415 216.5 382 c 128,-1,29
 196 349 196 349 183 309 c 128,-1,30
 170 269 170 269 165.5 239.5 c 128,-1,31
 161 210 161 210 161 190 c 0,32,33
 161 125 161 125 192 89.5 c 128,-1,34
 223 54 223 54 278 54 c 0,17,18
EndSplineSet
Validated: 1
EndChar

StartChar: e
Encoding: 101 101 72
Width: 556
GlyphClass: 2
Flags: MW
LayerCount: 2
Fore
SplineSet
84 173 m 0,0,1
 84 201 84 201 90.5 239.5 c 128,-1,2
 97 278 97 278 117.5 332.5 c 128,-1,3
 138 387 138 387 169.5 431.5 c 128,-1,4
 201 476 201 476 258.5 507.5 c 128,-1,5
 316 539 316 539 389 539 c 0,6,7
 470 539 470 539 525 489.5 c 128,-1,8
 580 440 580 440 580 368 c 0,9,10
 580 326 580 326 566 251 c 2,11,-1
 563 234 l 1,12,-1
 177 234 l 1,13,14
 172 215 172 215 172 188 c 0,15,16
 172 124 172 124 204.5 89 c 128,-1,17
 237 54 237 54 296 54 c 0,18,19
 397 54 397 54 452 159 c 1,20,-1
 536 159 l 1,21,22
 513 78 513 78 442.5 27.5 c 128,-1,23
 372 -23 372 -23 282 -23 c 0,24,25
 193 -23 193 -23 138.5 33.5 c 128,-1,26
 84 90 84 90 84 173 c 0,0,1
195 306 m 1,27,-1
 489 306 l 1,28,29
 492 330 492 330 492 339 c 0,30,31
 492 395 492 395 460.5 428.5 c 128,-1,32
 429 462 429 462 376 462 c 0,33,34
 315 462 315 462 265 418.5 c 128,-1,35
 215 375 215 375 195 306 c 1,27,-1
EndSplineSet
Validated: 1
EndChar

StartChar: f
Encoding: 102 102 73
Width: 278
GlyphClass: 2
Flags: MW
LayerCount: 2
Fore
SplineSet
370 524 m 1,0,-1
 356 457 l 1,1,-1
 270 457 l 1,2,-1
 173 0 l 1,3,-1
 89 0 l 1,4,-1
 186 457 l 1,5,-1
 116 457 l 1,6,-1
 130 524 l 1,7,-1
 200 524 l 1,8,-1
 219 613 l 2,9,10
 231 669 231 669 270.5 700.5 c 128,-1,11
 310 732 310 732 368 732 c 0,12,13
 390 732 390 732 413 727 c 1,14,-1
 398 658 l 1,15,16
 384 660 384 660 371 660 c 0,17,18
 339 660 339 660 323 645.5 c 128,-1,19
 307 631 307 631 299 593 c 2,20,-1
 284 524 l 1,21,-1
 370 524 l 1,0,-1
EndSplineSet
Validated: 1
EndChar

StartChar: g
Encoding: 103 103 74
Width: 556
GlyphClass: 2
Flags: MW
LayerCount: 2
Fore
SplineSet
369 539 m 0,0,1
 466 539 466 539 508 446 c 1,2,-1
 525 524 l 1,3,-1
 601 524 l 1,4,-1
 508 85 l 2,5,6
 473 -77 473 -77 406.5 -147.5 c 128,-1,7
 340 -218 340 -218 209 -218 c 0,8,9
 129 -218 129 -218 80.5 -183.5 c 128,-1,10
 32 -149 32 -149 32 -91 c 0,11,12
 32 -81 32 -81 33 -73 c 2,13,-1
 34 -60 l 1,14,-1
 118 -60 l 1,15,-1
 118 -74 l 2,16,17
 118 -108 118 -108 146.5 -127 c 128,-1,18
 175 -146 175 -146 226 -146 c 0,19,20
 306 -146 306 -146 349.5 -102 c 128,-1,21
 393 -58 393 -58 415 44 c 2,22,-1
 419 63 l 1,23,24
 344 -17 344 -17 247 -17 c 0,25,26
 171 -17 171 -17 122.5 34.5 c 128,-1,27
 74 86 74 86 74 168 c 0,28,29
 74 195 74 195 81 235 c 128,-1,30
 88 275 88 275 108.5 330 c 128,-1,31
 129 385 129 385 160 430 c 128,-1,32
 191 475 191 475 245.5 507 c 128,-1,33
 300 539 300 539 369 539 c 0,0,1
363 462 m 128,-1,35
 315 462 315 462 277 438 c 128,-1,36
 239 414 239 414 218.5 380.5 c 128,-1,37
 198 347 198 347 184.5 305.5 c 128,-1,38
 171 264 171 264 166.5 234.5 c 128,-1,39
 162 205 162 205 162 184 c 0,40,41
 162 125 162 125 191.5 90 c 128,-1,42
 221 55 221 55 271 55 c 0,43,44
 316 55 316 55 357 81.5 c 128,-1,45
 398 108 398 108 423 154 c 0,46,47
 469 234 469 234 469 339 c 0,48,49
 469 395 469 395 440 428.5 c 128,-1,34
 411 462 411 462 363 462 c 128,-1,35
EndSplineSet
Validated: 1
EndChar

StartChar: h
Encoding: 104 104 75
Width: 556
GlyphClass: 2
Flags: MW
LayerCount: 2
Fore
SplineSet
225 729 m 1,0,-1
 309 729 l 1,1,-1
 252 459 l 1,2,3
 299 503 299 503 341 521 c 128,-1,4
 383 539 383 539 439 539 c 0,5,6
 502 539 502 539 538 505.5 c 128,-1,7
 574 472 574 472 574 413 c 0,8,9
 574 393 574 393 570 376 c 2,10,-1
 490 0 l 1,11,-1
 406 0 l 1,12,-1
 479 343 l 2,13,14
 485 370 485 370 485 382 c 0,15,16
 485 420 485 420 461.5 443.5 c 128,-1,17
 438 467 438 467 400 467 c 0,18,19
 332 467 332 467 282 419 c 128,-1,20
 232 371 232 371 215 289 c 2,21,-1
 154 0 l 1,22,-1
 70 0 l 1,23,-1
 225 729 l 1,0,-1
EndSplineSet
Validated: 1
EndChar

StartChar: i
Encoding: 105 105 76
Width: 222
GlyphClass: 2
Flags: MW
LayerCount: 2
Fore
SplineSet
261 524 m 1,0,-1
 150 0 l 1,1,-1
 66 0 l 1,2,-1
 177 524 l 1,3,-1
 261 524 l 1,0,-1
305 729 m 1,4,-1
 283 626 l 1,5,-1
 199 626 l 1,6,-1
 221 729 l 1,7,-1
 305 729 l 1,4,-1
EndSplineSet
Validated: 1
EndChar

StartChar: j
Encoding: 106 106 77
Width: 222
GlyphClass: 2
Flags: MW
LayerCount: 2
Fore
SplineSet
180 524 m 1,0,-1
 264 524 l 1,1,-1
 130 -109 l 2,2,3
 116 -171 116 -171 78 -194.5 c 128,-1,4
 40 -218 40 -218 -46 -218 c 0,5,6
 -54 -218 -54 -218 -65 -215 c 1,7,-1
 -50 -144 l 1,8,9
 -32 -146 -32 -146 -25 -146 c 0,10,11
 13 -146 13 -146 28.5 -132 c 128,-1,12
 44 -118 44 -118 53 -76 c 2,13,-1
 180 524 l 1,0,-1
308 729 m 1,14,-1
 286 626 l 1,15,-1
 202 626 l 1,16,-1
 224 729 l 1,17,-1
 308 729 l 1,14,-1
EndSplineSet
Validated: 1
EndChar

StartChar: k
Encoding: 107 107 78
Width: 500
GlyphClass: 2
Flags: MW
LayerCount: 2
Fore
SplineSet
297 729 m 1,0,-1
 207 306 l 1,1,-1
 476 524 l 1,2,-1
 584 524 l 1,3,-1
 362 343 l 1,4,-1
 502 0 l 1,5,-1
 406 0 l 1,6,-1
 292 291 l 1,7,-1
 185 203 l 1,8,-1
 142 0 l 1,9,-1
 58 0 l 1,10,-1
 213 729 l 1,11,-1
 297 729 l 1,0,-1
EndSplineSet
Validated: 1
EndChar

StartChar: l
Encoding: 108 108 79
Width: 222
GlyphClass: 2
Flags: MW
LayerCount: 2
Fore
SplineSet
307 729 m 1,0,-1
 152 0 l 1,1,-1
 68 0 l 1,2,-1
 223 729 l 1,3,-1
 307 729 l 1,0,-1
EndSplineSet
Validated: 1
EndChar

StartChar: m
Encoding: 109 109 80
Width: 833
GlyphClass: 2
Flags: MW
LayerCount: 2
Fore
SplineSet
725 539 m 0,0,1
 793 539 793 539 822.5 503 c 128,-1,2
 852 467 852 467 852 428 c 0,3,4
 852 406 852 406 846 373 c 2,5,-1
 767 0 l 1,6,-1
 683 0 l 1,7,-1
 755 341 l 2,8,9
 764 375 764 375 764 390 c 0,10,11
 764 426 764 426 743.5 446.5 c 128,-1,12
 723 467 723 467 688 467 c 0,13,14
 634 467 634 467 589 427.5 c 128,-1,15
 544 388 544 388 531 329 c 2,16,-1
 461 0 l 1,17,-1
 377 0 l 1,18,-1
 454 361 l 2,19,20
 458 378 458 378 458 398 c 0,21,22
 458 429 458 429 435.5 448 c 128,-1,23
 413 467 413 467 376 467 c 0,24,25
 326 467 326 467 281.5 426.5 c 128,-1,26
 237 386 237 386 225 329 c 2,27,-1
 155 0 l 1,28,-1
 71 0 l 1,29,-1
 182 524 l 1,30,-1
 258 524 l 1,31,-1
 245 459 l 1,32,33
 293 504 293 504 332.5 521.5 c 128,-1,34
 372 539 372 539 423 539 c 0,35,36
 520 539 520 539 544 456 c 1,37,38
 630 539 630 539 725 539 c 0,0,1
EndSplineSet
Validated: 1
EndChar

StartChar: n
Encoding: 110 110 81
Width: 556
GlyphClass: 2
Flags: MW
LayerCount: 2
Fore
SplineSet
181 524 m 1,0,-1
 257 524 l 1,1,-1
 244 459 l 1,2,3
 322 539 322 539 438 539 c 0,4,5
 500 539 500 539 537 505 c 128,-1,6
 574 471 574 471 574 414 c 0,7,8
 574 393 574 393 570 376 c 2,9,-1
 490 0 l 1,10,-1
 406 0 l 1,11,-1
 480 349 l 2,12,13
 486 373 486 373 486 386 c 0,14,15
 486 421 486 421 461 444 c 128,-1,16
 436 467 436 467 399 467 c 0,17,18
 331 467 331 467 281.5 419 c 128,-1,19
 232 371 232 371 215 289 c 2,20,-1
 154 0 l 1,21,-1
 70 0 l 1,22,-1
 181 524 l 1,0,-1
EndSplineSet
Validated: 1
EndChar

StartChar: o
Encoding: 111 111 82
Width: 556
GlyphClass: 2
Flags: MW
AnchorPoint: "Anchor-2" 382 537 basechar 0
AnchorPoint: "Anchor-1" 276 2 basechar 0
LayerCount: 2
Fore
SplineSet
384 539 m 0,0,1
 471 539 471 539 523.5 487 c 128,-1,2
 576 435 576 435 576 352 c 0,3,4
 576 287 576 287 553.5 213.5 c 128,-1,5
 531 140 531 140 497 93 c 0,6,7
 413 -23 413 -23 269 -23 c 0,8,9
 185 -23 185 -23 132.5 29 c 128,-1,10
 80 81 80 81 80 164 c 0,11,12
 80 228 80 228 102 301.5 c 128,-1,13
 124 375 124 375 158 423 c 0,14,15
 196 478 196 478 255 508.5 c 128,-1,16
 314 539 314 539 384 539 c 0,0,1
283 54 m 0,17,18
 332 54 332 54 370.5 77.5 c 128,-1,19
 409 101 409 101 430.5 134.5 c 128,-1,20
 452 168 452 168 465.5 209.5 c 128,-1,21
 479 251 479 251 483.5 281 c 128,-1,22
 488 311 488 311 488 333 c 0,23,24
 488 394 488 394 457 428 c 128,-1,25
 426 462 426 462 371 462 c 0,26,27
 323 462 323 462 284.5 438 c 128,-1,28
 246 414 246 414 225 380.5 c 128,-1,29
 204 347 204 347 190.5 305.5 c 128,-1,30
 177 264 177 264 172.5 234.5 c 128,-1,31
 168 205 168 205 168 184 c 0,32,33
 168 124 168 124 199 89 c 128,-1,34
 230 54 230 54 283 54 c 0,17,18
EndSplineSet
Validated: 1
EndChar

StartChar: p
Encoding: 112 112 83
Width: 556
GlyphClass: 2
Flags: MW
LayerCount: 2
Fore
SplineSet
586 344 m 0,0,1
 586 189 586 189 502.5 83 c 128,-1,2
 419 -23 419 -23 294 -23 c 0,3,4
 241 -23 241 -23 207.5 -2 c 128,-1,5
 174 19 174 19 151 68 c 1,6,-1
 91 -213 l 1,7,-1
 7 -213 l 1,8,-1
 164 524 l 1,9,-1
 245 524 l 1,10,-1
 227 440 l 1,11,12
 248 484 248 484 302 511.5 c 128,-1,13
 356 539 356 539 412 539 c 0,14,15
 492 539 492 539 539 486.5 c 128,-1,16
 586 434 586 434 586 344 c 0,0,1
302 54 m 0,17,18
 359 54 359 54 401 87.5 c 128,-1,19
 443 121 443 121 462 170 c 128,-1,20
 481 219 481 219 489.5 258 c 128,-1,21
 498 297 498 297 498 324 c 0,22,23
 498 389 498 389 466.5 425.5 c 128,-1,24
 435 462 435 462 379 462 c 0,25,26
 335 462 335 462 299 439 c 128,-1,27
 263 416 263 416 242 383 c 128,-1,28
 221 350 221 350 207 310 c 128,-1,29
 193 270 193 270 188 238.5 c 128,-1,30
 183 207 183 207 183 184 c 0,31,32
 183 124 183 124 215 89 c 128,-1,33
 247 54 247 54 302 54 c 0,17,18
EndSplineSet
Validated: 1
EndChar

StartChar: q
Encoding: 113 113 84
Width: 556
GlyphClass: 2
Flags: MW
LayerCount: 2
Fore
SplineSet
425 62 m 1,0,1
 418 52 418 52 401 37.5 c 128,-1,2
 384 23 384 23 365.5 9.5 c 128,-1,3
 347 -4 347 -4 315.5 -13.5 c 128,-1,4
 284 -23 284 -23 248 -23 c 0,5,6
 172 -23 172 -23 121.5 33 c 128,-1,7
 71 89 71 89 71 173 c 0,8,9
 71 250 71 250 101.5 329 c 128,-1,10
 132 408 132 408 182 461 c 0,11,12
 216 497 216 497 265.5 518 c 128,-1,13
 315 539 315 539 366 539 c 0,14,15
 477 539 477 539 513 438 c 1,16,-1
 532 524 l 1,17,-1
 607 524 l 1,18,-1
 450 -213 l 1,19,-1
 366 -213 l 1,20,-1
 425 62 l 1,0,1
364 462 m 0,21,22
 315 462 315 462 276.5 438 c 128,-1,23
 238 414 238 414 217 381 c 128,-1,24
 196 348 196 348 182 307 c 128,-1,25
 168 266 168 266 163.5 236.5 c 128,-1,26
 159 207 159 207 159 186 c 0,27,28
 159 126 159 126 191 90 c 128,-1,29
 223 54 223 54 276 54 c 0,30,31
 367 54 367 54 428 155 c 0,32,33
 474 234 474 234 474 333 c 0,34,35
 474 392 474 392 444 427 c 128,-1,36
 414 462 414 462 364 462 c 0,21,22
EndSplineSet
Validated: 1
EndChar

StartChar: r
Encoding: 114 114 85
Width: 333
GlyphClass: 2
Flags: MW
LayerCount: 2
Fore
SplineSet
180 524 m 1,0,-1
 256 524 l 1,1,-1
 239 442 l 1,2,3
 285 495 285 495 322.5 517 c 128,-1,4
 360 539 360 539 404 539 c 0,5,6
 416 539 416 539 436 536 c 1,7,-1
 418 451 l 1,8,-1
 408 451 l 2,9,10
 249 451 249 451 211 272 c 2,11,-1
 153 0 l 1,12,-1
 69 0 l 1,13,-1
 180 524 l 1,0,-1
EndSplineSet
Validated: 1
EndChar

StartChar: s
Encoding: 115 115 86
Width: 500
GlyphClass: 2
Flags: MW
LayerCount: 2
Fore
SplineSet
123 345 m 0,0,1
 123 426 123 426 187.5 482.5 c 128,-1,2
 252 539 252 539 356 539 c 0,3,4
 429 539 429 539 474.5 506 c 128,-1,5
 520 473 520 473 520 421 c 0,6,7
 520 403 520 403 514 378 c 1,8,-1
 430 378 l 1,9,10
 431 386 431 386 431 400 c 0,11,12
 431 429 431 429 407 445.5 c 128,-1,13
 383 462 383 462 339 462 c 0,14,15
 282 462 282 462 246.5 434.5 c 128,-1,16
 211 407 211 407 211 367 c 0,17,18
 211 328 211 328 296 307 c 2,19,-1
 372 288 l 2,20,21
 438 272 438 272 465.5 245.5 c 128,-1,22
 493 219 493 219 493 173 c 0,23,24
 493 84 493 84 426 30.5 c 128,-1,25
 359 -23 359 -23 247 -23 c 0,26,27
 160 -23 160 -23 110.5 11 c 128,-1,28
 61 45 61 45 61 105 c 0,29,30
 61 128 61 128 67 156 c 1,31,-1
 156 156 l 1,32,33
 154 136 154 136 154 131 c 0,34,35
 154 94 154 94 182 74 c 128,-1,36
 210 54 210 54 262 54 c 0,37,38
 304 54 304 54 334.5 66 c 128,-1,39
 365 78 365 78 379 95 c 128,-1,40
 393 112 393 112 399 126 c 128,-1,41
 405 140 405 140 405 150 c 0,42,43
 405 165 405 165 396.5 177 c 128,-1,44
 388 189 388 189 376.5 194 c 128,-1,45
 365 199 365 199 353.5 203.5 c 128,-1,46
 342 208 342 208 335 209 c 2,47,-1
 261 228 l 2,48,49
 184 248 184 248 153.5 273.5 c 128,-1,50
 123 299 123 299 123 345 c 0,0,1
EndSplineSet
Validated: 1
EndChar

StartChar: t
Encoding: 116 116 87
Width: 278
GlyphClass: 2
Flags: MW
LayerCount: 2
Fore
SplineSet
366 524 m 1,0,-1
 352 457 l 1,1,-1
 263 457 l 1,2,-1
 185 90 l 2,3,4
 183 78 183 78 183 76 c 0,5,6
 183 64 183 64 193 56.5 c 128,-1,7
 203 49 203 49 219 49 c 0,8,9
 232 49 232 49 267 57 c 1,10,-1
 251 -16 l 1,11,12
 226 -23 226 -23 186 -23 c 0,13,14
 145 -23 145 -23 121 -2 c 128,-1,15
 97 19 97 19 97 56 c 0,16,17
 97 72 97 72 100 87 c 2,18,-1
 179 457 l 1,19,-1
 108 457 l 1,20,-1
 122 524 l 1,21,-1
 193 524 l 1,22,-1
 224 668 l 1,23,-1
 308 668 l 1,24,-1
 277 524 l 1,25,-1
 366 524 l 1,0,-1
EndSplineSet
Validated: 1
EndChar

StartChar: u
Encoding: 117 117 88
Width: 556
GlyphClass: 2
Flags: MW
LayerCount: 2
Fore
SplineSet
483 0 m 1,0,-1
 407 0 l 1,1,-1
 419 57 l 1,2,3
 336 -23 336 -23 226 -23 c 0,4,5
 161 -23 161 -23 124.5 6 c 128,-1,6
 88 35 88 35 88 86 c 0,7,8
 88 105 88 105 91 120 c 2,9,-1
 177 524 l 1,10,-1
 261 524 l 1,11,-1
 182 153 l 2,12,13
 179 138 179 138 179 126 c 0,14,15
 179 91 179 91 203 70 c 128,-1,16
 227 49 227 49 268 49 c 0,17,18
 332 49 332 49 381 97.5 c 128,-1,19
 430 146 430 146 447 227 c 2,20,-1
 510 524 l 1,21,-1
 594 524 l 1,22,-1
 483 0 l 1,0,-1
EndSplineSet
Validated: 1
EndChar

StartChar: v
Encoding: 118 118 89
Width: 500
GlyphClass: 2
Flags: MW
LayerCount: 2
Fore
SplineSet
287 0 m 1,0,-1
 196 0 l 1,1,-1
 122 524 l 1,2,-1
 214 524 l 1,3,-1
 263 102 l 1,4,-1
 507 524 l 1,5,-1
 598 524 l 1,6,-1
 287 0 l 1,0,-1
EndSplineSet
Validated: 1
EndChar

StartChar: w
Encoding: 119 119 90
Width: 722
GlyphClass: 2
Flags: MW
LayerCount: 2
Fore
SplineSet
556 0 m 1,0,-1
 461 0 l 1,1,-1
 449 418 l 1,2,-1
 254 0 l 1,3,-1
 158 0 l 1,4,-1
 118 524 l 1,5,-1
 209 524 l 1,6,-1
 228 116 l 1,7,-1
 417 524 l 1,8,-1
 522 524 l 1,9,-1
 533 116 l 1,10,-1
 729 524 l 1,11,-1
 820 524 l 1,12,-1
 556 0 l 1,0,-1
EndSplineSet
Validated: 1
EndChar

StartChar: x
Encoding: 120 120 91
Width: 500
GlyphClass: 2
Flags: MW
LayerCount: 2
Fore
SplineSet
350 267 m 1,0,-1
 473 0 l 1,1,-1
 379 0 l 1,2,-1
 289 200 l 1,3,-1
 115 0 l 1,4,-1
 17 0 l 1,5,-1
 256 267 l 1,6,-1
 138 524 l 1,7,-1
 231 524 l 1,8,-1
 319 332 l 1,9,-1
 486 524 l 1,10,-1
 583 524 l 1,11,-1
 350 267 l 1,0,-1
EndSplineSet
Validated: 1
EndChar

StartChar: y
Encoding: 121 121 92
Width: 500
GlyphClass: 2
Flags: MW
LayerCount: 2
Fore
SplineSet
501 524 m 1,0,-1
 590 524 l 1,1,-1
 222 -110 l 2,2,3
 159 -218 159 -218 57 -218 c 0,4,5
 30 -218 30 -218 8 -208 c 1,6,-1
 24 -133 l 1,7,8
 60 -137 60 -137 68 -137 c 0,9,10
 96 -137 96 -137 112 -126.5 c 128,-1,11
 128 -116 128 -116 148 -85 c 2,12,-1
 200 -4 l 1,13,-1
 132 524 l 1,14,-1
 222 524 l 1,15,-1
 268 117 l 1,16,-1
 501 524 l 1,0,-1
EndSplineSet
Validated: 1
EndChar

StartChar: z
Encoding: 122 122 93
Width: 500
GlyphClass: 2
Flags: MW
LayerCount: 2
Fore
SplineSet
557 524 m 1,0,-1
 539 449 l 1,1,-1
 147 72 l 1,2,-1
 473 72 l 1,3,-1
 458 0 l 1,4,-1
 31 0 l 1,5,-1
 49 74 l 1,6,-1
 444 452 l 1,7,-1
 150 452 l 1,8,-1
 165 524 l 1,9,-1
 557 524 l 1,0,-1
EndSplineSet
Validated: 1
EndChar

StartChar: braceleft
Encoding: 123 123 94
Width: 334
GlyphClass: 2
Flags: MW
LayerCount: 2
Fore
SplineSet
431 729 m 1,0,-1
 417 664 l 1,1,-1
 401 664 l 2,2,3
 364 664 364 664 347.5 650 c 128,-1,4
 331 636 331 636 323 597 c 2,5,-1
 284 416 l 2,6,7
 262 307 262 307 176 259 c 1,8,9
 204 241 204 241 214 220.5 c 128,-1,10
 224 200 224 200 224 162 c 0,11,12
 224 130 224 130 218 101 c 2,13,-1
 179 -80 l 2,14,15
 175 -96 175 -96 175 -113 c 0,16,17
 175 -147 175 -147 229 -147 c 2,18,-1
 245 -147 l 1,19,-1
 231 -213 l 1,20,-1
 184 -213 l 2,21,22
 143 -213 143 -213 120.5 -192 c 128,-1,23
 98 -171 98 -171 98 -134 c 0,24,25
 98 -107 98 -107 104 -80 c 2,26,-1
 139 86 l 2,27,28
 148 126 148 126 148 153 c 0,29,30
 148 215 148 215 91 224 c 1,31,-1
 106 293 l 1,32,33
 149 300 149 300 173.5 332 c 128,-1,34
 198 364 198 364 212 431 c 2,35,-1
 248 597 l 2,36,37
 278 729 278 729 384 729 c 2,38,-1
 431 729 l 1,0,-1
EndSplineSet
Validated: 1
EndChar

StartChar: bar
Encoding: 124 124 95
Width: 260
GlyphClass: 2
Flags: MW
LayerCount: 2
Fore
SplineSet
255 729 m 1,0,-1
 315 729 l 1,1,-1
 114 -212 l 1,2,-1
 54 -212 l 1,3,-1
 255 729 l 1,0,-1
EndSplineSet
Validated: 1
EndChar

StartChar: braceright
Encoding: 125 125 96
Width: 334
GlyphClass: 2
Flags: MW
LayerCount: 2
Fore
SplineSet
-16 -213 m 1,0,-1
 -2 -148 l 1,1,-1
 14 -148 l 2,2,3
 51 -148 51 -148 67.5 -134 c 128,-1,4
 84 -120 84 -120 92 -81 c 2,5,-1
 131 100 l 2,6,7
 144 167 144 167 166.5 200.5 c 128,-1,8
 189 234 189 234 239 257 c 1,9,10
 191 299 191 299 191 362 c 0,11,12
 191 388 191 388 197 416 c 2,13,-1
 236 597 l 2,14,15
 240 613 240 613 240 630 c 0,16,17
 240 664 240 664 186 664 c 2,18,-1
 170 664 l 1,19,-1
 184 729 l 1,20,-1
 231 729 l 2,21,22
 269 729 269 729 293 706.5 c 128,-1,23
 317 684 317 684 317 647 c 0,24,25
 317 626 317 626 311 597 c 2,26,-1
 276 431 l 2,27,28
 267 386 267 386 267 359 c 0,29,30
 267 302 267 302 324 293 c 1,31,-1
 309 223 l 1,32,33
 267 216 267 216 242 182.5 c 128,-1,34
 217 149 217 149 203 85 c 2,35,-1
 167 -81 l 2,36,37
 164 -97 164 -97 161 -108 c 128,-1,38
 158 -119 158 -119 147.5 -141 c 128,-1,39
 137 -163 137 -163 124 -176.5 c 128,-1,40
 111 -190 111 -190 86.5 -201.5 c 128,-1,41
 62 -213 62 -213 31 -213 c 2,42,-1
 -16 -213 l 1,0,-1
EndSplineSet
Validated: 1
EndChar

StartChar: asciitilde
Encoding: 126 126 97
Width: 584
GlyphClass: 2
Flags: MW
LayerCount: 2
Fore
SplineSet
594 411 m 1,0,1
 586 366 586 366 568 335 c 128,-1,2
 550 304 550 304 527.5 291 c 128,-1,3
 505 278 505 278 488.5 273 c 128,-1,4
 472 268 472 268 458 268 c 0,5,6
 420 268 420 268 384 294 c 2,7,-1
 299 357 l 2,8,9
 278 372 278 372 260 372 c 0,10,11
 213 372 213 372 189 293 c 1,12,-1
 137 293 l 1,13,14
 156 363 156 363 191.5 400.5 c 128,-1,15
 227 438 227 438 275 438 c 0,16,17
 302 438 302 438 326 422 c 2,18,-1
 428 353 l 2,19,20
 454 336 454 336 475 336 c 0,21,22
 526 336 526 336 542 411 c 1,23,-1
 594 411 l 1,0,1
EndSplineSet
Validated: 1
EndChar

StartChar: exclamdown
Encoding: 161 161 99
Width: 333
GlyphClass: 2
Flags: MW
LayerCount: 2
Fore
SplineSet
76 -205 m 1,0,-1
 150 145 l 1,1,-1
 217 356 l 1,2,-1
 257 356 l 1,3,-1
 234 145 l 1,4,-1
 160 -205 l 1,5,-1
 76 -205 l 1,0,-1
211 421 m 1,6,-1
 233 524 l 1,7,-1
 317 524 l 1,8,-1
 295 421 l 1,9,-1
 211 421 l 1,6,-1
EndSplineSet
Validated: 1
EndChar

StartChar: cent
Encoding: 162 162 100
Width: 556
GlyphClass: 2
Flags: MW
LayerCount: 2
Fore
SplineSet
423 538 m 1,0,1
 461 538 461 538 491 525.5 c 128,-1,2
 521 513 521 513 538 495.5 c 128,-1,3
 555 478 555 478 566.5 457 c 128,-1,4
 578 436 578 436 581.5 420 c 128,-1,5
 585 404 585 404 585 392 c 0,6,7
 585 391 585 391 584.5 387 c 128,-1,8
 584 383 584 383 583.5 376 c 128,-1,9
 583 369 583 369 583 363 c 2,10,-1
 582 348 l 1,11,-1
 498 348 l 1,12,13
 499 357 499 357 499 371 c 0,14,15
 499 447 499 447 419 461 c 2,16,-1
 407 463 l 1,17,-1
 320 53 l 1,18,19
 373 59 373 59 407.5 89 c 128,-1,20
 442 119 442 119 465 180 c 1,21,-1
 549 180 l 1,22,23
 523 81 523 81 463.5 32 c 128,-1,24
 404 -17 404 -17 304 -23 c 1,25,-1
 283 -120 l 1,26,-1
 243 -120 l 1,27,-1
 264 -22 l 1,28,29
 187 -14 187 -14 141.5 38.5 c 128,-1,30
 96 91 96 91 96 171 c 0,31,32
 96 201 96 201 101 236.5 c 128,-1,33
 106 272 106 272 124 325 c 128,-1,34
 142 378 142 378 171 420.5 c 128,-1,35
 200 463 200 463 255.5 497 c 128,-1,36
 311 531 311 531 383 538 c 1,37,-1
 402 628 l 1,38,-1
 442 628 l 1,39,-1
 423 538 l 1,0,1
281 56 m 1,40,-1
 366 460 l 1,41,42
 313 450 313 450 276 415 c 0,43,44
 235 375 235 375 209.5 311 c 128,-1,45
 184 247 184 247 184 183 c 0,46,47
 184 130 184 130 210 96 c 128,-1,48
 236 62 236 62 281 56 c 1,40,-1
EndSplineSet
Validated: 1
EndChar

StartChar: sterling
Encoding: 163 163 101
Width: 556
GlyphClass: 2
Flags: MW
LayerCount: 2
Fore
SplineSet
256 492 m 0,0,1
 256 477 256 477 257.5 467 c 128,-1,2
 259 457 259 457 261.5 449.5 c 128,-1,3
 264 442 264 442 271.5 421 c 128,-1,4
 279 400 279 400 287 376 c 1,5,-1
 447 376 l 1,6,-1
 435 321 l 1,7,-1
 298 321 l 1,8,-1
 299 310 l 2,9,10
 301 284 301 284 301 283 c 0,11,12
 301 253 301 253 291 225.5 c 128,-1,13
 281 198 281 198 264.5 176.5 c 128,-1,14
 248 155 248 155 226.5 134 c 128,-1,15
 205 113 205 113 182 96 c 128,-1,16
 159 79 159 79 136 61 c 1,17,18
 214 100 214 100 269 100 c 0,19,20
 296 100 296 100 342 85 c 128,-1,21
 388 70 388 70 424 70 c 0,22,23
 464 70 464 70 518 101 c 1,24,-1
 543 31 l 1,25,26
 477 -23 477 -23 401 -23 c 0,27,28
 358 -23 358 -23 295.5 0 c 128,-1,29
 233 23 233 23 199 23 c 0,30,31
 146 23 146 23 81 -14 c 1,32,-1
 44 52 l 1,33,34
 218 167 218 167 218 271 c 0,35,36
 218 289 218 289 208 321 c 1,37,-1
 95 321 l 1,38,-1
 107 376 l 1,39,-1
 190 376 l 1,40,41
 188 383 188 383 179 403 c 128,-1,42
 170 423 170 423 165 441 c 128,-1,43
 160 459 160 459 160 480 c 0,44,45
 160 577 160 577 246 653 c 128,-1,46
 332 729 332 729 442 729 c 0,47,48
 525 729 525 729 576.5 687.5 c 128,-1,49
 628 646 628 646 628 579 c 0,50,51
 628 551 628 551 619 497 c 1,52,-1
 531 497 l 1,53,54
 540 530 540 530 540 554 c 0,55,56
 540 599 540 599 508.5 625.5 c 128,-1,57
 477 652 477 652 424 652 c 0,58,59
 353 652 353 652 304.5 606 c 128,-1,60
 256 560 256 560 256 492 c 0,0,1
EndSplineSet
Validated: 1
EndChar

StartChar: currency
Encoding: 164 164 102
Width: 556
GlyphClass: 2
Flags: MW
LayerCount: 2
Fore
SplineSet
156 305 m 0,0,1
 156 342 156 342 168 371 c 128,-1,2
 180 400 180 400 196 420.5 c 128,-1,3
 212 441 212 441 214 445 c 1,4,-1
 172 500 l 1,5,-1
 238 556 l 1,6,-1
 283 498 l 1,7,8
 329 525 329 525 385 525 c 0,9,10
 446 525 446 525 478 496 c 1,11,-1
 546 552 l 1,12,-1
 593 494 l 1,13,-1
 524 438 l 1,14,15
 537 415 537 415 537 381 c 0,16,17
 537 346 537 346 521.5 306.5 c 128,-1,18
 506 267 506 267 483 245 c 1,19,-1
 526 191 l 1,20,-1
 456 137 l 1,21,-1
 414 190 l 1,22,23
 370 160 370 160 309 160 c 0,24,25
 249 160 249 160 219 185 c 1,26,-1
 154 133 l 1,27,-1
 110 191 l 1,28,-1
 170 240 l 1,29,30
 156 266 156 266 156 305 c 0,0,1
369 448 m 0,31,32
 317 448 317 448 276 410 c 128,-1,33
 235 372 235 372 235 323 c 0,34,35
 235 286 235 286 261 261.5 c 128,-1,36
 287 237 287 237 325 237 c 0,37,38
 377 237 377 237 417.5 276 c 128,-1,39
 458 315 458 315 458 364 c 0,40,41
 458 399 458 399 432 423.5 c 128,-1,42
 406 448 406 448 369 448 c 0,31,32
EndSplineSet
Validated: 1
EndChar

StartChar: yen
Encoding: 165 165 103
Width: 556
GlyphClass: 2
Flags: MW
LayerCount: 2
Fore
SplineSet
573 354 m 1,0,-1
 562 303 l 1,1,-1
 390 303 l 1,2,-1
 373 226 l 1,3,-1
 545 226 l 1,4,-1
 535 175 l 1,5,-1
 362 175 l 1,6,-1
 325 0 l 1,7,-1
 237 0 l 1,8,-1
 274 175 l 1,9,-1
 100 175 l 1,10,-1
 111 226 l 1,11,-1
 285 226 l 1,12,-1
 302 303 l 1,13,-1
 127 303 l 1,14,-1
 138 354 l 1,15,-1
 292 354 l 1,16,-1
 162 709 l 1,17,-1
 247 709 l 1,18,-1
 363 387 l 1,19,-1
 611 709 l 1,20,-1
 696 709 l 1,21,-1
 419 354 l 1,22,-1
 573 354 l 1,0,-1
EndSplineSet
Validated: 1
EndChar

StartChar: brokenbar
Encoding: 166 166 104
Width: 260
GlyphClass: 2
Flags: MW
LayerCount: 2
Fore
SplineSet
255 729 m 1,0,-1
 315 729 l 1,1,-1
 229 328 l 1,2,-1
 169 328 l 1,3,-1
 255 729 l 1,0,-1
140 189 m 1,4,-1
 200 189 l 1,5,-1
 114 -212 l 1,6,-1
 54 -212 l 1,7,-1
 140 189 l 1,4,-1
EndSplineSet
Validated: 1
EndChar

StartChar: section
Encoding: 167 167 105
Width: 556
GlyphClass: 2
Flags: MW
LayerCount: 2
Fore
SplineSet
104 274 m 0,0,1
 104 299 104 299 110 321.5 c 128,-1,2
 116 344 116 344 126 360.5 c 128,-1,3
 136 377 136 377 149 392.5 c 128,-1,4
 162 408 162 408 175.5 418.5 c 128,-1,5
 189 429 189 429 202.5 438.5 c 128,-1,6
 216 448 216 448 227.5 453 c 128,-1,7
 239 458 239 458 247 463 c 1,8,9
 221 496 221 496 221 540 c 0,10,11
 221 614 221 614 286.5 671.5 c 128,-1,12
 352 729 352 729 436 729 c 0,13,14
 503 729 503 729 546 691 c 128,-1,15
 589 653 589 653 589 594 c 0,16,17
 589 572 589 572 577 533 c 0,18,19
 577 532 577 532 576 530 c 1,20,21
 576 526 576 526 575 524 c 1,22,-1
 491 524 l 1,23,24
 501 553 501 553 501 575 c 0,25,26
 501 610 501 610 478.5 631 c 128,-1,27
 456 652 456 652 418 652 c 0,28,29
 376 652 376 652 344.5 622 c 128,-1,30
 313 592 313 592 313 553 c 0,31,32
 313 536 313 536 321.5 523.5 c 128,-1,33
 330 511 330 511 355 491 c 2,34,-1
 482 390 l 2,35,36
 490 385 490 385 503 373.5 c 128,-1,37
 516 362 516 362 528.5 349 c 128,-1,38
 541 336 541 336 550 314 c 128,-1,39
 559 292 559 292 559 267 c 0,40,41
 559 249 559 249 553.5 226 c 128,-1,42
 548 203 548 203 534.5 172 c 128,-1,43
 521 141 521 141 489 113.5 c 128,-1,44
 457 86 457 86 412 71 c 1,45,46
 442 30 442 30 442 -16 c 0,47,48
 442 -79 442 -79 387 -142 c 0,49,50
 322 -213 322 -213 225 -213 c 0,51,52
 152 -213 152 -213 107.5 -175 c 128,-1,53
 63 -137 63 -137 63 -75 c 0,54,55
 63 -51 63 -51 74 -14 c 1,56,-1
 159 -14 l 1,57,58
 151 -42 151 -42 151 -59 c 0,59,60
 151 -93 151 -93 175.5 -114.5 c 128,-1,61
 200 -136 200 -136 238 -136 c 0,62,63
 284 -136 284 -136 317 -105.5 c 128,-1,64
 350 -75 350 -75 350 -34 c 0,65,66
 350 5 350 5 312 38 c 2,67,-1
 167 162 l 2,68,69
 104 215 104 215 104 274 c 0,0,1
236 229 m 2,70,-1
 374 108 l 1,71,72
 471 158 471 158 471 231 c 0,73,74
 471 279 471 279 418 322 c 2,75,-1
 287 428 l 1,76,77
 234 398 234 398 213 371.5 c 128,-1,78
 192 345 192 345 192 309 c 0,79,80
 192 285 192 285 201.5 268 c 128,-1,81
 211 251 211 251 236 229 c 2,70,-1
EndSplineSet
Validated: 1
EndChar

StartChar: dieresis
Encoding: 168 168 106
Width: 333
GlyphClass: 2
Flags: MW
LayerCount: 2
Fore
SplineSet
285 715 m 1,0,-1
 263 612 l 1,1,-1
 159 612 l 1,2,-1
 181 715 l 1,3,-1
 285 715 l 1,0,-1
446 715 m 1,4,-1
 424 612 l 1,5,-1
 320 612 l 1,6,-1
 342 715 l 1,7,-1
 446 715 l 1,4,-1
EndSplineSet
Validated: 1
EndChar

StartChar: copyright
Encoding: 169 169 107
Width: 737
GlyphClass: 2
Flags: MW
LayerCount: 2
Fore
SplineSet
618 312 m 1,0,1
 545 126 545 126 400 126 c 0,2,3
 330 126 330 126 289.5 170.5 c 128,-1,4
 249 215 249 215 249 292 c 0,5,6
 249 413 249 413 326 506 c 0,7,8
 400 592 400 592 503 592 c 0,9,10
 570 592 570 592 602.5 554.5 c 128,-1,11
 635 517 635 517 637 437 c 1,12,-1
 566 437 l 1,13,14
 564 486 564 486 545.5 508 c 128,-1,15
 527 530 527 530 488 530 c 0,16,17
 441 530 441 530 406 502.5 c 128,-1,18
 371 475 371 475 354 435 c 128,-1,19
 337 395 337 395 329 360.5 c 128,-1,20
 321 326 321 326 321 301 c 0,21,22
 321 251 321 251 347 219.5 c 128,-1,23
 373 188 373 188 416 188 c 0,24,25
 501 188 501 188 547 312 c 1,26,-1
 618 312 l 1,0,1
530 742 m 0,27,28
 663 742 663 742 749.5 656.5 c 128,-1,29
 836 571 836 571 836 440 c 0,30,31
 836 322 836 322 769 215 c 128,-1,32
 702 108 702 108 592 43 c 128,-1,33
 482 -22 482 -22 361 -22 c 0,34,35
 228 -22 228 -22 141.5 64 c 128,-1,36
 55 150 55 150 55 281 c 0,37,38
 55 398 55 398 122 505 c 128,-1,39
 189 612 189 612 299 677 c 128,-1,40
 409 742 409 742 530 742 c 0,27,28
516 680 m 0,41,42
 417 680 417 680 326 625.5 c 128,-1,43
 235 571 235 571 180 481 c 128,-1,44
 125 391 125 391 125 293 c 0,45,46
 125 184 125 184 196 112 c 128,-1,47
 267 40 267 40 375 40 c 0,48,49
 474 40 474 40 565 94.5 c 128,-1,50
 656 149 656 149 711 239.5 c 128,-1,51
 766 330 766 330 766 428 c 0,52,53
 766 537 766 537 695 608.5 c 128,-1,54
 624 680 624 680 516 680 c 0,41,42
EndSplineSet
Validated: 1
EndChar

StartChar: ordfeminine
Encoding: 170 170 108
Width: 370
GlyphClass: 2
Flags: MW
LayerCount: 2
Fore
SplineSet
406 354 m 1,0,-1
 395 303 l 1,1,-1
 107 303 l 1,2,-1
 118 354 l 1,3,-1
 406 354 l 1,0,-1
184 634 m 1,4,5
 189 653 189 653 192.5 663 c 128,-1,6
 196 673 196 673 207 690.5 c 128,-1,7
 218 708 218 708 232.5 717.5 c 128,-1,8
 247 727 247 727 274 734.5 c 128,-1,9
 301 742 301 742 337 742 c 0,10,11
 385 742 385 742 413 724.5 c 128,-1,12
 441 707 441 707 441 676 c 0,13,14
 441 661 441 661 440 658 c 2,15,-1
 399 468 l 2,16,17
 398 465 398 465 398 461 c 0,18,19
 398 456 398 456 403 451.5 c 128,-1,20
 408 447 408 447 415 447 c 2,21,-1
 432 449 l 1,22,-1
 423 405 l 1,23,-1
 413 403 l 2,24,25
 396 399 396 399 387 399 c 0,26,27
 345 399 345 399 340 442 c 1,28,29
 294 399 294 399 231 399 c 0,30,31
 185 399 185 399 160.5 420 c 128,-1,32
 136 441 136 441 136 479 c 0,33,34
 136 498 136 498 140 513.5 c 128,-1,35
 144 529 144 529 154.5 540.5 c 128,-1,36
 165 552 165 552 173.5 560.5 c 128,-1,37
 182 569 182 569 200 575.5 c 128,-1,38
 218 582 218 582 228 585.5 c 128,-1,39
 238 589 238 589 260 592.5 c 128,-1,40
 282 596 282 596 290 597 c 128,-1,41
 298 598 298 598 320 600 c 0,42,43
 354 603 354 603 368 613.5 c 128,-1,44
 382 624 382 624 382 656 c 0,45,46
 382 691 382 691 320 691 c 128,-1,47
 258 691 258 691 240 634 c 1,48,-1
 184 634 l 1,4,5
363 566 m 1,49,50
 348 561 348 561 299 554 c 128,-1,51
 250 547 250 547 223 532.5 c 128,-1,52
 196 518 196 518 196 486 c 0,53,54
 196 449 196 449 249 449 c 0,55,56
 283 449 283 449 315.5 470 c 128,-1,57
 348 491 348 491 353 515 c 2,58,-1
 363 566 l 1,49,50
EndSplineSet
Validated: 1
EndChar

StartChar: guillemotleft
Encoding: 171 171 109
Width: 556
GlyphClass: 2
Flags: MW
LayerCount: 2
Fore
SplineSet
147 227 m 1,0,-1
 166 316 l 1,1,-1
 343 438 l 1,2,-1
 325 355 l 1,3,-1
 204 271 l 1,4,-1
 290 188 l 1,5,-1
 272 106 l 1,6,-1
 147 227 l 1,0,-1
352 227 m 1,7,-1
 371 316 l 1,8,-1
 548 438 l 1,9,-1
 530 355 l 1,10,-1
 409 271 l 1,11,-1
 495 188 l 1,12,-1
 477 106 l 1,13,-1
 352 227 l 1,7,-1
EndSplineSet
Validated: 1
EndChar

StartChar: logicalnot
Encoding: 172 172 110
Width: 584
GlyphClass: 2
Flags: MW
LayerCount: 2
Fore
SplineSet
114 377 m 1,0,-1
 619 377 l 1,1,-1
 558 86 l 1,2,-1
 488 86 l 1,3,-1
 534 305 l 1,4,-1
 99 305 l 1,5,-1
 114 377 l 1,0,-1
EndSplineSet
Validated: 1
EndChar

StartChar: registered
Encoding: 174 174 112
Width: 737
GlyphClass: 2
Flags: MW
LayerCount: 2
Fore
SplineSet
510 168 m 0,0,1
 510 192 510 192 519.5 232.5 c 128,-1,2
 529 273 529 273 529 285 c 0,3,4
 529 325 529 325 475 325 c 2,5,-1
 341 325 l 1,6,-1
 302 140 l 1,7,-1
 232 140 l 1,8,-1
 326 585 l 1,9,-1
 532 585 l 2,10,11
 651 585 651 585 651 496 c 0,12,13
 651 463 651 463 642.5 438 c 128,-1,14
 634 413 634 413 616 395.5 c 128,-1,15
 598 378 598 378 592.5 374 c 128,-1,16
 587 370 587 370 571 360 c 1,17,18
 588 346 588 346 594 335 c 128,-1,19
 600 324 600 324 600 304 c 0,20,21
 600 292 600 292 592.5 249.5 c 128,-1,22
 585 207 585 207 585 194 c 0,23,24
 585 176 585 176 597 165 c 1,25,-1
 592 140 l 1,26,-1
 514 140 l 1,27,28
 510 156 510 156 510 168 c 0,0,1
484 388 m 2,29,30
 536 388 536 388 555.5 415 c 128,-1,31
 575 442 575 442 575 476 c 0,32,33
 575 501 575 501 560 511.5 c 128,-1,34
 545 522 545 522 512 522 c 2,35,-1
 383 522 l 1,36,-1
 355 388 l 1,37,-1
 484 388 l 2,29,30
530 742 m 0,38,39
 663 742 663 742 749.5 656.5 c 128,-1,40
 836 571 836 571 836 440 c 0,41,42
 836 322 836 322 769 215 c 128,-1,43
 702 108 702 108 592 43 c 128,-1,44
 482 -22 482 -22 361 -22 c 0,45,46
 228 -22 228 -22 141.5 64 c 128,-1,47
 55 150 55 150 55 281 c 0,48,49
 55 398 55 398 122 505 c 128,-1,50
 189 612 189 612 299 677 c 128,-1,51
 409 742 409 742 530 742 c 0,38,39
516 680 m 0,52,53
 417 680 417 680 326 625.5 c 128,-1,54
 235 571 235 571 180 481 c 128,-1,55
 125 391 125 391 125 293 c 0,56,57
 125 184 125 184 196 112 c 128,-1,58
 267 40 267 40 375 40 c 0,59,60
 474 40 474 40 565 94.5 c 128,-1,61
 656 149 656 149 711 239.5 c 128,-1,62
 766 330 766 330 766 428 c 0,63,64
 766 537 766 537 695 608.5 c 128,-1,65
 624 680 624 680 516 680 c 0,52,53
EndSplineSet
Validated: 1
EndChar

StartChar: macron
Encoding: 175 175 113
Width: 333
GlyphClass: 2
Flags: MW
LayerCount: 2
Fore
SplineSet
450 696 m 1,0,-1
 435 627 l 1,1,-1
 160 627 l 1,2,-1
 175 696 l 1,3,-1
 450 696 l 1,0,-1
EndSplineSet
Validated: 1
EndChar

StartChar: degree
Encoding: 176 176 114
Width: 606
GlyphClass: 2
Flags: MW
LayerCount: 2
Fore
SplineSet
442 686 m 0,0,1
 505 686 505 686 549.5 641.5 c 128,-1,2
 594 597 594 597 594 535 c 0,3,4
 594 471 594 471 549.5 427 c 128,-1,5
 505 383 505 383 441 383 c 0,6,7
 380 383 380 383 335.5 428 c 128,-1,8
 291 473 291 473 291 535 c 128,-1,9
 291 597 291 597 335.5 641.5 c 128,-1,10
 380 686 380 686 442 686 c 0,0,1
443 643 m 0,11,12
 399 643 399 643 367.5 611 c 128,-1,13
 336 579 336 579 336 535 c 128,-1,14
 336 491 336 491 367 458.5 c 128,-1,15
 398 426 398 426 441 426 c 0,16,17
 486 426 486 426 517.5 457.5 c 128,-1,18
 549 489 549 489 549 535 c 0,19,20
 549 579 549 579 517.5 611 c 128,-1,21
 486 643 486 643 443 643 c 0,11,12
EndSplineSet
Validated: 1
EndChar

StartChar: plusminus
Encoding: 177 177 115
Width: 584
GlyphClass: 2
Flags: MW
LayerCount: 2
Fore
SplineSet
625 429 m 1,0,-1
 610 357 l 1,1,-1
 403 357 l 1,2,-1
 359 149 l 1,3,-1
 288 149 l 1,4,-1
 333 357 l 1,5,-1
 126 357 l 1,6,-1
 141 429 l 1,7,-1
 348 429 l 1,8,-1
 391 633 l 1,9,-1
 462 633 l 1,10,-1
 418 429 l 1,11,-1
 625 429 l 1,0,-1
549 72 m 1,12,-1
 534 0 l 1,13,-1
 50 0 l 1,14,-1
 65 72 l 1,15,-1
 549 72 l 1,12,-1
EndSplineSet
Validated: 1
EndChar

StartChar: twosuperior
Encoding: 178 178 116
Width: 352
GlyphClass: 2
Flags: MW
LayerCount: 2
Fore
SplineSet
396 344 m 1,0,-1
 384 284 l 1,1,-1
 84 284 l 1,2,3
 105 360 105 360 136 395 c 128,-1,4
 167 430 167 430 249 472 c 2,5,-1
 312 503 l 2,6,7
 387 538 387 538 387 594 c 0,8,9
 387 621 387 621 368.5 637.5 c 128,-1,10
 350 654 350 654 319 654 c 0,11,12
 277 654 277 654 252 630.5 c 128,-1,13
 227 607 227 607 214 555 c 1,14,-1
 151 555 l 1,15,16
 169 635 169 635 212 672 c 128,-1,17
 255 709 255 709 329 709 c 0,18,19
 385 709 385 709 418.5 680.5 c 128,-1,20
 452 652 452 652 452 603 c 0,21,22
 452 513 452 513 328 452 c 2,23,-1
 260 419 l 2,24,25
 189 384 189 384 165 344 c 1,26,-1
 396 344 l 1,0,-1
EndSplineSet
Validated: 1
EndChar

StartChar: threesuperior
Encoding: 179 179 117
Width: 352
GlyphClass: 2
Flags: MW
LayerCount: 2
Fore
SplineSet
157 565 m 1,0,1
 162 584 162 584 165 594 c 128,-1,2
 168 604 168 604 181.5 629.5 c 128,-1,3
 195 655 195 655 211 669.5 c 128,-1,4
 227 684 227 684 258 696.5 c 128,-1,5
 289 709 289 709 327 709 c 0,6,7
 380 709 380 709 412 684 c 128,-1,8
 444 659 444 659 444 618 c 0,9,10
 444 580 444 580 428 553.5 c 128,-1,11
 412 527 412 527 375 504 c 1,12,13
 419 483 419 483 419 434 c 0,14,15
 419 364 419 364 366.5 317 c 128,-1,16
 314 270 314 270 236 270 c 0,17,18
 176 270 176 270 144 296.5 c 128,-1,19
 112 323 112 323 112 373 c 0,20,21
 112 381 112 381 115 414 c 1,22,-1
 179 414 l 1,23,-1
 178 402 l 2,24,25
 177 393 177 393 177 381 c 0,26,27
 177 356 177 356 195.5 340.5 c 128,-1,28
 214 325 214 325 245 325 c 0,29,30
 294 325 294 325 324 352.5 c 128,-1,31
 354 380 354 380 354 425 c 0,32,33
 354 475 354 475 276 475 c 0,34,35
 261 475 261 475 245 474 c 1,36,-1
 256 527 l 1,37,-1
 272 527 l 2,38,39
 379 527 379 527 379 606 c 0,40,41
 379 628 379 628 362.5 641 c 128,-1,42
 346 654 346 654 317 654 c 0,43,44
 289 654 289 654 269 644 c 128,-1,45
 249 634 249 634 239 614.5 c 128,-1,46
 229 595 229 595 226 588 c 128,-1,47
 223 581 223 581 220 565 c 1,48,-1
 157 565 l 1,0,1
EndSplineSet
Validated: 1
EndChar

StartChar: acute
Encoding: 180 180 118
Width: 333
GlyphClass: 2
Flags: MW
LayerCount: 2
Fore
SplineSet
346 740 m 1,0,-1
 458 740 l 1,1,-1
 278 592 l 1,2,-1
 218 592 l 1,3,-1
 346 740 l 1,0,-1
EndSplineSet
Validated: 1
EndChar

StartChar: micro
Encoding: 181 181 119
Width: 556
GlyphClass: 2
Flags: MW
LayerCount: 2
Fore
SplineSet
554 49 m 1,0,-1
 540 -14 l 1,1,2
 538 -14 538 -14 519 -18.5 c 128,-1,3
 500 -23 500 -23 486 -23 c 0,4,5
 446 -23 446 -23 428.5 -8.5 c 128,-1,6
 411 6 411 6 411 41 c 0,7,8
 411 48 411 48 414 60 c 1,9,10
 334 -23 334 -23 231 -23 c 0,11,12
 179 -23 179 -23 150 6 c 1,13,-1
 102 -220 l 1,14,-1
 18 -220 l 1,15,-1
 176 524 l 1,16,-1
 260 524 l 1,17,-1
 183 160 l 2,18,19
 180 145 180 145 180 130 c 0,20,21
 180 93 180 93 203 71.5 c 128,-1,22
 226 50 226 50 266 50 c 0,23,24
 330 50 330 50 379.5 98.5 c 128,-1,25
 429 147 429 147 446 227 c 2,26,-1
 509 524 l 1,27,-1
 593 524 l 1,28,-1
 500 88 l 2,29,30
 499 85 499 85 499 77 c 0,31,32
 499 46 499 46 537 46 c 0,33,34
 542 46 542 46 554 49 c 1,0,-1
EndSplineSet
Validated: 1
EndChar

StartChar: paragraph
Encoding: 182 182 120
Width: 537
GlyphClass: 2
Flags: MW
LayerCount: 2
Fore
SplineSet
677 729 m 1,0,-1
 663 665 l 1,1,-1
 607 665 l 1,2,-1
 428 -178 l 1,3,-1
 364 -178 l 1,4,-1
 543 665 l 1,5,-1
 460 665 l 1,6,-1
 281 -178 l 1,7,-1
 217 -178 l 1,8,-1
 310 259 l 1,9,10
 233 261 233 261 189 308.5 c 128,-1,11
 145 356 145 356 145 436 c 0,12,13
 145 550 145 550 231 639.5 c 128,-1,14
 317 729 317 729 427 729 c 2,15,-1
 677 729 l 1,0,-1
EndSplineSet
Validated: 1
EndChar

StartChar: periodcentered
Encoding: 183 183 121
Width: 278
GlyphClass: 2
Flags: MW
LayerCount: 2
Fore
SplineSet
293 295 m 1,0,-1
 271 192 l 1,1,-1
 166 192 l 1,2,-1
 188 295 l 1,3,-1
 293 295 l 1,0,-1
EndSplineSet
Validated: 1
EndChar

StartChar: cedilla
Encoding: 184 184 122
Width: 333
GlyphClass: 2
Flags: MW
LayerCount: 2
Fore
SplineSet
155 -94 m 0,0,1
 153 -94 153 -94 140 -96 c 2,2,-1
 128 -98 l 1,3,-1
 115 -92 l 1,4,-1
 165 0 l 1,5,-1
 206 0 l 1,6,-1
 176 -56 l 1,7,8
 189 -54 189 -54 197 -54 c 0,9,10
 225 -54 225 -54 244.5 -69 c 128,-1,11
 264 -84 264 -84 264 -105 c 0,12,13
 264 -152 264 -152 223 -183 c 128,-1,14
 182 -214 182 -214 119 -214 c 0,15,16
 68 -214 68 -214 1 -180 c 1,17,-1
 29 -142 l 1,18,19
 86 -171 86 -171 123 -171 c 0,20,21
 151 -171 151 -171 168.5 -155.5 c 128,-1,22
 186 -140 186 -140 186 -116 c 0,23,24
 186 -107 186 -107 177 -100.5 c 128,-1,25
 168 -94 168 -94 155 -94 c 0,0,1
EndSplineSet
Validated: 1
EndChar

StartChar: onesuperior
Encoding: 185 185 123
Width: 250
GlyphClass: 2
Flags: MW
LayerCount: 2
Fore
SplineSet
261 580 m 1,0,-1
 164 580 l 1,1,-1
 174 626 l 1,2,3
 242 635 242 635 262.5 647.5 c 128,-1,4
 283 660 283 660 308 709 c 1,5,-1
 352 709 l 1,6,-1
 262 284 l 1,7,-1
 198 284 l 1,8,-1
 261 580 l 1,0,-1
EndSplineSet
Validated: 1
EndChar

StartChar: ordmasculine
Encoding: 186 186 124
Width: 365
GlyphClass: 2
Flags: MW
LayerCount: 2
Fore
SplineSet
388 354 m 1,0,-1
 377 303 l 1,1,-1
 114 303 l 1,2,-1
 125 354 l 1,3,-1
 388 354 l 1,0,-1
149 509 m 0,4,5
 149 608 149 608 201 675 c 128,-1,6
 253 742 253 742 336 742 c 0,7,8
 399 742 399 742 425.5 706 c 128,-1,9
 452 670 452 670 452 627 c 0,10,11
 452 534 452 534 399.5 466.5 c 128,-1,12
 347 399 347 399 262 399 c 0,13,14
 212 399 212 399 180.5 429.5 c 128,-1,15
 149 460 149 460 149 509 c 0,4,5
327 690 m 0,16,17
 277 690 277 690 243 642.5 c 128,-1,18
 209 595 209 595 209 525 c 0,19,20
 209 490 209 490 226.5 470.5 c 128,-1,21
 244 451 244 451 276 451 c 0,22,23
 325 451 325 451 358.5 499 c 128,-1,24
 392 547 392 547 392 617 c 0,25,26
 392 651 392 651 374.5 670.5 c 128,-1,27
 357 690 357 690 327 690 c 0,16,17
EndSplineSet
Validated: 1
EndChar

StartChar: guillemotright
Encoding: 187 187 125
Width: 556
GlyphClass: 2
Flags: MW
LayerCount: 2
Fore
SplineSet
319 317 m 1,0,-1
 300 228 l 1,1,-1
 121 106 l 1,2,-1
 139 189 l 1,3,-1
 262 273 l 1,4,-1
 174 356 l 1,5,-1
 192 438 l 1,6,-1
 319 317 l 1,0,-1
518 317 m 1,7,-1
 499 228 l 1,8,-1
 320 106 l 1,9,-1
 338 189 l 1,10,-1
 461 273 l 1,11,-1
 373 356 l 1,12,-1
 391 438 l 1,13,-1
 518 317 l 1,7,-1
EndSplineSet
Validated: 1
EndChar

StartChar: onequarter
Encoding: 188 188 126
Width: 947
GlyphClass: 2
Flags: MW
LayerCount: 2
Fore
SplineSet
302 580 m 1,0,-1
 205 580 l 1,1,-1
 215 626 l 1,2,3
 283 635 283 635 303.5 647.5 c 128,-1,4
 324 660 324 660 349 709 c 1,5,-1
 393 709 l 1,6,-1
 303 284 l 1,7,-1
 239 284 l 1,8,-1
 302 580 l 1,0,-1
818 709 m 1,9,-1
 876 709 l 1,10,-1
 270 -20 l 1,11,-1
 212 -20 l 1,12,-1
 818 709 l 1,9,-1
798 100 m 1,13,-1
 614 100 l 1,14,-1
 627 160 l 1,15,-1
 883 425 l 1,16,-1
 930 425 l 1,17,-1
 873 155 l 1,18,-1
 938 155 l 1,19,-1
 926 100 l 1,20,-1
 861 100 l 1,21,-1
 840 0 l 1,22,-1
 777 0 l 1,23,-1
 798 100 l 1,13,-1
810 155 m 1,24,-1
 844 316 l 1,25,-1
 688 155 l 1,26,-1
 810 155 l 1,24,-1
EndSplineSet
Validated: 1
EndChar

StartChar: onehalf
Encoding: 189 189 127
Width: 947
GlyphClass: 2
Flags: MW
LayerCount: 2
Fore
SplineSet
302 580 m 1,0,-1
 205 580 l 1,1,-1
 215 626 l 1,2,3
 283 635 283 635 303.5 647.5 c 128,-1,4
 324 660 324 660 349 709 c 1,5,-1
 393 709 l 1,6,-1
 303 284 l 1,7,-1
 239 284 l 1,8,-1
 302 580 l 1,0,-1
808 709 m 1,9,-1
 866 709 l 1,10,-1
 260 -20 l 1,11,-1
 202 -20 l 1,12,-1
 808 709 l 1,9,-1
909 60 m 1,13,-1
 897 0 l 1,14,-1
 597 0 l 1,15,16
 618 76 618 76 649 111 c 128,-1,17
 680 146 680 146 762 188 c 2,18,-1
 825 219 l 2,19,20
 900 254 900 254 900 310 c 0,21,22
 900 337 900 337 881.5 353.5 c 128,-1,23
 863 370 863 370 832 370 c 0,24,25
 790 370 790 370 765 346.5 c 128,-1,26
 740 323 740 323 727 271 c 1,27,-1
 664 271 l 1,28,29
 682 351 682 351 725 388 c 128,-1,30
 768 425 768 425 842 425 c 0,31,32
 898 425 898 425 931.5 396.5 c 128,-1,33
 965 368 965 368 965 319 c 0,34,35
 965 229 965 229 841 168 c 2,36,-1
 773 135 l 2,37,38
 702 100 702 100 678 60 c 1,39,-1
 909 60 l 1,13,-1
EndSplineSet
Validated: 1
EndChar

StartChar: threequarters
Encoding: 190 190 128
Width: 947
GlyphClass: 2
Flags: MW
LayerCount: 2
Fore
SplineSet
168 565 m 1,0,1
 173 584 173 584 176 594 c 128,-1,2
 179 604 179 604 192.5 629.5 c 128,-1,3
 206 655 206 655 222 669.5 c 128,-1,4
 238 684 238 684 269 696.5 c 128,-1,5
 300 709 300 709 338 709 c 0,6,7
 391 709 391 709 423 684 c 128,-1,8
 455 659 455 659 455 618 c 0,9,10
 455 580 455 580 439 553.5 c 128,-1,11
 423 527 423 527 386 504 c 1,12,13
 430 483 430 483 430 434 c 0,14,15
 430 364 430 364 377.5 317 c 128,-1,16
 325 270 325 270 247 270 c 0,17,18
 187 270 187 270 155 296.5 c 128,-1,19
 123 323 123 323 123 373 c 0,20,21
 123 381 123 381 126 414 c 1,22,-1
 190 414 l 1,23,-1
 189 402 l 2,24,25
 188 393 188 393 188 381 c 0,26,27
 188 356 188 356 206.5 340.5 c 128,-1,28
 225 325 225 325 256 325 c 0,29,30
 305 325 305 325 335 352.5 c 128,-1,31
 365 380 365 380 365 425 c 0,32,33
 365 475 365 475 287 475 c 0,34,35
 272 475 272 475 256 474 c 1,36,-1
 267 527 l 1,37,-1
 283 527 l 2,38,39
 390 527 390 527 390 606 c 0,40,41
 390 628 390 628 373.5 641 c 128,-1,42
 357 654 357 654 328 654 c 0,43,44
 300 654 300 654 280 644 c 128,-1,45
 260 634 260 634 250 614.5 c 128,-1,46
 240 595 240 595 237 588 c 128,-1,47
 234 581 234 581 231 565 c 1,48,-1
 168 565 l 1,0,1
838 709 m 1,49,-1
 896 709 l 1,50,-1
 290 -20 l 1,51,-1
 232 -20 l 1,52,-1
 838 709 l 1,49,-1
798 100 m 1,53,-1
 614 100 l 1,54,-1
 627 160 l 1,55,-1
 883 425 l 1,56,-1
 930 425 l 1,57,-1
 873 155 l 1,58,-1
 938 155 l 1,59,-1
 926 100 l 1,60,-1
 861 100 l 1,61,-1
 840 0 l 1,62,-1
 777 0 l 1,63,-1
 798 100 l 1,53,-1
810 155 m 1,64,-1
 844 316 l 1,65,-1
 688 155 l 1,66,-1
 810 155 l 1,64,-1
EndSplineSet
Validated: 1
EndChar

StartChar: questiondown
Encoding: 191 191 129
Width: 611
GlyphClass: 2
Flags: MW
LayerCount: 2
Fore
SplineSet
266 -217 m 0,0,1
 215 -217 215 -217 177.5 -202 c 128,-1,2
 140 -187 140 -187 121.5 -163.5 c 128,-1,3
 103 -140 103 -140 94.5 -117.5 c 128,-1,4
 86 -95 86 -95 86 -72 c 0,5,6
 86 -5 86 -5 124 48 c 128,-1,7
 162 101 162 101 230 154 c 0,8,9
 286 195 286 195 305 218 c 128,-1,10
 324 241 324 241 334 278 c 2,11,-1
 344 325 l 1,12,-1
 434 325 l 1,13,-1
 422 270 l 2,14,15
 414 236 414 236 392.5 205 c 128,-1,16
 371 174 371 174 344.5 153 c 128,-1,17
 318 132 318 132 289 108 c 128,-1,18
 260 84 260 84 236 63 c 128,-1,19
 212 42 212 42 196.5 11.5 c 128,-1,20
 181 -19 181 -19 181 -53 c 0,21,22
 181 -93 181 -93 210 -116.5 c 128,-1,23
 239 -140 239 -140 288 -140 c 0,24,25
 354 -140 354 -140 391.5 -102.5 c 128,-1,26
 429 -65 429 -65 446 17 c 1,27,-1
 531 17 l 1,28,29
 484 -217 484 -217 266 -217 c 0,0,1
364 421 m 1,30,-1
 386 524 l 1,31,-1
 476 524 l 1,32,-1
 454 421 l 1,33,-1
 364 421 l 1,30,-1
EndSplineSet
Validated: 1
EndChar

StartChar: AE
Encoding: 198 198 136
Width: 1000
GlyphClass: 2
Flags: MW
LayerCount: 2
Fore
SplineSet
513 214 m 1,0,-1
 244 214 l 1,1,-1
 114 0 l 1,2,-1
 11 0 l 1,3,-1
 465 729 l 1,4,-1
 1087 729 l 1,5,-1
 1070 647 l 1,6,-1
 699 647 l 1,7,-1
 650 414 l 1,8,-1
 1001 414 l 1,9,-1
 983 332 l 1,10,-1
 632 332 l 1,11,-1
 579 82 l 1,12,-1
 967 82 l 1,13,-1
 950 0 l 1,14,-1
 468 0 l 1,15,-1
 513 214 l 1,0,-1
531 295 m 1,16,-1
 605 647 l 1,17,-1
 505 647 l 1,18,-1
 293 295 l 1,19,-1
 531 295 l 1,16,-1
EndSplineSet
Validated: 1
EndChar

StartChar: Ccedilla
Encoding: 199 199 137
Width: 722
GlyphClass: 2
Flags: MW
LayerCount: 2
Fore
SplineSet
381 58 m 0,0,1
 436 58 436 58 478.5 75 c 128,-1,2
 521 92 521 92 551 125.5 c 128,-1,3
 581 159 581 159 599 189.5 c 128,-1,4
 617 220 617 220 637 266 c 1,5,-1
 735 266 l 1,6,7
 676 118 676 118 587.5 48.5 c 128,-1,8
 499 -21 499 -21 368 -23 c 1,9,-1
 351 -56 l 1,10,11
 364 -54 364 -54 372 -54 c 0,12,13
 400 -54 400 -54 419.5 -69 c 128,-1,14
 439 -84 439 -84 439 -105 c 0,15,16
 439 -152 439 -152 398 -183 c 128,-1,17
 357 -214 357 -214 294 -214 c 0,18,19
 243 -214 243 -214 176 -180 c 1,20,-1
 204 -142 l 1,21,22
 259 -171 259 -171 298 -171 c 0,23,24
 326 -171 326 -171 343.5 -155.5 c 128,-1,25
 361 -140 361 -140 361 -116 c 0,26,27
 361 -107 361 -107 352 -100.5 c 128,-1,28
 343 -94 343 -94 330 -94 c 0,29,30
 327 -94 327 -94 303 -98 c 1,31,-1
 290 -92 l 1,32,-1
 328 -21 l 1,33,34
 278 -14 278 -14 250.5 -2.5 c 128,-1,35
 223 9 223 9 197 32 c 0,36,37
 112 108 112 108 112 242 c 0,38,39
 112 336 112 336 146.5 432.5 c 128,-1,40
 181 529 181 529 240 600 c 0,41,42
 357 741 357 741 532 741 c 0,43,44
 564 741 564 741 592.5 735.5 c 128,-1,45
 621 730 621 730 653.5 714.5 c 128,-1,46
 686 699 686 699 709.5 673.5 c 128,-1,47
 733 648 733 648 750 604 c 128,-1,48
 767 560 767 560 770 503 c 1,49,-1
 674 503 l 1,50,51
 668 584 668 584 629.5 622 c 128,-1,52
 591 660 591 660 515 660 c 0,53,54
 445 660 445 660 389 627 c 128,-1,55
 333 594 333 594 300.5 546.5 c 128,-1,56
 268 499 268 499 246 441 c 128,-1,57
 224 383 224 383 216 338 c 128,-1,58
 208 293 208 293 208 260 c 0,59,60
 208 169 208 169 255.5 113.5 c 128,-1,61
 303 58 303 58 381 58 c 0,0,1
EndSplineSet
Validated: 1
EndChar

StartChar: Eth
Encoding: 208 208 146
Width: 722
GlyphClass: 2
Flags: MW
LayerCount: 2
Fore
SplineSet
526 729 m 2,0,1
 593 729 593 729 641.5 704 c 128,-1,2
 690 679 690 679 714 639.5 c 128,-1,3
 738 600 738 600 748.5 562.5 c 128,-1,4
 759 525 759 525 759 488 c 0,5,6
 759 394 759 394 726.5 295 c 128,-1,7
 694 196 694 196 643 134 c 0,8,9
 533 0 533 0 371 0 c 2,10,-1
 89 0 l 1,11,-1
 161 341 l 1,12,-1
 93 341 l 1,13,-1
 106 408 l 1,14,-1
 176 408 l 1,15,-1
 244 729 l 1,16,-1
 526 729 l 2,0,1
255 341 m 1,17,-1
 200 82 l 1,18,-1
 372 82 l 2,19,20
 511 82 511 82 591 205 c 0,21,22
 621 252 621 252 642 332 c 128,-1,23
 663 412 663 412 663 480 c 0,24,25
 663 559 663 559 617.5 603 c 128,-1,26
 572 647 572 647 492 647 c 2,27,-1
 321 647 l 1,28,-1
 270 408 l 1,29,-1
 436 408 l 1,30,-1
 422 341 l 1,31,-1
 255 341 l 1,17,-1
EndSplineSet
Validated: 1
EndChar

StartChar: multiply
Encoding: 215 215 153
Width: 584
GlyphClass: 2
Flags: MW
LayerCount: 2
Fore
SplineSet
529 427 m 1,0,-1
 568 377 l 1,1,-1
 390 231 l 1,2,-1
 507 84 l 1,3,-1
 446 34 l 1,4,-1
 330 181 l 1,5,-1
 152 35 l 1,6,-1
 113 84 l 1,7,-1
 291 231 l 1,8,-1
 176 377 l 1,9,-1
 236 426 l 1,10,-1
 351 281 l 1,11,-1
 529 427 l 1,0,-1
EndSplineSet
Validated: 1
EndChar

StartChar: Oslash
Encoding: 216 216 154
Width: 778
GlyphClass: 2
Flags: MW
LayerCount: 2
Fore
SplineSet
812 463 m 0,0,1
 812 438 812 438 807 404 c 128,-1,2
 802 370 802 370 789 323 c 128,-1,3
 776 276 776 276 756 229.5 c 128,-1,4
 736 183 736 183 701 137 c 128,-1,5
 666 91 666 91 623 56 c 128,-1,6
 580 21 580 21 516.5 -1 c 128,-1,7
 453 -23 453 -23 378 -23 c 0,8,9
 236 -23 236 -23 158 57 c 1,10,-1
 67 -24 l 1,11,-1
 32 15 l 1,12,-1
 126 100 l 1,13,14
 88 165 88 165 88 268 c 0,15,16
 88 359 88 359 126 452 c 128,-1,17
 164 545 164 545 229 614 c 0,18,19
 350 741 350 741 519 741 c 0,20,21
 592 741 592 741 652 718.5 c 128,-1,22
 712 696 712 696 745 657 c 1,23,-1
 832 735 l 1,24,-1
 867 696 l 1,25,-1
 775 613 l 1,26,27
 812 549 812 549 812 463 c 0,0,1
202 168 m 1,28,-1
 672 592 l 1,29,30
 615 660 615 660 508 660 c 0,31,32
 372 660 372 660 278 545.5 c 128,-1,33
 184 431 184 431 184 265 c 0,34,35
 184 210 184 210 202 168 c 1,28,-1
700 546 m 1,36,-1
 230 123 l 1,37,38
 256 93 256 93 299 75.5 c 128,-1,39
 342 58 342 58 391 58 c 0,40,41
 461 58 461 58 524.5 92 c 128,-1,42
 588 126 588 126 632 185 c 0,43,44
 671 238 671 238 693.5 307.5 c 128,-1,45
 716 377 716 377 716 443 c 0,46,47
 716 506 716 506 700 546 c 1,36,-1
EndSplineSet
Validated: 1
EndChar

StartChar: Thorn
Encoding: 222 222 160
Width: 667
GlyphClass: 2
Flags: MW
LayerCount: 2
Fore
SplineSet
708 450 m 0,0,1
 708 344 708 344 637 267.5 c 128,-1,2
 566 191 566 191 454 191 c 2,3,-1
 226 191 l 1,4,-1
 185 0 l 1,5,-1
 91 0 l 1,6,-1
 246 729 l 1,7,-1
 340 729 l 1,8,-1
 315 611 l 1,9,-1
 523 611 l 2,10,11
 708 611 708 611 708 450 c 0,0,1
437 273 m 2,12,13
 517 273 517 273 564.5 319 c 128,-1,14
 612 365 612 365 612 432 c 0,15,16
 612 529 612 529 492 529 c 2,17,-1
 297 529 l 1,18,-1
 243 273 l 1,19,-1
 437 273 l 2,12,13
EndSplineSet
Validated: 1
EndChar

StartChar: germandbls
Encoding: 223 223 161
Width: 611
GlyphClass: 2
Flags: MW
LayerCount: 2
Fore
SplineSet
312 64 m 0,0,1
 359 64 359 64 396.5 77 c 128,-1,2
 434 90 434 90 456 109.5 c 128,-1,3
 478 129 478 129 492.5 155.5 c 128,-1,4
 507 182 507 182 512.5 206 c 128,-1,5
 518 230 518 230 518 254 c 0,6,7
 518 354 518 354 373 354 c 2,8,-1
 357 354 l 1,9,-1
 373 427 l 1,10,11
 471 427 471 427 513 469.5 c 128,-1,12
 555 512 555 512 555 564 c 0,13,14
 555 604 555 604 521.5 628 c 128,-1,15
 488 652 488 652 424 652 c 0,16,17
 344 652 344 652 305.5 616 c 128,-1,18
 267 580 267 580 252 510 c 2,19,-1
 143 0 l 1,20,-1
 55 0 l 1,21,-1
 168 532 l 2,22,23
 187 621 187 621 259 675 c 128,-1,24
 331 729 331 729 441 729 c 0,25,26
 538 729 538 729 592 690.5 c 128,-1,27
 646 652 646 652 646 585 c 0,28,29
 646 469 646 469 528 400 c 1,30,31
 569 388 569 388 590.5 349.5 c 128,-1,32
 612 311 612 311 612 267 c 0,33,34
 612 249 612 249 609 234 c 0,35,36
 582 107 582 107 500 46 c 128,-1,37
 418 -15 418 -15 304 -15 c 0,38,39
 283 -15 283 -15 253 -8 c 1,40,-1
 268 67 l 1,41,42
 290 64 290 64 312 64 c 0,0,1
EndSplineSet
Validated: 1
EndChar

StartChar: ae
Encoding: 230 230 168
Width: 889
GlyphClass: 2
Flags: MW
LayerCount: 2
Fore
SplineSet
507 163 m 2,0,1
 507 151 507 151 512 135.5 c 128,-1,2
 517 120 517 120 529 100.5 c 128,-1,3
 541 81 541 81 568 67.5 c 128,-1,4
 595 54 595 54 632 54 c 0,5,6
 732 54 732 54 787 159 c 1,7,-1
 871 159 l 1,8,9
 847 77 847 77 777 27 c 128,-1,10
 707 -23 707 -23 616 -23 c 0,11,12
 499 -23 499 -23 442 79 c 1,13,14
 337 -23 337 -23 201 -23 c 0,15,16
 136 -23 136 -23 97.5 11.5 c 128,-1,17
 59 46 59 46 59 105 c 0,18,19
 59 148 59 148 81 186.5 c 128,-1,20
 103 225 103 225 141 249 c 0,21,22
 180 272 180 272 227 283 c 128,-1,23
 274 294 274 294 310.5 295.5 c 128,-1,24
 347 297 347 297 380 300 c 128,-1,25
 413 303 413 303 434.5 317 c 128,-1,26
 456 331 456 331 463 361 c 2,27,-1
 468 386 l 2,28,29
 470 400 470 400 470 405 c 0,30,31
 470 431 470 431 442 446.5 c 128,-1,32
 414 462 414 462 366 462 c 0,33,34
 307 462 307 462 274 440 c 128,-1,35
 241 418 241 418 225 369 c 1,36,-1
 141 369 l 1,37,38
 142 378 142 378 147 390.5 c 128,-1,39
 152 403 152 403 156 416.5 c 128,-1,40
 160 430 160 430 170 444.5 c 128,-1,41
 180 459 180 459 191 472.5 c 128,-1,42
 202 486 202 486 221 498 c 128,-1,43
 240 510 240 510 262.5 519 c 128,-1,44
 285 528 285 528 317 533.5 c 128,-1,45
 349 539 349 539 387 539 c 0,46,47
 452 539 452 539 494.5 518 c 128,-1,48
 537 497 537 497 546 474 c 1,49,50
 619 539 619 539 728 539 c 0,51,52
 804 539 804 539 859.5 489 c 128,-1,53
 915 439 915 439 915 370 c 0,54,55
 915 326 915 326 901 251 c 2,56,-1
 898 234 l 1,57,-1
 512 234 l 1,58,59
 507 212 507 212 507 181 c 2,60,-1
 507 163 l 2,0,1
441 257 m 1,61,62
 417 248 417 248 373.5 241.5 c 128,-1,63
 330 235 330 235 294 228.5 c 128,-1,64
 258 222 258 222 223 210.5 c 128,-1,65
 188 199 188 199 167.5 175 c 128,-1,66
 147 151 147 151 147 115 c 0,67,68
 147 49 147 49 237 49 c 0,69,70
 300 49 300 49 355.5 84 c 128,-1,71
 411 119 411 119 421 164 c 2,72,-1
 441 257 l 1,61,62
530 306 m 1,73,-1
 824 306 l 1,74,75
 827 328 827 328 827 339 c 0,76,77
 827 395 827 395 796 428.5 c 128,-1,78
 765 462 765 462 712 462 c 0,79,80
 650 462 650 462 601.5 420.5 c 128,-1,81
 553 379 553 379 530 306 c 1,73,-1
EndSplineSet
Validated: 1
EndChar

StartChar: ccedilla
Encoding: 231 231 169
Width: 500
GlyphClass: 2
Flags: MW
LayerCount: 2
Fore
SplineSet
366 462 m 0,0,1
 318 462 318 462 280 438 c 128,-1,2
 242 414 242 414 221 380 c 128,-1,3
 200 346 200 346 186.5 304.5 c 128,-1,4
 173 263 173 263 168.5 232.5 c 128,-1,5
 164 202 164 202 164 181 c 0,6,7
 164 123 164 123 194.5 88.5 c 128,-1,8
 225 54 225 54 277 54 c 0,9,10
 388 54 388 54 434 180 c 1,11,-1
 518 180 l 1,12,13
 494 83 494 83 431 31.5 c 128,-1,14
 368 -20 368 -20 271 -23 c 1,15,-1
 253 -56 l 1,16,17
 266 -54 266 -54 274 -54 c 0,18,19
 302 -54 302 -54 321.5 -69 c 128,-1,20
 341 -84 341 -84 341 -105 c 0,21,22
 341 -152 341 -152 300 -183 c 128,-1,23
 259 -214 259 -214 196 -214 c 0,24,25
 145 -214 145 -214 78 -180 c 1,26,-1
 106 -142 l 1,27,28
 163 -171 163 -171 200 -171 c 0,29,30
 228 -171 228 -171 245.5 -155.5 c 128,-1,31
 263 -140 263 -140 263 -116 c 0,32,33
 263 -107 263 -107 253.5 -100.5 c 128,-1,34
 244 -94 244 -94 232 -94 c 0,35,36
 229 -94 229 -94 205 -98 c 1,37,-1
 192 -92 l 1,38,-1
 230 -22 l 1,39,40
 149 -6 149 -6 112.5 49.5 c 128,-1,41
 76 105 76 105 76 170 c 0,42,43
 76 329 76 329 160.5 434 c 128,-1,44
 245 539 245 539 381 539 c 0,45,46
 423 539 423 539 455.5 526.5 c 128,-1,47
 488 514 488 514 506 497 c 128,-1,48
 524 480 524 480 535.5 458 c 128,-1,49
 547 436 547 436 550.5 420.5 c 128,-1,50
 554 405 554 405 554 393 c 0,51,52
 554 392 554 392 553.5 388 c 128,-1,53
 553 384 553 384 552.5 376.5 c 128,-1,54
 552 369 552 369 552 363 c 2,55,-1
 551 348 l 1,56,-1
 467 348 l 1,57,58
 468 357 468 357 468 370 c 0,59,60
 468 413 468 413 440.5 437.5 c 128,-1,61
 413 462 413 462 366 462 c 0,0,1
EndSplineSet
Validated: 1
EndChar

StartChar: eth
Encoding: 240 240 178
Width: 556
GlyphClass: 2
Flags: MW
LayerCount: 2
Fore
SplineSet
80 164 m 0,0,1
 80 188 80 188 84.5 219.5 c 128,-1,2
 89 251 89 251 100 294.5 c 128,-1,3
 111 338 111 338 132.5 379 c 128,-1,4
 154 420 154 420 184.5 455.5 c 128,-1,5
 215 491 215 491 262.5 512.5 c 128,-1,6
 310 534 310 534 369 534 c 0,7,8
 401 534 401 534 435 517 c 1,9,10
 397 567 397 567 351 609 c 1,11,-1
 251 564 l 1,12,-1
 219 603 l 1,13,-1
 308 644 l 1,14,15
 291 659 291 659 281 666 c 128,-1,16
 271 673 271 673 259.5 680 c 128,-1,17
 248 687 248 687 233 698 c 1,18,-1
 275 743 l 1,19,-1
 297 729 l 2,20,21
 334 708 334 708 369 681 c 1,22,23
 370 681 370 681 377 676 c 1,24,-1
 476 719 l 1,25,-1
 515 681 l 1,26,-1
 420 640 l 1,27,28
 576 506 576 506 576 347 c 0,29,30
 576 317 576 317 569.5 277.5 c 128,-1,31
 563 238 563 238 543 183 c 128,-1,32
 523 128 523 128 491.5 84 c 128,-1,33
 460 40 460 40 403 8.5 c 128,-1,34
 346 -23 346 -23 273 -23 c 0,35,36
 186 -23 186 -23 133 28.5 c 128,-1,37
 80 80 80 80 80 164 c 0,0,1
283 54 m 0,38,39
 332 54 332 54 370.5 77.5 c 128,-1,40
 409 101 409 101 430.5 134.5 c 128,-1,41
 452 168 452 168 465.5 209.5 c 128,-1,42
 479 251 479 251 483.5 281 c 128,-1,43
 488 311 488 311 488 333 c 0,44,45
 488 394 488 394 457 428 c 128,-1,46
 426 462 426 462 371 462 c 0,47,48
 323 462 323 462 284.5 438 c 128,-1,49
 246 414 246 414 225 380.5 c 128,-1,50
 204 347 204 347 190.5 305.5 c 128,-1,51
 177 264 177 264 172.5 234.5 c 128,-1,52
 168 205 168 205 168 184 c 0,53,54
 168 124 168 124 199 89 c 128,-1,55
 230 54 230 54 283 54 c 0,38,39
EndSplineSet
Validated: 1
EndChar

StartChar: divide
Encoding: 247 247 185
Width: 584
GlyphClass: 2
Flags: MW
LayerCount: 2
Fore
SplineSet
591 269 m 1,0,-1
 576 197 l 1,1,-1
 92 197 l 1,2,-1
 107 269 l 1,3,-1
 591 269 l 1,0,-1
305 104 m 0,4,5
 327 104 327 104 342 88.5 c 128,-1,6
 357 73 357 73 357 51 c 0,7,8
 357 31 357 31 341.5 15.5 c 128,-1,9
 326 0 326 0 305 0 c 128,-1,10
 284 0 284 0 268.5 15.5 c 128,-1,11
 253 31 253 31 253 52 c 128,-1,12
 253 73 253 73 268.5 88.5 c 128,-1,13
 284 104 284 104 305 104 c 0,4,5
379 462 m 128,-1,15
 401 462 401 462 416 446.5 c 128,-1,16
 431 431 431 431 431 409 c 0,17,18
 431 389 431 389 415.5 373.5 c 128,-1,19
 400 358 400 358 379 358 c 128,-1,20
 358 358 358 358 342.5 373.5 c 128,-1,21
 327 389 327 389 327 410 c 0,22,23
 327 432 327 432 342 447 c 128,-1,14
 357 462 357 462 379 462 c 128,-1,15
EndSplineSet
Validated: 1
EndChar

StartChar: oslash
Encoding: 248 248 186
Width: 611
GlyphClass: 2
Flags: MW
LayerCount: 2
Fore
SplineSet
577 354 m 0,0,1
 577 202 577 202 493 89.5 c 128,-1,2
 409 -23 409 -23 274 -23 c 0,3,4
 169 -23 169 -23 123 41 c 1,5,-1
 45 -30 l 1,6,-1
 19 -2 l 1,7,-1
 102 74 l 1,8,9
 81 119 81 119 81 164 c 0,10,11
 81 227 81 227 103 301 c 128,-1,12
 125 375 125 375 159 423 c 0,13,14
 239 539 239 539 383 539 c 0,15,16
 488 539 488 539 537 472 c 1,17,-1
 613 541 l 1,18,-1
 639 511 l 1,19,-1
 558 437 l 1,20,21
 577 395 577 395 577 354 c 0,0,1
369 462 m 0,22,23
 321 462 321 462 283.5 438 c 128,-1,24
 246 414 246 414 225.5 380.5 c 128,-1,25
 205 347 205 347 191.5 305 c 128,-1,26
 178 263 178 263 173.5 232.5 c 128,-1,27
 169 202 169 202 169 180 c 0,28,29
 169 159 169 159 175 141 c 1,30,-1
 470 410 l 1,31,32
 441 462 441 462 369 462 c 0,22,23
289 54 m 0,33,34
 345 54 345 54 387 86.5 c 128,-1,35
 429 119 429 119 449.5 167.5 c 128,-1,36
 470 216 470 216 479.5 257 c 128,-1,37
 489 298 489 298 489 328 c 0,38,39
 489 345 489 345 484 370 c 1,40,-1
 190 102 l 1,41,42
 219 54 219 54 289 54 c 0,33,34
EndSplineSet
Validated: 1
EndChar

StartChar: thorn
Encoding: 254 254 192
Width: 556
GlyphClass: 2
Flags: MW
LayerCount: 2
Fore
SplineSet
586 344 m 0,0,1
 586 189 586 189 502.5 83 c 128,-1,2
 419 -23 419 -23 294 -23 c 0,3,4
 241 -23 241 -23 207.5 -2 c 128,-1,5
 174 19 174 19 151 68 c 1,6,-1
 91 -213 l 1,7,-1
 7 -213 l 1,8,-1
 207 729 l 1,9,-1
 291 729 l 1,10,-1
 230 440 l 1,11,12
 252 483 252 483 303.5 511 c 128,-1,13
 355 539 355 539 412 539 c 0,14,15
 492 539 492 539 539 486.5 c 128,-1,16
 586 434 586 434 586 344 c 0,0,1
302 54 m 0,17,18
 359 54 359 54 401 87.5 c 128,-1,19
 443 121 443 121 462 170 c 128,-1,20
 481 219 481 219 489.5 258 c 128,-1,21
 498 297 498 297 498 324 c 0,22,23
 498 389 498 389 466.5 425.5 c 128,-1,24
 435 462 435 462 379 462 c 0,25,26
 335 462 335 462 299 439 c 128,-1,27
 263 416 263 416 242 383 c 128,-1,28
 221 350 221 350 207 310 c 128,-1,29
 193 270 193 270 188 238.5 c 128,-1,30
 183 207 183 207 183 184 c 0,31,32
 183 124 183 124 215 89 c 128,-1,33
 247 54 247 54 302 54 c 0,17,18
EndSplineSet
Validated: 1
EndChar

StartChar: Aogonek
Encoding: 260 260 198
Width: 667
GlyphClass: 2
Flags: MW
LayerCount: 2
Fore
SplineSet
452 -130 m 0,0,1
 452 -46 452 -46 582 0 c 1,2,-1
 551 0 l 1,3,-1
 524 219 l 1,4,-1
 226 219 l 1,5,-1
 116 0 l 1,6,-1
 17 0 l 1,7,-1
 432 729 l 1,8,-1
 552 729 l 1,9,-1
 653 0 l 1,10,11
 586 -29 586 -29 556.5 -56.5 c 128,-1,12
 527 -84 527 -84 527 -116 c 0,13,14
 527 -136 527 -136 545.5 -148 c 128,-1,15
 564 -160 564 -160 595 -160 c 0,16,17
 634 -160 634 -160 663 -150 c 1,18,-1
 654 -195 l 1,19,20
 607 -205 607 -205 582 -205 c 0,21,22
 522 -205 522 -205 487 -185 c 128,-1,23
 452 -165 452 -165 452 -130 c 0,0,1
514 297 m 1,24,-1
 474 630 l 1,25,-1
 283 297 l 1,26,-1
 514 297 l 1,24,-1
EndSplineSet
Validated: 1
EndChar

StartChar: aogonek
Encoding: 261 261 199
Width: 556
GlyphClass: 2
Flags: MW
LayerCount: 2
Fore
SplineSet
372 462 m 0,0,1
 264 462 264 462 235 369 c 1,2,-1
 151 369 l 1,3,4
 165 452 165 452 227.5 495.5 c 128,-1,5
 290 539 290 539 394 539 c 0,6,7
 473 539 473 539 520.5 508 c 128,-1,8
 568 477 568 477 568 426 c 0,9,10
 568 416 568 416 562 389 c 2,11,-1
 498 88 l 2,12,13
 497 85 497 85 497 78 c 0,14,15
 497 49 497 49 535 49 c 0,16,17
 543 49 543 49 552 51 c 1,18,-1
 539 -14 l 1,19,20
 498 -24 498 -24 466.5 -54.5 c 128,-1,21
 435 -85 435 -85 435 -116 c 0,22,23
 435 -136 435 -136 453.5 -148 c 128,-1,24
 472 -160 472 -160 503 -160 c 0,25,26
 542 -160 542 -160 571 -150 c 1,27,-1
 562 -195 l 1,28,29
 518 -205 518 -205 490 -205 c 0,30,31
 428 -205 428 -205 394 -185 c 128,-1,32
 360 -165 360 -165 360 -128 c 0,33,34
 360 -94 360 -94 381 -70.5 c 128,-1,35
 402 -47 402 -47 455 -19 c 1,36,37
 410 -5 410 -5 410 43 c 2,38,-1
 410 54 l 1,39,40
 400 47 400 47 390.5 37.5 c 128,-1,41
 381 28 381 28 363 17.5 c 128,-1,42
 345 7 345 7 324.5 -2 c 128,-1,43
 304 -11 304 -11 273.5 -17 c 128,-1,44
 243 -23 243 -23 209 -23 c 0,45,46
 142 -23 142 -23 103.5 11 c 128,-1,47
 65 45 65 45 65 105 c 0,48,49
 65 197 65 197 147 249 c 0,50,51
 184 272 184 272 230.5 283.5 c 128,-1,52
 277 295 277 295 315 297 c 128,-1,53
 353 299 353 299 387.5 302 c 128,-1,54
 422 305 422 305 444.5 318.5 c 128,-1,55
 467 332 467 332 473 361 c 2,56,-1
 476 379 l 2,57,58
 478 395 478 395 478 398 c 0,59,60
 478 426 478 426 447.5 444 c 128,-1,61
 417 462 417 462 372 462 c 0,0,1
451 258 m 1,62,63
 422 248 422 248 362 238.5 c 128,-1,64
 302 229 302 229 261 221.5 c 128,-1,65
 220 214 220 214 186.5 187 c 128,-1,66
 153 160 153 160 153 115 c 0,67,68
 153 83 153 83 176 66 c 128,-1,69
 199 49 199 49 242 49 c 0,70,71
 308 49 308 49 364.5 83.5 c 128,-1,72
 421 118 421 118 431 164 c 2,73,-1
 451 258 l 1,62,63
EndSplineSet
Validated: 1
EndChar

StartChar: Dcroat
Encoding: 272 272 210
Width: 722
GlyphClass: 2
Flags: MW
LayerCount: 2
Fore
SplineSet
526 729 m 2,0,1
 593 729 593 729 641.5 704 c 128,-1,2
 690 679 690 679 714 639.5 c 128,-1,3
 738 600 738 600 748.5 562.5 c 128,-1,4
 759 525 759 525 759 488 c 0,5,6
 759 394 759 394 726.5 295 c 128,-1,7
 694 196 694 196 643 134 c 0,8,9
 533 0 533 0 371 0 c 2,10,-1
 89 0 l 1,11,-1
 161 341 l 1,12,-1
 93 341 l 1,13,-1
 106 408 l 1,14,-1
 176 408 l 1,15,-1
 244 729 l 1,16,-1
 526 729 l 2,0,1
255 341 m 1,17,-1
 200 82 l 1,18,-1
 372 82 l 2,19,20
 511 82 511 82 591 205 c 0,21,22
 621 252 621 252 642 332 c 128,-1,23
 663 412 663 412 663 480 c 0,24,25
 663 559 663 559 617.5 603 c 128,-1,26
 572 647 572 647 492 647 c 2,27,-1
 321 647 l 1,28,-1
 270 408 l 1,29,-1
 436 408 l 1,30,-1
 422 341 l 1,31,-1
 255 341 l 1,17,-1
EndSplineSet
Validated: 1
EndChar

StartChar: dcroat
Encoding: 273 273 211
Width: 556
GlyphClass: 2
Flags: MW
LayerCount: 2
Fore
SplineSet
73 170 m 0,0,1
 73 325 73 325 155 432 c 128,-1,2
 237 539 237 539 363 539 c 0,3,4
 416 539 416 539 449 518 c 128,-1,5
 482 497 482 497 506 448 c 1,6,-1
 538 600 l 1,7,-1
 388 600 l 1,8,-1
 400 653 l 1,9,-1
 550 653 l 1,10,-1
 566 729 l 1,11,-1
 650 729 l 1,12,-1
 634 653 l 1,13,-1
 695 653 l 1,14,-1
 684 600 l 1,15,-1
 622 600 l 1,16,-1
 495 0 l 1,17,-1
 414 0 l 1,18,-1
 430 76 l 1,19,20
 407 31 407 31 352.5 4 c 128,-1,21
 298 -23 298 -23 244 -23 c 0,22,23
 166 -23 166 -23 119.5 29.5 c 128,-1,24
 73 82 73 82 73 170 c 0,0,1
278 54 m 0,25,26
 322 54 322 54 358 76.5 c 128,-1,27
 394 99 394 99 414.5 131.5 c 128,-1,28
 435 164 435 164 449 203.5 c 128,-1,29
 463 243 463 243 468 274 c 128,-1,30
 473 305 473 305 473 327 c 0,31,32
 473 391 473 391 442 426.5 c 128,-1,33
 411 462 411 462 355 462 c 0,34,35
 309 462 309 462 273 438.5 c 128,-1,36
 237 415 237 415 216.5 382 c 128,-1,37
 196 349 196 349 183 309 c 128,-1,38
 170 269 170 269 165.5 239.5 c 128,-1,39
 161 210 161 210 161 190 c 0,40,41
 161 125 161 125 192 89.5 c 128,-1,42
 223 54 223 54 278 54 c 0,25,26
EndSplineSet
Validated: 1
EndChar

StartChar: eogonek
Encoding: 281 281 219
Width: 556
GlyphClass: 2
Flags: MW
LayerCount: 2
Fore
SplineSet
536 159 m 1,0,1
 525 118 525 118 499 83.5 c 128,-1,2
 473 49 473 49 444.5 26 c 128,-1,3
 416 3 416 3 389 -18.5 c 128,-1,4
 362 -40 362 -40 344.5 -64 c 128,-1,5
 327 -88 327 -88 327 -114 c 0,6,7
 327 -134 327 -134 346 -147 c 128,-1,8
 365 -160 365 -160 394 -160 c 0,9,10
 434 -160 434 -160 464 -150 c 1,11,-1
 455 -195 l 1,12,13
 425 -205 425 -205 387 -205 c 0,14,15
 363 -205 363 -205 341 -201.5 c 128,-1,16
 319 -198 319 -198 298 -190 c 128,-1,17
 277 -182 277 -182 265 -165.5 c 128,-1,18
 253 -149 253 -149 253 -127 c 0,19,20
 253 -96 253 -96 273.5 -71.5 c 128,-1,21
 294 -47 294 -47 346 -16 c 1,22,23
 309 -23 309 -23 280 -23 c 0,24,25
 193 -23 193 -23 138.5 34 c 128,-1,26
 84 91 84 91 84 173 c 0,27,28
 84 201 84 201 90.5 239.5 c 128,-1,29
 97 278 97 278 117.5 332.5 c 128,-1,30
 138 387 138 387 169.5 431.5 c 128,-1,31
 201 476 201 476 258.5 507.5 c 128,-1,32
 316 539 316 539 389 539 c 0,33,34
 470 539 470 539 525 489.5 c 128,-1,35
 580 440 580 440 580 368 c 0,36,37
 580 326 580 326 566 251 c 2,38,-1
 563 234 l 1,39,-1
 177 234 l 1,40,41
 172 215 172 215 172 188 c 0,42,43
 172 124 172 124 204.5 89 c 128,-1,44
 237 54 237 54 296 54 c 0,45,46
 397 54 397 54 452 159 c 1,47,-1
 536 159 l 1,0,1
195 306 m 1,48,-1
 489 306 l 1,49,50
 492 330 492 330 492 339 c 0,51,52
 492 395 492 395 460.5 428.5 c 128,-1,53
 429 462 429 462 376 462 c 0,54,55
 315 462 315 462 265 418.5 c 128,-1,56
 215 375 215 375 195 306 c 1,48,-1
EndSplineSet
Validated: 1
EndChar

StartChar: gcommaaccent
Encoding: 291 291 229
Width: 527
GlyphClass: 2
Flags: MW
LayerCount: 2
Fore
SplineSet
340 539 m 0,0,1
 437 539 437 539 479 446 c 1,2,-1
 496 524 l 1,3,-1
 572 524 l 1,4,-1
 479 85 l 2,5,6
 444 -77 444 -77 377.5 -147.5 c 128,-1,7
 311 -218 311 -218 180 -218 c 0,8,9
 100 -218 100 -218 51.5 -183.5 c 128,-1,10
 3 -149 3 -149 3 -91 c 0,11,12
 3 -81 3 -81 4 -73 c 2,13,-1
 5 -60 l 1,14,-1
 89 -60 l 1,15,-1
 89 -74 l 2,16,17
 89 -108 89 -108 117.5 -127 c 128,-1,18
 146 -146 146 -146 197 -146 c 0,19,20
 277 -146 277 -146 320.5 -102 c 128,-1,21
 364 -58 364 -58 386 44 c 2,22,-1
 390 63 l 1,23,24
 315 -17 315 -17 218 -17 c 0,25,26
 142 -17 142 -17 93.5 34.5 c 128,-1,27
 45 86 45 86 45 168 c 0,28,29
 45 195 45 195 52 235 c 128,-1,30
 59 275 59 275 79.5 330 c 128,-1,31
 100 385 100 385 131 430 c 128,-1,32
 162 475 162 475 216.5 507 c 128,-1,33
 271 539 271 539 340 539 c 0,0,1
334 462 m 128,-1,35
 286 462 286 462 248 438 c 128,-1,36
 210 414 210 414 189.5 380.5 c 128,-1,37
 169 347 169 347 155.5 305.5 c 128,-1,38
 142 264 142 264 137.5 234.5 c 128,-1,39
 133 205 133 205 133 184 c 0,40,41
 133 125 133 125 162.5 90 c 128,-1,42
 192 55 192 55 242 55 c 0,43,44
 287 55 287 55 328 81.5 c 128,-1,45
 369 108 369 108 394 154 c 0,46,47
 440 234 440 234 440 339 c 0,48,49
 440 395 440 395 411 428.5 c 128,-1,34
 382 462 382 462 334 462 c 128,-1,35
430 589 m 1,50,-1
 330 589 l 1,51,-1
 350 682 l 2,52,53
 364 744 364 744 397.5 778.5 c 128,-1,54
 431 813 431 813 478 813 c 1,55,-1
 470 775 l 1,56,57
 412 775 412 775 396 687 c 1,58,-1
 451 687 l 1,59,-1
 430 589 l 1,50,-1
EndSplineSet
Validated: 1
EndChar

StartChar: Hbar
Encoding: 294 294 232
Width: 722
GlyphClass: 2
Flags: MW
LayerCount: 2
Fore
SplineSet
206 504 m 1,0,-1
 187 414 l 1,1,-1
 562 414 l 1,2,-1
 581 504 l 1,3,-1
 206 504 l 1,0,-1
128 576 m 1,4,-1
 160 729 l 1,5,-1
 253 729 l 1,6,-1
 221 576 l 1,7,-1
 596 576 l 1,8,-1
 628 729 l 1,9,-1
 721 729 l 1,10,-1
 689 576 l 1,11,-1
 733 576 l 1,12,-1
 718 506 l 1,13,-1
 674 506 l 1,14,-1
 567 0 l 1,15,-1
 474 0 l 1,16,-1
 544 332 l 1,17,-1
 170 332 l 1,18,-1
 100 0 l 1,19,-1
 6 0 l 1,20,-1
 113 506 l 1,21,-1
 69 506 l 1,22,-1
 84 576 l 1,23,-1
 128 576 l 1,4,-1
EndSplineSet
Validated: 1
EndChar

StartChar: hbar
Encoding: 295 295 233
Width: 556
GlyphClass: 2
Flags: MW
LayerCount: 2
Fore
SplineSet
214 653 m 1,0,-1
 364 653 l 1,1,-1
 353 600 l 1,2,-1
 203 600 l 1,3,-1
 172 452 l 1,4,5
 218 500 218 500 260 519.5 c 128,-1,6
 302 539 302 539 358 539 c 0,7,8
 424 539 424 539 460 510 c 128,-1,9
 496 481 496 481 496 430 c 0,10,11
 496 414 496 414 493 396 c 2,12,-1
 409 0 l 1,13,-1
 326 0 l 1,14,-1
 403 363 l 2,15,16
 406 380 406 380 406 393 c 0,17,18
 406 427 406 427 380 446.5 c 128,-1,19
 354 466 354 466 317 466 c 0,20,21
 253 466 253 466 203.5 417.5 c 128,-1,22
 154 369 154 369 137 289 c 2,23,-1
 76 0 l 1,24,-1
 -7 0 l 1,25,-1
 120 600 l 1,26,-1
 57 600 l 1,27,-1
 68 653 l 1,28,-1
 131 653 l 1,29,-1
 147 729 l 1,30,-1
 230 729 l 1,31,-1
 214 653 l 1,0,-1
EndSplineSet
Validated: 1
EndChar

StartChar: dotlessi
Encoding: 305 305 243
Width: 278
GlyphClass: 2
Flags: MW
LayerCount: 2
Fore
SplineSet
289 524 m 1,0,-1
 178 0 l 1,1,-1
 94 0 l 1,2,-1
 205 524 l 1,3,-1
 289 524 l 1,0,-1
EndSplineSet
Validated: 1
EndChar

StartChar: kgreenlandic
Encoding: 312 312 250
Width: 510
GlyphClass: 2
Flags: MW
LayerCount: 2
Fore
SplineSet
264 524 m 1,0,-1
 217 302 l 1,1,-1
 486 524 l 1,2,-1
 593 524 l 1,3,-1
 266 264 l 1,4,-1
 514 0 l 1,5,-1
 411 0 l 1,6,-1
 199 216 l 1,7,-1
 153 0 l 1,8,-1
 70 0 l 1,9,-1
 181 524 l 1,10,-1
 264 524 l 1,0,-1
EndSplineSet
Validated: 1
EndChar

StartChar: Lslash
Encoding: 321 321 259
Width: 556
GlyphClass: 2
Flags: MW
LayerCount: 2
Fore
SplineSet
261 315 m 1,0,-1
 211 82 l 1,1,-1
 570 82 l 1,2,-1
 552 0 l 1,3,-1
 100 0 l 1,4,-1
 158 276 l 1,5,-1
 75 225 l 1,6,-1
 92 304 l 1,7,-1
 175 355 l 1,8,-1
 255 729 l 1,9,-1
 349 729 l 1,10,-1
 278 394 l 1,11,-1
 474 512 l 1,12,-1
 457 433 l 1,13,-1
 261 315 l 1,0,-1
EndSplineSet
Validated: 1
EndChar

StartChar: lslash
Encoding: 322 322 260
Width: 222
GlyphClass: 2
Flags: MW
LayerCount: 2
Fore
SplineSet
239 414 m 1,0,-1
 312 456 l 1,1,-1
 298 389 l 1,2,-1
 225 347 l 1,3,-1
 151 0 l 1,4,-1
 67 0 l 1,5,-1
 134 314 l 1,6,-1
 62 270 l 1,7,-1
 76 337 l 1,8,-1
 149 382 l 1,9,-1
 222 729 l 1,10,-1
 306 729 l 1,11,-1
 239 414 l 1,0,-1
EndSplineSet
Validated: 1
EndChar

StartChar: Eng
Encoding: 330 330 268
Width: 722
GlyphClass: 2
Flags: MW
LayerCount: 2
Fore
SplineSet
532 133 m 1,0,-1
 659 729 l 1,1,-1
 747 729 l 1,2,-1
 569 -109 l 2,3,4
 544 -218 544 -218 397 -218 c 0,5,6
 385 -218 385 -218 370 -215 c 1,7,-1
 385 -144 l 1,8,9
 402 -145 402 -145 405 -145 c 0,10,11
 443 -145 443 -145 461 -130 c 128,-1,12
 479 -115 479 -115 488 -76 c 2,13,-1
 498 -27 l 1,14,-1
 235 591 l 1,15,-1
 110 0 l 1,16,-1
 22 0 l 1,17,-1
 177 729 l 1,18,-1
 278 729 l 1,19,-1
 532 133 l 1,0,-1
EndSplineSet
Validated: 1
EndChar

StartChar: eng
Encoding: 331 331 269
Width: 556
GlyphClass: 2
Flags: MW
LayerCount: 2
Fore
SplineSet
537 396 m 2,0,-1
 430 -109 l 2,1,2
 407 -218 407 -218 264 -218 c 0,3,4
 251 -218 251 -218 236 -215 c 1,5,-1
 251 -144 l 1,6,7
 268 -145 268 -145 271 -145 c 0,8,9
 309 -145 309 -145 327.5 -130 c 128,-1,10
 346 -115 346 -115 354 -76 c 2,11,-1
 447 363 l 2,12,13
 450 376 450 376 450 389 c 0,14,15
 450 425 450 425 426.5 445.5 c 128,-1,16
 403 466 403 466 361 466 c 0,17,18
 297 466 297 466 247.5 417.5 c 128,-1,19
 198 369 198 369 181 289 c 2,20,-1
 120 0 l 1,21,-1
 36 0 l 1,22,-1
 147 524 l 1,23,-1
 224 524 l 1,24,-1
 206 436 l 1,25,26
 252 491 252 491 297.5 515 c 128,-1,27
 343 539 343 539 401 539 c 0,28,29
 467 539 467 539 504 509.5 c 128,-1,30
 541 480 541 480 541 429 c 0,31,32
 541 418 541 418 537 396 c 2,0,-1
EndSplineSet
Validated: 1
EndChar

StartChar: OE
Encoding: 338 338 276
Width: 1000
GlyphClass: 2
Flags: MW
LayerCount: 2
Fore
SplineSet
687 327 m 1,0,-1
 634 82 l 1,1,-1
 974 82 l 1,2,-1
 957 0 l 1,3,-1
 523 0 l 1,4,-1
 539 77 l 1,5,6
 458 -23 458 -23 332 -23 c 0,7,8
 228 -23 228 -23 164.5 43.5 c 128,-1,9
 101 110 101 110 101 219 c 0,10,11
 101 324 101 324 139 437.5 c 128,-1,12
 177 551 177 551 235 616 c 0,13,14
 287 674 287 674 357 707.5 c 128,-1,15
 427 741 427 741 496 741 c 0,16,17
 617 741 617 741 662 653 c 1,18,-1
 678 729 l 1,19,-1
 1108 729 l 1,20,-1
 1091 647 l 1,21,-1
 755 647 l 1,22,-1
 704 409 l 1,23,-1
 1031 409 l 1,24,-1
 1013 327 l 1,25,-1
 687 327 l 1,0,-1
562 182 m 1,26,-1
 638 539 l 1,27,28
 610 660 610 660 480 660 c 0,29,30
 347 660 347 660 269 523 c 0,31,32
 239 472 239 472 218 383 c 128,-1,33
 197 294 197 294 197 222 c 0,34,35
 197 146 197 146 238.5 102 c 128,-1,36
 280 58 280 58 352 58 c 0,37,38
 477 58 477 58 562 182 c 1,26,-1
EndSplineSet
Validated: 1
EndChar

StartChar: oe
Encoding: 339 339 277
Width: 944
GlyphClass: 2
Flags: MW
LayerCount: 2
Fore
SplineSet
85 165 m 0,0,1
 85 189 85 189 90 221.5 c 128,-1,2
 95 254 95 254 106 298 c 128,-1,3
 117 342 117 342 140 383 c 128,-1,4
 163 424 163 424 194 460 c 128,-1,5
 225 496 225 496 275 517.5 c 128,-1,6
 325 539 325 539 386 539 c 0,7,8
 513 539 513 539 558 436 c 1,9,10
 590 480 590 480 652 509.5 c 128,-1,11
 714 539 714 539 775 539 c 0,12,13
 856 539 856 539 911 489.5 c 128,-1,14
 966 440 966 440 966 368 c 0,15,16
 966 326 966 326 952 251 c 2,17,-1
 949 234 l 1,18,-1
 563 234 l 1,19,20
 556 198 556 198 556 176 c 0,21,22
 556 120 556 120 590.5 87 c 128,-1,23
 625 54 625 54 683 54 c 0,24,25
 783 54 783 54 838 159 c 1,26,-1
 922 159 l 1,27,28
 898 77 898 77 828 27 c 128,-1,29
 758 -23 758 -23 667 -23 c 0,30,31
 593 -23 593 -23 550 11.5 c 128,-1,32
 507 46 507 46 491 84 c 1,33,34
 453 33 453 33 396.5 5 c 128,-1,35
 340 -23 340 -23 275 -23 c 0,36,37
 221 -23 221 -23 181.5 -4 c 128,-1,38
 142 15 142 15 122 45.5 c 128,-1,39
 102 76 102 76 93.5 105.5 c 128,-1,40
 85 135 85 135 85 165 c 0,0,1
285 54 m 0,41,42
 372 54 372 54 429.5 134.5 c 128,-1,43
 487 215 487 215 487 334 c 0,44,45
 487 394 487 394 456 428 c 128,-1,46
 425 462 425 462 371 462 c 0,47,48
 288 462 288 462 230.5 380.5 c 128,-1,49
 173 299 173 299 173 181 c 0,50,51
 173 122 173 122 203 88 c 128,-1,52
 233 54 233 54 285 54 c 0,41,42
581 306 m 1,53,-1
 875 306 l 1,54,55
 878 327 878 327 878 338 c 0,56,57
 878 395 878 395 847 428.5 c 128,-1,58
 816 462 816 462 764 462 c 0,59,60
 703 462 703 462 652 418.5 c 128,-1,61
 601 375 601 375 581 306 c 1,53,-1
EndSplineSet
Validated: 1
EndChar

StartChar: Scedilla
Encoding: 350 350 288
Width: 667
GlyphClass: 2
Flags: MW
LayerCount: 2
Fore
SplineSet
470 660 m 0,0,1
 386 660 386 660 330 621 c 128,-1,2
 274 582 274 582 274 518 c 0,3,4
 274 485 274 485 295.5 467 c 128,-1,5
 317 449 317 449 375 432 c 2,6,-1
 547 383 l 2,7,8
 609 366 609 366 639 323.5 c 128,-1,9
 669 281 669 281 669 237 c 0,10,11
 669 183 669 183 633.5 125 c 128,-1,12
 598 67 598 67 545 32 c 0,13,14
 461 -22 461 -22 338 -22 c 1,15,-1
 320 -56 l 1,16,17
 333 -54 333 -54 341 -54 c 0,18,19
 369 -54 369 -54 388.5 -69 c 128,-1,20
 408 -84 408 -84 408 -105 c 0,21,22
 408 -152 408 -152 367 -183 c 128,-1,23
 326 -214 326 -214 263 -214 c 0,24,25
 213 -214 213 -214 145 -180 c 1,26,-1
 173 -142 l 1,27,28
 228 -171 228 -171 267 -171 c 0,29,30
 295 -171 295 -171 312.5 -155.5 c 128,-1,31
 330 -140 330 -140 330 -116 c 0,32,33
 330 -107 330 -107 320.5 -100.5 c 128,-1,34
 311 -94 311 -94 299 -94 c 0,35,36
 296 -94 296 -94 272 -98 c 1,37,-1
 259 -92 l 1,38,-1
 296 -22 l 1,39,40
 192 -8 192 -8 140.5 38 c 128,-1,41
 89 84 89 84 89 169 c 0,42,43
 89 199 89 199 98 232 c 1,44,-1
 185 232 l 1,45,46
 181 207 181 207 181 191 c 0,47,48
 181 123 181 123 221 90.5 c 128,-1,49
 261 58 261 58 346 58 c 0,50,51
 450 58 450 58 511.5 102 c 128,-1,52
 573 146 573 146 573 209 c 0,53,54
 573 245 573 245 546.5 268.5 c 128,-1,55
 520 292 520 292 460 309 c 2,56,-1
 289 357 l 2,57,58
 239 371 239 371 208.5 408 c 128,-1,59
 178 445 178 445 178 492 c 0,60,61
 178 530 178 530 198.5 577.5 c 128,-1,62
 219 625 219 625 250 656 c 0,63,64
 332 741 332 741 488 741 c 0,65,66
 552 741 552 741 599 724.5 c 128,-1,67
 646 708 646 708 669.5 681 c 128,-1,68
 693 654 693 654 703.5 626.5 c 128,-1,69
 714 599 714 599 714 571 c 0,70,71
 714 552 714 552 706 515 c 1,72,-1
 618 515 l 1,73,74
 622 542 622 542 622 551 c 0,75,76
 622 660 622 660 470 660 c 0,0,1
EndSplineSet
Validated: 1
EndChar

StartChar: scedilla
Encoding: 351 351 289
Width: 500
GlyphClass: 2
Flags: MW
LayerCount: 2
Fore
SplineSet
340 462 m 0,0,1
 282 462 282 462 246.5 434.5 c 128,-1,2
 211 407 211 407 211 367 c 0,3,4
 211 328 211 328 296 307 c 2,5,-1
 372 288 l 2,6,7
 438 272 438 272 466 245.5 c 128,-1,8
 494 219 494 219 494 173 c 0,9,10
 494 141 494 141 484 111 c 128,-1,11
 474 81 474 81 449.5 50.5 c 128,-1,12
 425 20 425 20 375 0 c 128,-1,13
 325 -20 325 -20 255 -23 c 1,14,-1
 237 -56 l 1,15,16
 250 -54 250 -54 258 -54 c 0,17,18
 286 -54 286 -54 305.5 -69 c 128,-1,19
 325 -84 325 -84 325 -105 c 0,20,21
 325 -152 325 -152 284 -183 c 128,-1,22
 243 -214 243 -214 180 -214 c 0,23,24
 129 -214 129 -214 62 -180 c 1,25,-1
 90 -142 l 1,26,27
 145 -171 145 -171 184 -171 c 0,28,29
 212 -171 212 -171 229.5 -155.5 c 128,-1,30
 247 -140 247 -140 247 -116 c 0,31,32
 247 -107 247 -107 238 -100.5 c 128,-1,33
 229 -94 229 -94 216 -94 c 0,34,35
 213 -94 213 -94 189 -98 c 1,36,-1
 176 -92 l 1,37,-1
 214 -22 l 1,38,39
 61 -2 61 -2 61 105 c 0,40,41
 61 122 61 122 67 156 c 1,42,-1
 156 156 l 1,43,44
 154 136 154 136 154 131 c 0,45,46
 154 94 154 94 182 74 c 128,-1,47
 210 54 210 54 262 54 c 0,48,49
 304 54 304 54 335 66 c 128,-1,50
 366 78 366 78 380 95.5 c 128,-1,51
 394 113 394 113 400 126.5 c 128,-1,52
 406 140 406 140 406 150 c 0,53,54
 406 162 406 162 400.5 172.5 c 128,-1,55
 395 183 395 183 386.5 188.5 c 128,-1,56
 378 194 378 194 368 198.5 c 128,-1,57
 358 203 358 203 349.5 205 c 128,-1,58
 341 207 341 207 335 209 c 2,59,-1
 261 228 l 2,60,61
 184 248 184 248 153.5 273.5 c 128,-1,62
 123 299 123 299 123 345 c 0,63,64
 123 426 123 426 187.5 482.5 c 128,-1,65
 252 539 252 539 356 539 c 0,66,67
 429 539 429 539 475 506.5 c 128,-1,68
 521 474 521 474 521 421 c 0,69,70
 521 407 521 407 514 378 c 1,71,-1
 431 378 l 1,72,-1
 431 400 l 2,73,74
 431 462 431 462 340 462 c 0,0,1
EndSplineSet
Validated: 1
EndChar

StartChar: uni0162
Encoding: 354 354 292
Width: 611
GlyphClass: 2
Flags: MW
LayerCount: 2
Fore
SplineSet
304 -93 m 0,0,1
 302 -93 302 -93 290 -95 c 128,-1,2
 278 -97 278 -97 277 -97 c 1,3,-1
 264 -91 l 1,4,-1
 314 0 l 1,5,-1
 261 0 l 1,6,-1
 399 647 l 1,7,-1
 158 647 l 1,8,-1
 175 729 l 1,9,-1
 748 729 l 1,10,-1
 731 647 l 1,11,-1
 493 647 l 1,12,-1
 355 0 l 1,13,-1
 325 -55 l 1,14,15
 338 -53 338 -53 346 -53 c 0,16,17
 374 -53 374 -53 393.5 -68 c 128,-1,18
 413 -83 413 -83 413 -104 c 0,19,20
 413 -151 413 -151 372 -182 c 128,-1,21
 331 -213 331 -213 268 -213 c 0,22,23
 217 -213 217 -213 150 -179 c 1,24,-1
 178 -141 l 1,25,26
 235 -170 235 -170 272 -170 c 0,27,28
 300 -170 300 -170 317.5 -154.5 c 128,-1,29
 335 -139 335 -139 335 -115 c 0,30,31
 335 -106 335 -106 326 -99.5 c 128,-1,32
 317 -93 317 -93 304 -93 c 0,0,1
EndSplineSet
Validated: 1
EndChar

StartChar: uni0163
Encoding: 355 355 293
Width: 278
GlyphClass: 2
Flags: MW
LayerCount: 2
Fore
SplineSet
136 -110 m 0,0,1
 134 -110 134 -110 122 -112 c 128,-1,2
 110 -114 110 -114 109 -114 c 1,3,-1
 96 -108 l 1,4,-1
 146 -17 l 1,5,6
 97 1 97 1 97 56 c 0,7,8
 97 72 97 72 100 87 c 2,9,-1
 179 457 l 1,10,-1
 108 457 l 1,11,-1
 122 524 l 1,12,-1
 193 524 l 1,13,-1
 224 668 l 1,14,-1
 308 668 l 1,15,-1
 277 524 l 1,16,-1
 366 524 l 1,17,-1
 352 457 l 1,18,-1
 263 457 l 1,19,-1
 185 90 l 2,20,21
 183 78 183 78 183 76 c 0,22,23
 183 64 183 64 193 56.5 c 128,-1,24
 203 49 203 49 219 49 c 0,25,26
 232 49 232 49 267 57 c 1,27,-1
 251 -16 l 1,28,29
 226 -23 226 -23 186 -23 c 0,30,31
 184 -23 l 1,32,-1
 157 -72 l 1,33,34
 170 -70 170 -70 178 -70 c 0,35,36
 206 -70 206 -70 225.5 -85 c 128,-1,37
 245 -100 245 -100 245 -121 c 0,38,39
 245 -168 245 -168 204 -199 c 128,-1,40
 163 -230 163 -230 100 -230 c 0,41,42
 49 -230 49 -230 -18 -196 c 1,43,-1
 10 -158 l 1,44,45
 67 -187 67 -187 104 -187 c 0,46,47
 132 -187 132 -187 149.5 -171.5 c 128,-1,48
 167 -156 167 -156 167 -132 c 0,49,50
 167 -123 167 -123 158 -116.5 c 128,-1,51
 149 -110 149 -110 136 -110 c 0,0,1
EndSplineSet
Validated: 1
EndChar

StartChar: Tbar
Encoding: 358 358 296
Width: 611
GlyphClass: 2
Flags: MW
LayerCount: 2
Fore
SplineSet
118 357 m 1,0,-1
 134 429 l 1,1,-1
 275 429 l 1,2,-1
 321 647 l 1,3,-1
 81 647 l 1,4,-1
 98 729 l 1,5,-1
 670 729 l 1,6,-1
 653 647 l 1,7,-1
 414 647 l 1,8,-1
 368 429 l 1,9,-1
 509 429 l 1,10,-1
 493 357 l 1,11,-1
 353 357 l 1,12,-1
 277 0 l 1,13,-1
 184 0 l 1,14,-1
 260 357 l 1,15,-1
 118 357 l 1,0,-1
EndSplineSet
Validated: 1
EndChar

StartChar: tbar
Encoding: 359 359 297
Width: 278
GlyphClass: 2
Flags: MW
LayerCount: 2
Fore
SplineSet
297 524 m 1,0,-1
 282 456 l 1,1,-1
 196 456 l 1,2,-1
 166 312 l 1,3,-1
 245 312 l 1,4,-1
 229 240 l 1,5,-1
 150 240 l 1,6,-1
 120 97 l 2,7,8
 117 85 117 85 117 76 c 0,9,10
 117 61 117 61 126 55.5 c 128,-1,11
 135 50 135 50 156 50 c 0,12,13
 181 50 181 50 197 54 c 1,14,-1
 182 -16 l 1,15,16
 141 -23 141 -23 113 -23 c 0,17,18
 27 -23 27 -23 27 39 c 0,19,20
 27 46 27 46 29 60 c 2,21,-1
 67 240 l 1,22,-1
 -9 240 l 1,23,-1
 7 312 l 1,24,-1
 82 312 l 1,25,-1
 113 456 l 1,26,-1
 42 456 l 1,27,-1
 57 524 l 1,28,-1
 128 524 l 1,29,-1
 158 668 l 1,30,-1
 241 668 l 1,31,-1
 211 524 l 1,32,-1
 297 524 l 1,0,-1
EndSplineSet
Validated: 1
EndChar

StartChar: Uogonek
Encoding: 370 370 308
Width: 722
GlyphClass: 2
Flags: MW
LayerCount: 2
Fore
SplineSet
366 -23 m 0,0,1
 257 -23 257 -23 190.5 26 c 128,-1,2
 124 75 124 75 124 155 c 0,3,4
 124 185 124 185 138 251 c 2,5,-1
 240 729 l 1,6,-1
 334 729 l 1,7,-1
 225 217 l 2,8,9
 220 190 220 190 220 173 c 0,10,11
 220 121 220 121 264.5 89.5 c 128,-1,12
 309 58 309 58 381 58 c 0,13,14
 466 58 466 58 523.5 100.5 c 128,-1,15
 581 143 581 143 597 217 c 2,16,-1
 706 729 l 1,17,-1
 800 729 l 1,18,-1
 691 217 l 2,19,20
 674 145 674 145 635 96.5 c 128,-1,21
 596 48 596 48 514 -6 c 0,22,23
 476 -31 476 -31 453.5 -61 c 128,-1,24
 431 -91 431 -91 431 -116 c 0,25,26
 431 -136 431 -136 449 -148 c 128,-1,27
 467 -160 467 -160 497 -160 c 0,28,29
 536 -160 536 -160 568 -150 c 1,30,-1
 559 -195 l 1,31,32
 532 -205 532 -205 487 -205 c 0,33,34
 424 -205 424 -205 390 -185 c 128,-1,35
 356 -165 356 -165 356 -127 c 0,36,37
 356 -62 356 -62 453 -13 c 1,38,39
 406 -23 406 -23 366 -23 c 0,0,1
EndSplineSet
Validated: 1
EndChar

StartChar: uogonek
Encoding: 371 371 309
Width: 556
GlyphClass: 2
Flags: MW
LayerCount: 2
Fore
SplineSet
594 524 m 1,0,-1
 483 0 l 1,1,2
 450 -18 450 -18 414 -51.5 c 128,-1,3
 378 -85 378 -85 378 -115 c 0,4,5
 378 -134 378 -134 394 -147 c 128,-1,6
 410 -160 410 -160 433 -160 c 0,7,8
 467 -160 467 -160 495 -150 c 1,9,-1
 486 -195 l 1,10,11
 456 -205 456 -205 419 -205 c 0,12,13
 366 -205 366 -205 335 -184 c 128,-1,14
 304 -163 304 -163 304 -127 c 128,-1,15
 304 -91 304 -91 336 -58 c 128,-1,16
 368 -25 368 -25 427 0 c 1,17,-1
 407 0 l 1,18,-1
 419 57 l 1,19,20
 336 -23 336 -23 226 -23 c 0,21,22
 161 -23 161 -23 124.5 6 c 128,-1,23
 88 35 88 35 88 86 c 0,24,25
 88 105 88 105 91 120 c 2,26,-1
 177 524 l 1,27,-1
 261 524 l 1,28,-1
 182 153 l 2,29,30
 179 138 179 138 179 126 c 0,31,32
 179 91 179 91 203 70 c 128,-1,33
 227 49 227 49 268 49 c 0,34,35
 332 49 332 49 381 97.5 c 128,-1,36
 430 146 430 146 447 227 c 2,37,-1
 510 524 l 1,38,-1
 594 524 l 1,0,-1
EndSplineSet
Validated: 1
EndChar

StartChar: longs
Encoding: 383 383 321
Width: 278
GlyphClass: 2
Flags: MW
LayerCount: 2
Fore
SplineSet
173 0 m 1,0,-1
 89 0 l 1,1,-1
 186 457 l 1,2,-1
 116 457 l 1,3,-1
 130 524 l 1,4,-1
 200 524 l 1,5,-1
 219 613 l 2,6,7
 231 669 231 669 270.5 700.5 c 128,-1,8
 310 732 310 732 368 732 c 0,9,10
 390 732 390 732 413 727 c 1,11,-1
 398 658 l 1,12,13
 384 660 384 660 371 660 c 0,14,15
 339 660 339 660 323 645.5 c 128,-1,16
 307 631 307 631 299 593 c 2,17,-1
 173 0 l 1,0,-1
EndSplineSet
Validated: 1
EndChar

StartChar: uni0180
Encoding: 384 384 322
Width: 556
GlyphClass: 2
Flags: MW
LayerCount: 2
Fore
SplineSet
142 653 m 1,0,-1
 155 729 l 1,1,-1
 238 729 l 1,2,-1
 225 653 l 1,3,-1
 375 653 l 1,4,-1
 366 600 l 1,5,-1
 216 600 l 1,6,-1
 191 461 l 1,7,8
 269 539 269 539 366 539 c 0,9,10
 451 539 451 539 499.5 484.5 c 128,-1,11
 548 430 548 430 548 335 c 0,12,13
 548 299 548 299 541 264 c 0,14,15
 519 134 519 134 443 55.5 c 128,-1,16
 367 -23 367 -23 265 -23 c 0,17,18
 167 -23 167 -23 111 59 c 1,19,-1
 101 0 l 1,20,-1
 27 0 l 1,21,-1
 133 600 l 1,22,-1
 70 600 l 1,23,-1
 79 653 l 1,24,-1
 142 653 l 1,0,-1
150 201 m 0,25,26
 150 135 150 135 180.5 97 c 128,-1,27
 211 59 211 59 266 59 c 0,28,29
 334 59 334 59 385.5 114 c 128,-1,30
 437 169 437 169 453 258 c 0,31,32
 458 282 458 282 458 312 c 0,33,34
 458 379 458 379 425.5 418 c 128,-1,35
 393 457 393 457 336 457 c 0,36,37
 282 457 282 457 242.5 425 c 128,-1,38
 203 393 203 393 184.5 347 c 128,-1,39
 166 301 166 301 158 263.5 c 128,-1,40
 150 226 150 226 150 201 c 0,25,26
EndSplineSet
Validated: 1
EndChar

StartChar: uni0181
Encoding: 385 385 323
Width: 854
GlyphClass: 2
Flags: MW
LayerCount: 2
Fore
SplineSet
526 82 m 2,0,1
 598 82 598 82 642.5 128.5 c 128,-1,2
 687 175 687 175 687 241 c 0,3,4
 687 284 687 284 659.5 308.5 c 128,-1,5
 632 333 632 333 579 333 c 2,6,-1
 352 333 l 1,7,-1
 299 82 l 1,8,-1
 526 82 l 2,0,1
724 561 m 0,9,10
 724 611 724 611 690.5 629 c 128,-1,11
 657 647 657 647 599 647 c 2,12,-1
 419 647 l 1,13,-1
 370 415 l 1,14,-1
 550 415 l 2,15,16
 600 415 600 415 636 428.5 c 128,-1,17
 672 442 672 442 690 465 c 128,-1,18
 708 488 708 488 716 511.5 c 128,-1,19
 724 535 724 535 724 561 c 0,9,10
91 539 m 0,20,21
 91 571 91 571 98.5 601.5 c 128,-1,22
 106 632 106 632 123.5 662 c 128,-1,23
 141 692 141 692 175.5 710.5 c 128,-1,24
 210 729 210 729 258 729 c 2,25,-1
 639 729 l 2,26,27
 693 729 693 729 731.5 715 c 128,-1,28
 770 701 770 701 788 677.5 c 128,-1,29
 806 654 806 654 813.5 631.5 c 128,-1,30
 821 609 821 609 821 585 c 0,31,32
 821 540 821 540 805 502.5 c 128,-1,33
 789 465 789 465 763.5 441.5 c 128,-1,34
 738 418 738 418 718.5 405.5 c 128,-1,35
 699 393 699 393 681 385 c 1,36,37
 782 343 782 343 782 255 c 0,38,39
 782 204 782 204 757.5 151.5 c 128,-1,40
 733 99 733 99 689 61 c 0,41,42
 619 0 619 0 518 0 c 2,43,-1
 189 0 l 1,44,-1
 325 642 l 1,45,-1
 243 642 l 2,46,47
 214 642 214 642 197 620.5 c 128,-1,48
 180 599 180 599 180 569 c 0,49,50
 180 531 180 531 224 531 c 0,51,52
 226 531 226 531 234.5 531.5 c 128,-1,53
 243 532 243 532 254 532 c 1,54,-1
 237 453 l 1,55,56
 212 448 212 448 189 448 c 0,57,58
 136 448 136 448 113.5 475.5 c 128,-1,59
 91 503 91 503 91 539 c 0,20,21
EndSplineSet
Validated: 1
EndChar

StartChar: uni0183
Encoding: 387 387 325
Width: 556
GlyphClass: 2
Flags: MW
LayerCount: 2
Fore
SplineSet
230 55 m 0,0,1
 287 55 287 55 328.5 87 c 128,-1,2
 370 119 370 119 389 166 c 128,-1,3
 408 213 408 213 416 250 c 128,-1,4
 424 287 424 287 424 314 c 0,5,6
 424 383 424 383 392 422 c 128,-1,7
 360 461 360 461 302 461 c 0,8,9
 265 461 265 461 234 445.5 c 128,-1,10
 203 430 203 430 183.5 405 c 128,-1,11
 164 380 164 380 150 351 c 128,-1,12
 136 322 136 322 128.5 291 c 128,-1,13
 121 260 121 260 118 237.5 c 128,-1,14
 115 215 115 215 115 199 c 0,15,16
 115 132 115 132 145.5 93.5 c 128,-1,17
 176 55 176 55 230 55 c 0,0,1
514 339 m 0,18,19
 514 311 514 311 507.5 272 c 128,-1,20
 501 233 501 233 482 179.5 c 128,-1,21
 463 126 463 126 433 82.5 c 128,-1,22
 403 39 403 39 350 8 c 128,-1,23
 297 -23 297 -23 229 -23 c 0,24,25
 122 -23 122 -23 79 67 c 1,26,-1
 67 0 l 1,27,-1
 -8 0 l 1,28,-1
 120 729 l 1,29,-1
 511 729 l 1,30,-1
 498 656 l 1,31,-1
 190 656 l 1,32,-1
 155 453 l 1,33,34
 226 539 226 539 332 539 c 0,35,36
 419 539 419 539 466.5 486 c 128,-1,37
 514 433 514 433 514 339 c 0,18,19
EndSplineSet
Validated: 1
EndChar

StartChar: uni0184
Encoding: 388 388 326
Width: 667
GlyphClass: 2
Flags: MW
LayerCount: 2
Fore
SplineSet
334 82 m 2,0,1
 375 82 375 82 407.5 96.5 c 128,-1,2
 440 111 440 111 458.5 132 c 128,-1,3
 477 153 477 153 488.5 178.5 c 128,-1,4
 500 204 500 204 504 223 c 128,-1,5
 508 242 508 242 508 255 c 0,6,7
 508 306 508 306 475 337.5 c 128,-1,8
 442 369 442 369 385 369 c 2,9,-1
 173 369 l 1,10,-1
 122 82 l 1,11,-1
 334 82 l 2,0,1
203 539 m 1,12,-1
 187 451 l 1,13,-1
 352 451 l 2,14,15
 603 451 603 451 603 276 c 0,16,17
 603 249 603 249 599 226 c 0,18,19
 581 127 581 127 505 63.5 c 128,-1,20
 429 0 429 0 329 0 c 2,21,-1
 15 0 l 1,22,-1
 99 477 l 1,23,-1
 11 425 l 1,24,-1
 24 502 l 1,25,-1
 112 554 l 1,26,-1
 143 729 l 1,27,-1
 236 729 l 1,28,-1
 216 616 l 1,29,-1
 408 729 l 1,30,-1
 395 653 l 1,31,-1
 203 539 l 1,12,-1
EndSplineSet
Validated: 1
EndChar

StartChar: uni0185
Encoding: 389 389 327
Width: 556
GlyphClass: 2
Flags: MW
LayerCount: 2
Fore
SplineSet
230 55 m 0,0,1
 287 55 287 55 328.5 87 c 128,-1,2
 370 119 370 119 389 166 c 128,-1,3
 408 213 408 213 416 250 c 128,-1,4
 424 287 424 287 424 314 c 0,5,6
 424 383 424 383 392 422 c 128,-1,7
 360 461 360 461 302 461 c 0,8,9
 265 461 265 461 234 445.5 c 128,-1,10
 203 430 203 430 183.5 405 c 128,-1,11
 164 380 164 380 150 351 c 128,-1,12
 136 322 136 322 128.5 291 c 128,-1,13
 121 260 121 260 118 237.5 c 128,-1,14
 115 215 115 215 115 199 c 0,15,16
 115 132 115 132 145.5 93.5 c 128,-1,17
 176 55 176 55 230 55 c 0,0,1
514 339 m 0,18,19
 514 311 514 311 507.5 272 c 128,-1,20
 501 233 501 233 482 179.5 c 128,-1,21
 463 126 463 126 433 82.5 c 128,-1,22
 403 39 403 39 350 8 c 128,-1,23
 297 -23 297 -23 229 -23 c 0,24,25
 122 -23 122 -23 79 67 c 1,26,-1
 67 0 l 1,27,-1
 -8 0 l 1,28,-1
 88 543 l 1,29,-1
 16 493 l 1,30,-1
 27 557 l 1,31,-1
 99 607 l 1,32,-1
 120 729 l 1,33,-1
 203 729 l 1,34,-1
 190 651 l 1,35,-1
 265 702 l 1,36,-1
 253 638 l 1,37,-1
 178 587 l 1,38,-1
 155 453 l 1,39,40
 226 539 226 539 332 539 c 0,41,42
 419 539 419 539 466.5 486 c 128,-1,43
 514 433 514 433 514 339 c 0,18,19
EndSplineSet
Validated: 1
EndChar

StartChar: uni0187
Encoding: 391 391 329
Width: 722
GlyphClass: 2
Flags: MW
LayerCount: 2
Fore
SplineSet
39 264 m 0,0,1
 39 290 39 290 43.5 323.5 c 128,-1,2
 48 357 48 357 60 404 c 128,-1,3
 72 451 72 451 91 496 c 128,-1,4
 110 541 110 541 142.5 586 c 128,-1,5
 175 631 175 631 216 665 c 128,-1,6
 257 699 257 699 317 720 c 128,-1,7
 377 741 377 741 448 741 c 0,8,9
 587 741 587 741 644 662 c 1,10,11
 686 721 686 721 766 721 c 0,12,13
 790 721 790 721 812 716 c 1,14,-1
 798 637 l 1,15,16
 779 638 779 638 769 638 c 0,17,18
 711 638 711 638 702 585 c 2,19,-1
 687 503 l 1,20,-1
 592 503 l 1,21,22
 590 576 590 576 553.5 617.5 c 128,-1,23
 517 659 517 659 423 659 c 0,24,25
 354 659 354 659 299.5 626.5 c 128,-1,26
 245 594 245 594 215 548 c 128,-1,27
 185 502 185 502 165 445.5 c 128,-1,28
 145 389 145 389 139 347.5 c 128,-1,29
 133 306 133 306 133 276 c 0,30,31
 133 174 133 174 183.5 116.5 c 128,-1,32
 234 59 234 59 325 59 c 0,33,34
 424 59 424 59 478.5 115 c 128,-1,35
 533 171 533 171 565 266 c 1,36,-1
 661 266 l 1,37,38
 577 -23 577 -23 310 -23 c 0,39,40
 255 -23 255 -23 210.5 -9.5 c 128,-1,41
 166 4 166 4 137.5 27.5 c 128,-1,42
 109 51 109 51 88.5 79 c 128,-1,43
 68 107 68 107 58 141 c 128,-1,44
 48 175 48 175 43.5 204.5 c 128,-1,45
 39 234 39 234 39 264 c 0,0,1
EndSplineSet
Validated: 1
EndChar

StartChar: uni0188
Encoding: 392 392 330
Width: 500
GlyphClass: 2
Flags: MW
LayerCount: 2
Fore
SplineSet
297 462 m 0,0,1
 242 462 242 462 202 428.5 c 128,-1,2
 162 395 162 395 143.5 346.5 c 128,-1,3
 125 298 125 298 117.5 259 c 128,-1,4
 110 220 110 220 110 193 c 0,5,6
 110 127 110 127 140.5 90.5 c 128,-1,7
 171 54 171 54 228 54 c 0,8,9
 334 54 334 54 378 180 c 1,10,-1
 462 180 l 1,11,12
 437 84 437 84 371.5 30.5 c 128,-1,13
 306 -23 306 -23 212 -23 c 0,14,15
 122 -23 122 -23 72 31 c 128,-1,16
 22 85 22 85 22 181 c 0,17,18
 22 217 22 217 29 253 c 0,19,20
 51 383 51 383 128.5 461 c 128,-1,21
 206 539 206 539 312 539 c 0,22,23
 396 539 396 539 444 494 c 1,24,25
 480 556 480 556 562 556 c 0,26,27
 586 556 586 556 608 551 c 1,28,-1
 596 482 l 1,29,30
 577 483 577 483 567 483 c 0,31,32
 509 483 509 483 500 430 c 2,33,-1
 485 348 l 1,34,-1
 401 348 l 1,35,36
 401 350 401 350 401.5 352 c 128,-1,37
 402 354 402 354 402 356 c 0,38,39
 402 407 402 407 375 434.5 c 128,-1,40
 348 462 348 462 297 462 c 0,0,1
EndSplineSet
Validated: 1
EndChar

StartChar: uni018A
Encoding: 394 394 332
Width: 899
GlyphClass: 2
Flags: MW
LayerCount: 2
Fore
SplineSet
299 82 m 1,0,-1
 471 82 l 2,1,2
 579 82 579 82 650.5 154 c 128,-1,3
 722 226 722 226 751 364 c 0,4,5
 763 422 763 422 763 469 c 0,6,7
 763 647 763 647 591 647 c 2,8,-1
 419 647 l 1,9,-1
 299 82 l 1,0,-1
91 539 m 0,10,11
 91 571 91 571 98.5 601.5 c 128,-1,12
 106 632 106 632 123.5 662 c 128,-1,13
 141 692 141 692 175.5 710.5 c 128,-1,14
 210 729 210 729 258 729 c 2,15,-1
 624 729 l 2,16,17
 737 729 737 729 797.5 664.5 c 128,-1,18
 858 600 858 600 858 483 c 0,19,20
 858 459 858 459 854 425.5 c 128,-1,21
 850 392 850 392 838.5 345 c 128,-1,22
 827 298 827 298 809 252 c 128,-1,23
 791 206 791 206 760.5 159.5 c 128,-1,24
 730 113 730 113 691 78.5 c 128,-1,25
 652 44 652 44 595 22 c 128,-1,26
 538 0 538 0 470 0 c 2,27,-1
 189 0 l 1,28,-1
 325 642 l 1,29,-1
 243 642 l 2,30,31
 214 642 214 642 197 620.5 c 128,-1,32
 180 599 180 599 180 569 c 0,33,34
 180 531 180 531 224 531 c 0,35,36
 226 531 226 531 234.5 531.5 c 128,-1,37
 243 532 243 532 254 532 c 1,38,-1
 237 453 l 1,39,40
 212 448 212 448 189 448 c 0,41,42
 136 448 136 448 113.5 475.5 c 128,-1,43
 91 503 91 503 91 539 c 0,10,11
EndSplineSet
Validated: 1
EndChar

StartChar: uni018B
Encoding: 395 395 333
Width: 667
GlyphClass: 2
Flags: MW
LayerCount: 2
Fore
SplineSet
362 435 m 2,0,-1
 542 435 l 1,1,-1
 580 647 l 1,2,-1
 184 647 l 1,3,-1
 198 729 l 1,4,-1
 687 729 l 1,5,-1
 559 0 l 1,6,-1
 230 0 l 2,7,8
 175 0 175 0 137 16.5 c 128,-1,9
 99 33 99 33 81 60.5 c 128,-1,10
 63 88 63 88 56 115 c 128,-1,11
 49 142 49 142 49 173 c 0,12,13
 49 220 49 220 63.5 263 c 128,-1,14
 78 306 78 306 111 346.5 c 128,-1,15
 144 387 144 387 208.5 411 c 128,-1,16
 273 435 273 435 362 435 c 2,0,-1
143 187 m 0,17,18
 143 82 143 82 253 82 c 2,19,-1
 480 82 l 1,20,-1
 528 353 l 1,21,-1
 301 353 l 2,22,23
 229 353 229 353 186 306 c 128,-1,24
 143 259 143 259 143 187 c 0,17,18
EndSplineSet
Validated: 1
EndChar

StartChar: uni018C
Encoding: 396 396 334
Width: 556
GlyphClass: 2
Flags: MW
LayerCount: 2
Fore
SplineSet
119 202 m 0,0,1
 119 135 119 135 151.5 95 c 128,-1,2
 184 55 184 55 241 55 c 0,3,4
 286 55 286 55 321.5 77.5 c 128,-1,5
 357 100 357 100 376.5 132 c 128,-1,6
 396 164 396 164 408.5 203 c 128,-1,7
 421 242 421 242 425 270 c 128,-1,8
 429 298 429 298 429 317 c 0,9,10
 429 384 429 384 398.5 422.5 c 128,-1,11
 368 461 368 461 313 461 c 0,12,13
 269 461 269 461 233.5 439 c 128,-1,14
 198 417 198 417 177.5 385 c 128,-1,15
 157 353 157 353 143 315.5 c 128,-1,16
 129 278 129 278 124 249.5 c 128,-1,17
 119 221 119 221 119 202 c 0,0,1
311 539 m 0,18,19
 416 539 416 539 458 453 c 1,20,-1
 493 656 l 1,21,-1
 185 656 l 1,22,-1
 198 729 l 1,23,-1
 589 729 l 1,24,-1
 461 0 l 1,25,-1
 386 0 l 1,26,-1
 398 67 l 1,27,28
 323 -23 323 -23 216 -23 c 0,29,30
 129 -23 129 -23 80 33 c 128,-1,31
 31 89 31 89 31 187 c 0,32,33
 31 335 31 335 110.5 437 c 128,-1,34
 190 539 190 539 311 539 c 0,18,19
EndSplineSet
Validated: 1
EndChar

StartChar: uni018E
Encoding: 398 398 336
Width: 667
GlyphClass: 2
Flags: MW
LayerCount: 2
Fore
SplineSet
572 332 m 1,0,-1
 177 332 l 1,1,-1
 194 414 l 1,2,-1
 590 414 l 1,3,-1
 639 647 l 1,4,-1
 227 647 l 1,5,-1
 245 729 l 1,6,-1
 751 729 l 1,7,-1
 596 0 l 1,8,-1
 73 0 l 1,9,-1
 91 82 l 1,10,-1
 520 82 l 1,11,-1
 572 332 l 1,0,-1
EndSplineSet
Validated: 1
EndChar

StartChar: uni018F
Encoding: 399 399 337
Width: 778
GlyphClass: 2
Flags: MW
LayerCount: 2
Fore
SplineSet
105 272 m 0,0,1
 105 341 105 341 119 385 c 1,2,-1
 728 385 l 1,3,4
 730 417 730 417 730 432 c 0,5,6
 730 538 730 538 673.5 598.5 c 128,-1,7
 617 659 617 659 517 659 c 0,8,9
 424 659 424 659 348 603.5 c 128,-1,10
 272 548 272 548 232 452 c 1,11,-1
 138 452 l 1,12,13
 186 585 186 585 291.5 663 c 128,-1,14
 397 741 397 741 531 741 c 0,15,16
 669 741 669 741 746.5 662 c 128,-1,17
 824 583 824 583 824 446 c 0,18,19
 824 250 824 250 701 113.5 c 128,-1,20
 578 -23 578 -23 398 -23 c 0,21,22
 262 -23 262 -23 183.5 57 c 128,-1,23
 105 137 105 137 105 272 c 0,0,1
711 303 m 1,24,-1
 199 303 l 1,25,-1
 199 288 l 2,26,27
 199 182 199 182 256 120.5 c 128,-1,28
 313 59 313 59 412 59 c 0,29,30
 515 59 515 59 596 125.5 c 128,-1,31
 677 192 677 192 711 303 c 1,24,-1
EndSplineSet
Validated: 1
EndChar

StartChar: uni0190
Encoding: 400 400 338
Width: 667
GlyphClass: 2
Flags: MW
LayerCount: 2
Fore
SplineSet
383 663 m 0,0,1
 328 663 328 663 288 646 c 128,-1,2
 248 629 248 629 230 604.5 c 128,-1,3
 212 580 212 580 204.5 560.5 c 128,-1,4
 197 541 197 541 197 527 c 0,5,6
 197 482 197 482 235.5 442.5 c 128,-1,7
 274 403 274 403 332 403 c 2,8,-1
 420 403 l 1,9,-1
 405 321 l 1,10,-1
 297 321 l 2,11,12
 234 321 234 321 172 277 c 128,-1,13
 110 233 110 233 110 171 c 0,14,15
 110 59 110 59 274 59 c 0,16,17
 296 59 296 59 317 61 c 128,-1,18
 338 63 338 63 372 73 c 128,-1,19
 406 83 406 83 432 100 c 128,-1,20
 458 117 458 117 481 151.5 c 128,-1,21
 504 186 504 186 511 232 c 1,22,-1
 599 232 l 1,23,24
 586 162 586 162 551.5 111 c 128,-1,25
 517 60 517 60 480.5 35.5 c 128,-1,26
 444 11 444 11 396.5 -3.5 c 128,-1,27
 349 -18 349 -18 322 -20.5 c 128,-1,28
 295 -23 295 -23 266 -23 c 0,29,30
 205 -23 205 -23 159 -10.5 c 128,-1,31
 113 2 113 2 86.5 21 c 128,-1,32
 60 40 60 40 44 66.5 c 128,-1,33
 28 93 28 93 22.5 116 c 128,-1,34
 17 139 17 139 17 165 c 0,35,36
 17 230 17 230 57.5 287.5 c 128,-1,37
 98 345 98 345 181 374 c 1,38,39
 99 411 99 411 99 493 c 0,40,41
 99 598 99 598 182.5 669.5 c 128,-1,42
 266 741 266 741 399 741 c 0,43,44
 511 741 511 741 571 694.5 c 128,-1,45
 631 648 631 648 631 562 c 0,46,47
 631 547 631 547 627 515 c 1,48,-1
 539 515 l 1,49,50
 541 537 541 537 541 545 c 0,51,52
 541 602 541 602 500.5 632.5 c 128,-1,53
 460 663 460 663 383 663 c 0,0,1
EndSplineSet
Validated: 1
EndChar

StartChar: uni0191
Encoding: 401 401 339
Width: 611
GlyphClass: 2
Flags: MW
LayerCount: 2
Fore
SplineSet
20 -76 m 2,0,-1
 191 729 l 1,1,-1
 680 729 l 1,2,-1
 662 647 l 1,3,-1
 266 647 l 1,4,-1
 217 414 l 1,5,-1
 565 414 l 1,6,-1
 547 332 l 1,7,-1
 199 332 l 1,8,-1
 106 -109 l 2,9,10
 94 -162 94 -162 47 -190 c 128,-1,11
 0 -218 0 -218 -71 -218 c 0,12,13
 -83 -218 -83 -218 -98 -215 c 1,14,-1
 -81 -134 l 1,15,16
 -64 -135 -64 -135 -61 -135 c 0,17,18
 7 -135 7 -135 20 -76 c 2,0,-1
EndSplineSet
Validated: 1
EndChar

StartChar: florin
Encoding: 402 402 340
Width: 278
GlyphClass: 2
Flags: MW
LayerCount: 2
Fore
SplineSet
370 524 m 1,0,-1
 356 457 l 1,1,-1
 270 457 l 1,2,-1
 150 -109 l 2,3,4
 136 -171 136 -171 98 -194.5 c 128,-1,5
 60 -218 60 -218 -26 -218 c 0,6,7
 -34 -218 -34 -218 -45 -215 c 1,8,-1
 -30 -144 l 1,9,10
 -12 -146 -12 -146 -5 -146 c 0,11,12
 33 -146 33 -146 48.5 -132 c 128,-1,13
 64 -118 64 -118 73 -76 c 2,14,-1
 186 457 l 1,15,-1
 116 457 l 1,16,-1
 130 524 l 1,17,-1
 200 524 l 1,18,-1
 219 613 l 2,19,20
 231 669 231 669 270.5 700.5 c 128,-1,21
 310 732 310 732 368 732 c 0,22,23
 390 732 390 732 413 727 c 1,24,-1
 398 658 l 1,25,26
 384 660 384 660 371 660 c 0,27,28
 339 660 339 660 323 645.5 c 128,-1,29
 307 631 307 631 299 593 c 2,30,-1
 284 524 l 1,31,-1
 370 524 l 1,0,-1
EndSplineSet
Validated: 1
EndChar

StartChar: uni0193
Encoding: 403 403 341
Width: 778
GlyphClass: 2
Flags: MW
LayerCount: 2
Fore
SplineSet
131 290 m 0,0,1
 131 221 131 221 152 172 c 128,-1,2
 173 123 173 123 207.5 100 c 128,-1,3
 242 77 242 77 275 68 c 128,-1,4
 308 59 308 59 345 59 c 0,5,6
 445 59 445 59 521 122.5 c 128,-1,7
 597 186 597 186 614 283 c 2,8,-1
 617 303 l 1,9,-1
 395 303 l 1,10,-1
 410 385 l 1,11,-1
 714 385 l 1,12,-1
 645 -4 l 1,13,-1
 586 -4 l 1,14,-1
 580 93 l 1,15,16
 455 -23 455 -23 311 -23 c 0,17,18
 184 -23 184 -23 110 56.5 c 128,-1,19
 36 136 36 136 36 269 c 0,20,21
 36 393 36 393 88 500 c 128,-1,22
 140 607 140 607 239 674 c 128,-1,23
 338 741 338 741 461 741 c 0,24,25
 607 741 607 741 677 659 c 1,26,27
 718 726 718 726 804 726 c 0,28,29
 828 726 828 726 850 721 c 1,30,-1
 836 642 l 1,31,32
 817 643 817 643 807 643 c 0,33,34
 749 643 749 643 740 590 c 2,35,-1
 725 508 l 1,36,-1
 630 508 l 1,37,38
 628 578 628 578 578.5 618.5 c 128,-1,39
 529 659 529 659 446 659 c 0,40,41
 330 659 330 659 245.5 577.5 c 128,-1,42
 161 496 161 496 138 362 c 0,43,44
 131 327 131 327 131 290 c 0,0,1
EndSplineSet
Validated: 1
EndChar

StartChar: uni0194
Encoding: 404 404 342
Width: 667
GlyphClass: 2
Flags: MW
LayerCount: 2
Fore
SplineSet
379 194 m 1,0,1
 326 124 326 124 326 93 c 0,2,3
 326 67 326 67 351 67 c 0,4,5
 366 67 366 67 377.5 80.5 c 128,-1,6
 389 94 389 94 389 126 c 128,-1,7
 389 158 389 158 379 194 c 1,0,1
231 81 m 0,8,9
 231 113 231 113 252 150.5 c 128,-1,10
 273 188 273 188 349 286 c 1,11,-1
 162 729 l 1,12,-1
 277 729 l 1,13,-1
 416 374 l 1,14,-1
 699 729 l 1,15,-1
 810 729 l 1,16,-1
 442 286 l 1,17,18
 485 209 485 209 485 139 c 0,19,20
 485 79 485 79 440.5 26 c 128,-1,21
 396 -27 396 -27 331 -27 c 0,22,23
 277 -27 277 -27 254 6.5 c 128,-1,24
 231 40 231 40 231 81 c 0,8,9
EndSplineSet
Validated: 1
EndChar

StartChar: uni0195
Encoding: 405 405 343
Width: 889
GlyphClass: 2
Flags: MW
LayerCount: 2
Fore
SplineSet
896 298 m 0,0,1
 896 252 896 252 871 197 c 128,-1,2
 846 142 846 142 804 92.5 c 128,-1,3
 762 43 762 43 696.5 10 c 128,-1,4
 631 -23 631 -23 559 -23 c 2,5,-1
 504 -23 l 2,6,7
 418 -23 418 -23 418 39 c 0,8,9
 418 50 418 50 421 60 c 2,10,-1
 485 363 l 2,11,12
 488 378 488 378 488 390 c 0,13,14
 488 431 488 431 461 448.5 c 128,-1,15
 434 466 434 466 399 466 c 0,16,17
 335 466 335 466 285.5 417.5 c 128,-1,18
 236 369 236 369 219 289 c 2,19,-1
 158 0 l 1,20,-1
 75 0 l 1,21,-1
 230 729 l 1,22,-1
 313 729 l 1,23,-1
 254 452 l 1,24,25
 301 500 301 500 343 519.5 c 128,-1,26
 385 539 385 539 441 539 c 0,27,28
 507 539 507 539 543 510 c 128,-1,29
 579 481 579 481 579 430 c 0,30,31
 579 412 579 412 575 396 c 2,32,-1
 512 97 l 2,33,34
 511 94 511 94 511 87 c 0,35,36
 511 50 511 50 575 50 c 0,37,38
 673 50 673 50 740 131 c 128,-1,39
 807 212 807 212 807 297 c 0,40,41
 807 399 807 399 723 467 c 1,42,-1
 826 471 l 1,43,44
 859 441 859 441 877.5 394 c 128,-1,45
 896 347 896 347 896 298 c 0,0,1
EndSplineSet
Validated: 1
EndChar

StartChar: uni0196
Encoding: 406 406 344
Width: 278
GlyphClass: 2
Flags: MW
LayerCount: 2
Fore
SplineSet
309 729 m 1,0,-1
 175 97 l 2,1,2
 172 85 172 85 172 76 c 0,3,4
 172 61 172 61 181 55.5 c 128,-1,5
 190 50 190 50 211 50 c 0,6,7
 236 50 236 50 251 54 c 1,8,-1
 237 -16 l 1,9,10
 196 -23 196 -23 167 -23 c 0,11,12
 81 -23 81 -23 81 39 c 0,13,14
 81 50 81 50 84 60 c 2,15,-1
 226 729 l 1,16,-1
 309 729 l 1,0,-1
EndSplineSet
Validated: 1
EndChar

StartChar: uni0197
Encoding: 407 407 345
Width: 333
GlyphClass: 2
Flags: MW
LayerCount: 2
Fore
SplineSet
114 339 m 1,0,-1
 -5 339 l 1,1,-1
 9 406 l 1,2,-1
 128 406 l 1,3,-1
 196 729 l 1,4,-1
 290 729 l 1,5,-1
 222 406 l 1,6,-1
 342 406 l 1,7,-1
 328 339 l 1,8,-1
 208 339 l 1,9,-1
 136 0 l 1,10,-1
 42 0 l 1,11,-1
 114 339 l 1,0,-1
EndSplineSet
Validated: 1
EndChar

StartChar: uni0198
Encoding: 408 408 346
Width: 741
GlyphClass: 2
Flags: MW
LayerCount: 2
Fore
SplineSet
635 521 m 1,0,1
 654 535 654 535 662 541.5 c 128,-1,2
 670 548 670 548 679 561 c 128,-1,3
 688 574 688 574 688 587 c 0,4,5
 688 606 688 606 673 622.5 c 128,-1,6
 658 639 658 639 641 639 c 0,7,8
 623 639 623 639 603 622 c 2,9,-1
 372 432 l 1,10,-1
 581 0 l 1,11,-1
 471 0 l 1,12,-1
 293 374 l 1,13,-1
 149 255 l 1,14,-1
 95 0 l 1,15,-1
 2 0 l 1,16,-1
 156 729 l 1,17,-1
 249 729 l 1,18,-1
 171 360 l 1,19,-1
 560 686 l 2,20,21
 614 729 614 729 665 729 c 0,22,23
 713 729 713 729 746.5 686 c 128,-1,24
 780 643 780 643 780 601 c 0,25,26
 780 521 780 521 679 465 c 1,27,-1
 635 521 l 1,0,1
EndSplineSet
Validated: 1
EndChar

StartChar: uni0199
Encoding: 409 409 347
Width: 500
GlyphClass: 2
Flags: MW
LayerCount: 2
Fore
SplineSet
-7 0 m 1,0,-1
 102 613 l 2,1,2
 112 669 112 669 150 700.5 c 128,-1,3
 188 732 188 732 246 732 c 0,4,5
 268 732 268 732 292 727 c 1,6,-1
 279 658 l 1,7,8
 261 659 261 659 251 659 c 0,9,10
 192 659 192 659 183 606 c 2,11,-1
 130 302 l 1,12,-1
 391 524 l 1,13,-1
 498 524 l 1,14,-1
 284 343 l 1,15,-1
 437 0 l 1,16,-1
 334 0 l 1,17,-1
 208 284 l 1,18,-1
 112 204 l 1,19,-1
 76 0 l 1,20,-1
 -7 0 l 1,0,-1
EndSplineSet
Validated: 1
EndChar

StartChar: uni019A
Encoding: 410 410 348
Width: 333
GlyphClass: 2
Flags: MW
LayerCount: 2
Fore
SplineSet
196 339 m 1,0,-1
 72 339 l 1,1,-1
 86 406 l 1,2,-1
 210 406 l 1,3,-1
 278 729 l 1,4,-1
 362 729 l 1,5,-1
 294 406 l 1,6,-1
 419 406 l 1,7,-1
 405 339 l 1,8,-1
 280 339 l 1,9,-1
 208 0 l 1,10,-1
 124 0 l 1,11,-1
 196 339 l 1,0,-1
EndSplineSet
Validated: 1
EndChar

StartChar: uni019B
Encoding: 411 411 349
Width: 560
GlyphClass: 2
Flags: MW
LayerCount: 2
Fore
SplineSet
210 732 m 0,0,1
 252 732 252 732 277.5 714 c 128,-1,2
 303 696 303 696 321 643 c 1,3,-1
 477 738 l 1,4,-1
 461 662 l 1,5,-1
 334 585 l 1,6,-1
 416 92 l 2,7,8
 421 73 421 73 440 73 c 0,9,10
 445 73 445 73 459 77 c 128,-1,11
 473 81 473 81 476 84 c 1,12,-1
 482 14 l 1,13,14
 428 -10 428 -10 396 -10 c 0,15,16
 371 -10 371 -10 357 2 c 128,-1,17
 343 14 343 14 339 27.5 c 128,-1,18
 335 41 335 41 331 68 c 2,19,-1
 284 422 l 1,20,-1
 49 2 l 1,21,-1
 -47 2 l 1,22,-1
 262 522 l 1,23,-1
 259 540 l 1,24,-1
 67 424 l 1,25,-1
 83 501 l 1,26,27
 88 501 88 501 248 599 c 1,28,29
 238 628 238 628 221.5 637 c 128,-1,30
 205 646 205 646 180 646 c 1,31,-1
 124 638 l 1,32,-1
 152 720 l 1,33,34
 186 732 186 732 210 732 c 0,0,1
EndSplineSet
Validated: 1
EndChar

StartChar: uni019C
Encoding: 412 412 350
Width: 833
GlyphClass: 2
Flags: MW
LayerCount: 2
Fore
SplineSet
767 0 m 1,0,-1
 684 0 l 1,1,-1
 700 74 l 1,2,3
 655 26 655 26 613.5 5.5 c 128,-1,4
 572 -15 572 -15 520 -15 c 0,5,6
 469 -15 469 -15 439.5 4 c 128,-1,7
 410 23 410 23 396 65 c 1,8,9
 349 21 349 21 309.5 3 c 128,-1,10
 270 -15 270 -15 218 -15 c 0,11,12
 155 -15 155 -15 121 12.5 c 128,-1,13
 87 40 87 40 87 92 c 0,14,15
 87 112 87 112 91 131 c 2,16,-1
 218 729 l 1,17,-1
 313 729 l 1,18,-1
 195 174 l 2,19,20
 191 157 191 157 191 139 c 0,21,22
 191 69 191 69 265 69 c 0,23,24
 316 69 316 69 358 109 c 128,-1,25
 400 149 400 149 412 206 c 2,26,-1
 523 729 l 1,27,-1
 618 729 l 1,28,-1
 500 174 l 2,29,30
 496 157 496 157 496 137 c 0,31,32
 496 69 496 69 569 69 c 0,33,34
 620 69 620 69 662 109 c 128,-1,35
 704 149 704 149 716 206 c 2,36,-1
 827 729 l 1,37,-1
 922 729 l 1,38,-1
 767 0 l 1,0,-1
EndSplineSet
Validated: 1
EndChar

StartChar: uni019D
Encoding: 413 413 351
Width: 722
GlyphClass: 2
Flags: MW
LayerCount: 2
Fore
SplineSet
18 -76 m 2,0,-1
 159 729 l 1,1,-1
 260 729 l 1,2,-1
 536 133 l 1,3,-1
 641 729 l 1,4,-1
 729 729 l 1,5,-1
 601 0 l 1,6,-1
 496 0 l 1,7,-1
 223 591 l 1,8,-1
 100 -109 l 2,9,10
 90 -162 90 -162 47 -190 c 128,-1,11
 4 -218 4 -218 -67 -218 c 0,12,13
 -80 -218 -80 -218 -95 -215 c 1,14,-1
 -82 -139 l 1,15,16
 -65 -140 -65 -140 -62 -140 c 0,17,18
 6 -140 6 -140 18 -76 c 2,0,-1
EndSplineSet
Validated: 1
EndChar

StartChar: uni019E
Encoding: 414 414 352
Width: 556
GlyphClass: 2
Flags: MW
LayerCount: 2
Fore
SplineSet
133 524 m 1,0,-1
 210 524 l 1,1,-1
 194 436 l 1,2,3
 238 491 238 491 283 515 c 128,-1,4
 328 539 328 539 386 539 c 0,5,6
 453 539 453 539 491 508.5 c 128,-1,7
 529 478 529 478 529 424 c 0,8,9
 529 406 529 406 527 396 c 2,10,-1
 422 -200 l 1,11,-1
 339 -200 l 1,12,-1
 438 363 l 2,13,14
 440 379 440 379 440 385 c 0,15,16
 440 423 440 423 415.5 444.5 c 128,-1,17
 391 466 391 466 348 466 c 0,18,19
 284 466 284 466 236.5 417.5 c 128,-1,20
 189 369 189 369 175 289 c 2,21,-1
 124 0 l 1,22,-1
 40 0 l 1,23,-1
 133 524 l 1,0,-1
EndSplineSet
Validated: 1
EndChar

StartChar: uni019F
Encoding: 415 415 353
Width: 778
GlyphClass: 2
Flags: MW
LayerCount: 2
Fore
SplineSet
749 446 m 0,0,1
 749 250 749 250 626 113.5 c 128,-1,2
 503 -23 503 -23 323 -23 c 0,3,4
 187 -23 187 -23 108.5 57 c 128,-1,5
 30 137 30 137 30 272 c 0,6,7
 30 311 30 311 38 359 c 0,8,9
 68 530 68 530 183.5 635.5 c 128,-1,10
 299 741 299 741 456 741 c 0,11,12
 594 741 594 741 671.5 662 c 128,-1,13
 749 583 749 583 749 446 c 0,0,1
653 385 m 1,14,15
 655 417 655 417 655 432 c 0,16,17
 655 538 655 538 598.5 598.5 c 128,-1,18
 542 659 542 659 442 659 c 0,19,20
 333 659 333 659 249.5 584 c 128,-1,21
 166 509 166 509 137 385 c 1,22,-1
 653 385 l 1,14,15
639 315 m 1,23,-1
 125 315 l 1,24,25
 125 310 125 310 124.5 300.5 c 128,-1,26
 124 291 124 291 124 287 c 0,27,28
 124 182 124 182 181 120.5 c 128,-1,29
 238 59 238 59 337 59 c 0,30,31
 443 59 443 59 525 129 c 128,-1,32
 607 199 607 199 639 315 c 1,23,-1
EndSplineSet
Validated: 1
EndChar

StartChar: Ohorn
Encoding: 416 416 354
Width: 778
GlyphClass: 2
Flags: MW
LayerCount: 2
Fore
SplineSet
527 659 m 0,0,1
 411 659 411 659 322 576.5 c 128,-1,2
 233 494 233 494 205 359 c 0,3,4
 196 314 196 314 196 273 c 0,5,6
 196 174 196 174 250.5 116.5 c 128,-1,7
 305 59 305 59 400 59 c 0,8,9
 516 59 516 59 605 141 c 128,-1,10
 694 223 694 223 722 355 c 0,11,12
 732 401 732 401 732 445 c 0,13,14
 732 545 732 545 678 602 c 128,-1,15
 624 659 624 659 527 659 c 0,0,1
938 730 m 0,16,17
 938 609 938 609 804 588 c 1,18,19
 827 533 827 533 827 461 c 0,20,21
 827 410 827 410 815 353 c 0,22,23
 780 191 780 191 661.5 84 c 128,-1,24
 543 -23 543 -23 383 -23 c 0,25,26
 251 -23 251 -23 176 52.5 c 128,-1,27
 101 128 101 128 101 257 c 0,28,29
 101 310 101 310 112 359 c 0,30,31
 149 530 149 530 268 635.5 c 128,-1,32
 387 741 387 741 544 741 c 0,33,34
 606 741 606 741 656 723 c 128,-1,35
 706 705 706 705 735.5 687 c 128,-1,36
 765 669 765 669 777 669 c 0,37,38
 822 669 822 669 837 677 c 128,-1,39
 852 685 852 685 852 712 c 0,40,41
 852 728 852 728 843 742 c 1,42,-1
 918 796 l 1,43,44
 938 765 938 765 938 730 c 0,16,17
EndSplineSet
Validated: 1
EndChar

StartChar: ohorn
Encoding: 417 417 355
Width: 556
GlyphClass: 2
Flags: MW
LayerCount: 2
Fore
SplineSet
280 54 m 0,0,1
 320 54 320 54 353 70 c 128,-1,2
 386 86 386 86 407 113 c 128,-1,3
 428 140 428 140 443.5 170 c 128,-1,4
 459 200 459 200 466.5 232.5 c 128,-1,5
 474 265 474 265 477.5 289 c 128,-1,6
 481 313 481 313 481 330 c 0,7,8
 481 393 481 393 451.5 427.5 c 128,-1,9
 422 462 422 462 367 462 c 0,10,11
 319 462 319 462 281 438 c 128,-1,12
 243 414 243 414 222 380 c 128,-1,13
 201 346 201 346 187.5 305.5 c 128,-1,14
 174 265 174 265 169.5 235.5 c 128,-1,15
 165 206 165 206 165 187 c 0,16,17
 165 124 165 124 195 89 c 128,-1,18
 225 54 225 54 280 54 c 0,0,1
526 504 m 0,19,20
 562 504 562 504 576.5 513 c 128,-1,21
 591 522 591 522 591 547 c 0,22,23
 591 564 591 564 582 577 c 1,24,-1
 658 631 l 1,25,26
 677 599 677 599 677 565 c 0,27,28
 677 550 677 550 674 535 c 128,-1,29
 671 520 671 520 661 496 c 128,-1,30
 651 472 651 472 624.5 453 c 128,-1,31
 598 434 598 434 559 426 c 1,32,33
 570 390 570 390 570 347 c 0,34,35
 570 191 570 191 482.5 84 c 128,-1,36
 395 -23 395 -23 263 -23 c 0,37,38
 173 -23 173 -23 124.5 27 c 128,-1,39
 76 77 76 77 76 168 c 0,40,41
 76 198 76 198 82.5 237.5 c 128,-1,42
 89 277 89 277 109.5 332 c 128,-1,43
 130 387 130 387 161.5 431.5 c 128,-1,44
 193 476 193 476 250.5 507.5 c 128,-1,45
 308 539 308 539 382 539 c 0,46,47
 438 539 438 539 475.5 521.5 c 128,-1,48
 513 504 513 504 526 504 c 0,19,20
EndSplineSet
Validated: 1
EndChar

StartChar: uni01a2
Encoding: 418 418 356
Width: 944
GlyphClass: 2
Flags: MW
AnchorPoint: "Anchor-2" 544 729 basechar 0
AnchorPoint: "Anchor-1" 390 0 basechar 0
LayerCount: 2
Fore
SplineSet
529 659 m 0,0,1
 469 659 469 659 415 636 c 128,-1,2
 361 613 361 613 322 574 c 128,-1,3
 283 535 283 535 254.5 485.5 c 128,-1,4
 226 436 226 436 212 381.5 c 128,-1,5
 198 327 198 327 198 273 c 0,6,7
 198 174 198 174 252 116.5 c 128,-1,8
 306 59 306 59 403 59 c 0,9,10
 475 59 475 59 538.5 92.5 c 128,-1,11
 602 126 602 126 644 180.5 c 128,-1,12
 686 235 686 235 710.5 304 c 128,-1,13
 735 373 735 373 735 445 c 0,14,15
 735 545 735 545 680.5 602 c 128,-1,16
 626 659 626 659 529 659 c 0,0,1
385 -23 m 0,17,18
 253 -23 253 -23 178 52.5 c 128,-1,19
 103 128 103 128 103 257 c 0,20,21
 103 326 103 326 122.5 395.5 c 128,-1,22
 142 465 142 465 180.5 527 c 128,-1,23
 219 589 219 589 271.5 637 c 128,-1,24
 324 685 324 685 395.5 713 c 128,-1,25
 467 741 467 741 547 741 c 0,26,27
 660 741 660 741 734 685 c 1,28,29
 831 746 831 746 927 746 c 0,30,31
 1050 746 1050 746 1050 624 c 0,32,33
 1050 595 1050 595 1043 559 c 2,34,-1
 924 0 l 1,35,-1
 830 0 l 1,36,-1
 955 589 l 2,37,38
 958 601 958 601 958 614 c 0,39,40
 958 672 958 672 905 672 c 0,41,42
 866 672 866 672 843 662 c 128,-1,43
 820 652 820 652 787 626 c 1,44,45
 829 558 829 558 829 461 c 0,46,47
 829 370 829 370 796.5 282.5 c 128,-1,48
 764 195 764 195 707 127.5 c 128,-1,49
 650 60 650 60 565.5 18.5 c 128,-1,50
 481 -23 481 -23 385 -23 c 0,17,18
EndSplineSet
Validated: 1
EndChar

StartChar: uni01a3
Encoding: 419 419 357
Width: 722
GlyphClass: 2
Flags: MW
AnchorPoint: "Anchor-2" 386 538 basechar 0
AnchorPoint: "Anchor-1" 273 0 basechar 0
LayerCount: 2
Fore
SplineSet
371 462 m 0,0,1
 321 462 321 462 281 434.5 c 128,-1,2
 241 407 241 407 217.5 364 c 128,-1,3
 194 321 194 321 182 275 c 128,-1,4
 170 229 170 229 170 187 c 0,5,6
 170 123 170 123 199.5 88.5 c 128,-1,7
 229 54 229 54 284 54 c 0,8,9
 333 54 333 54 372.5 80.5 c 128,-1,10
 412 107 412 107 436 148.5 c 128,-1,11
 460 190 460 190 473 237 c 128,-1,12
 486 284 486 284 486 330 c 0,13,14
 486 393 486 393 456.5 427.5 c 128,-1,15
 427 462 427 462 371 462 c 0,0,1
750 369 m 2,16,-1
 629 -200 l 1,17,-1
 545 -200 l 1,18,-1
 671 389 l 2,19,20
 676 413 676 413 676 428 c 0,21,22
 676 470 676 470 632 470 c 0,23,24
 593 470 593 470 554 451 c 1,25,26
 575 409 575 409 575 348 c 0,27,28
 575 300 575 300 564 249.5 c 128,-1,29
 553 199 553 199 528.5 150 c 128,-1,30
 504 101 504 101 469 62.5 c 128,-1,31
 434 24 434 24 382 0.5 c 128,-1,32
 330 -23 330 -23 268 -23 c 0,33,34
 177 -23 177 -23 129 27 c 128,-1,35
 81 77 81 77 81 168 c 0,36,37
 81 209 81 209 90 255 c 128,-1,38
 99 301 99 301 122 352.5 c 128,-1,39
 145 404 145 404 178.5 445 c 128,-1,40
 212 486 212 486 266 512.5 c 128,-1,41
 320 539 320 539 387 539 c 0,42,43
 470 539 470 539 518 498 c 1,44,45
 591 539 591 539 653 539 c 0,46,47
 707 539 707 539 733.5 518 c 128,-1,48
 760 497 760 497 760 444 c 0,49,50
 760 413 760 413 750 369 c 2,16,-1
EndSplineSet
Validated: 1
EndChar

StartChar: uni01A4
Encoding: 420 420 358
Width: 842
GlyphClass: 2
Flags: MW
LayerCount: 2
Fore
SplineSet
559 391 m 2,0,1
 637 391 637 391 684.5 437.5 c 128,-1,2
 732 484 732 484 732 552 c 0,3,4
 732 597 732 597 701 622 c 128,-1,5
 670 647 670 647 613 647 c 2,6,-1
 419 647 l 1,7,-1
 365 391 l 1,8,-1
 559 391 l 2,0,1
831 575 m 0,9,10
 831 464 831 464 757 386.5 c 128,-1,11
 683 309 683 309 576 309 c 2,12,-1
 347 309 l 1,13,-1
 282 0 l 1,14,-1
 189 0 l 1,15,-1
 325 642 l 1,16,-1
 243 642 l 2,17,18
 214 642 214 642 197 620.5 c 128,-1,19
 180 599 180 599 180 569 c 0,20,21
 180 531 180 531 224 531 c 0,22,23
 226 531 226 531 234.5 531.5 c 128,-1,24
 243 532 243 532 254 532 c 1,25,-1
 237 453 l 1,26,27
 212 448 212 448 189 448 c 0,28,29
 136 448 136 448 113.5 475.5 c 128,-1,30
 91 503 91 503 91 539 c 0,31,32
 91 571 91 571 98.5 601.5 c 128,-1,33
 106 632 106 632 123.5 662 c 128,-1,34
 141 692 141 692 175.5 710.5 c 128,-1,35
 210 729 210 729 258 729 c 2,36,-1
 644 729 l 2,37,38
 735 729 735 729 783 689.5 c 128,-1,39
 831 650 831 650 831 575 c 0,9,10
EndSplineSet
Validated: 1
EndChar

StartChar: uni01A5
Encoding: 421 421 359
Width: 556
GlyphClass: 2
Flags: MW
LayerCount: 2
Fore
SplineSet
302 54 m 0,0,1
 359 54 359 54 401 87.5 c 128,-1,2
 443 121 443 121 462 170 c 128,-1,3
 481 219 481 219 489.5 258 c 128,-1,4
 498 297 498 297 498 324 c 0,5,6
 498 389 498 389 466.5 425.5 c 128,-1,7
 435 462 435 462 379 462 c 0,8,9
 335 462 335 462 299 439 c 128,-1,10
 263 416 263 416 242 383 c 128,-1,11
 221 350 221 350 207 310 c 128,-1,12
 193 270 193 270 188 238.5 c 128,-1,13
 183 207 183 207 183 184 c 0,14,15
 183 124 183 124 215 89 c 128,-1,16
 247 54 247 54 302 54 c 0,0,1
586 344 m 0,17,18
 586 189 586 189 502.5 83 c 128,-1,19
 419 -23 419 -23 294 -23 c 0,20,21
 241 -23 241 -23 207.5 -2 c 128,-1,22
 174 19 174 19 151 68 c 1,23,-1
 91 -213 l 1,24,-1
 7 -213 l 1,25,-1
 183 613 l 2,26,27
 195 669 195 669 234.5 700.5 c 128,-1,28
 274 732 274 732 332 732 c 0,29,30
 354 732 354 732 377 727 c 1,31,-1
 359 658 l 1,32,33
 345 660 345 660 332 660 c 0,34,35
 300 660 300 660 284 645.5 c 128,-1,36
 268 631 268 631 260 593 c 2,37,-1
 227 440 l 1,38,39
 248 484 248 484 302 511.5 c 128,-1,40
 356 539 356 539 412 539 c 0,41,42
 492 539 492 539 539 486.5 c 128,-1,43
 586 434 586 434 586 344 c 0,17,18
EndSplineSet
Validated: 1
EndChar

StartChar: uni01a6
Encoding: 422 422 360
Width: 666
GlyphClass: 2
Flags: MW
LayerCount: 2
Fore
SplineSet
242 271 m 1,0,-1
 436 271 l 2,1,2
 479 271 479 271 513 286 c 128,-1,3
 547 301 547 301 566 325.5 c 128,-1,4
 585 350 585 350 595 377.5 c 128,-1,5
 605 405 605 405 605 433 c 0,6,7
 605 478 605 478 575 502.5 c 128,-1,8
 545 527 545 527 490 527 c 2,9,-1
 296 527 l 1,10,-1
 242 271 l 1,0,-1
224 189 m 1,11,-1
 184 0 l 1,12,-1
 91 0 l 1,13,-1
 246 729 l 1,14,-1
 339 729 l 1,15,-1
 313 609 l 1,16,-1
 521 609 l 2,17,18
 610 609 610 609 658.5 568 c 128,-1,19
 707 527 707 527 707 452 c 0,20,21
 707 385 707 385 672.5 322 c 128,-1,22
 638 259 638 259 577 223 c 1,23,24
 624 193 624 193 624 128 c 0,25,26
 624 97 624 97 611 36.5 c 128,-1,27
 598 -24 598 -24 598 -47 c 0,28,29
 598 -88 598 -88 624 -102 c 1,30,-1
 619 -125 l 1,31,-1
 506 -125 l 1,32,33
 503 -108 503 -108 503 -85 c 0,34,35
 503 -49 503 -49 512 -6 c 2,36,-1
 526 59 l 2,37,38
 531 85 531 85 531 105 c 0,39,40
 531 189 531 189 433 189 c 2,41,-1
 224 189 l 1,11,-1
EndSplineSet
Validated: 1
EndChar

StartChar: uni01A7
Encoding: 423 423 361
Width: 667
GlyphClass: 2
Flags: MW
LayerCount: 2
Fore
SplineSet
274 59 m 0,0,1
 296 59 296 59 317 61 c 128,-1,2
 338 63 338 63 372 73 c 128,-1,3
 406 83 406 83 432 100 c 128,-1,4
 458 117 458 117 481 151.5 c 128,-1,5
 504 186 504 186 511 232 c 1,6,-1
 599 232 l 1,7,8
 581 139 581 139 529 81 c 0,9,10
 434 -23 434 -23 266 -23 c 0,11,12
 191 -23 191 -23 138.5 -5 c 128,-1,13
 86 13 86 13 61.5 43.5 c 128,-1,14
 37 74 37 74 27 103 c 128,-1,15
 17 132 17 132 17 165 c 0,16,17
 17 236 17 236 63.5 297 c 128,-1,18
 110 358 110 358 207 383 c 2,19,-1
 399 432 l 2,20,21
 407 433 407 433 420.5 437.5 c 128,-1,22
 434 442 434 442 449.5 447 c 128,-1,23
 465 452 465 452 481 462 c 128,-1,24
 497 472 497 472 510 484.5 c 128,-1,25
 523 497 523 497 531.5 517 c 128,-1,26
 540 537 540 537 540 561 c 0,27,28
 540 608 540 608 501.5 635.5 c 128,-1,29
 463 663 463 663 397 663 c 0,30,31
 310 663 310 663 256 624.5 c 128,-1,32
 202 586 202 586 189 515 c 1,33,-1
 101 515 l 1,34,35
 121 622 121 622 201 681.5 c 128,-1,36
 281 741 281 741 407 741 c 0,37,38
 514 741 514 741 573 695.5 c 128,-1,39
 632 650 632 650 632 569 c 0,40,41
 632 480 632 480 583 428 c 128,-1,42
 534 376 534 376 456 357 c 2,43,-1
 266 309 l 2,44,45
 110 269 110 269 110 171 c 0,46,47
 110 59 110 59 274 59 c 0,0,1
EndSplineSet
Validated: 1
EndChar

StartChar: uni01A8
Encoding: 424 424 362
Width: 500
GlyphClass: 2
Flags: MW
LayerCount: 2
Fore
SplineSet
353 156 m 1,0,-1
 441 156 l 1,1,2
 404 -23 404 -23 200 -23 c 0,3,4
 112 -23 112 -23 61.5 14 c 128,-1,5
 11 51 11 51 11 114 c 0,6,7
 11 128 11 128 14 143 c 0,8,9
 24 201 24 201 65 235.5 c 128,-1,10
 106 270 106 270 187 289 c 2,11,-1
 271 308 l 2,12,13
 382 333 382 333 382 396 c 0,14,15
 382 427 382 427 356 444.5 c 128,-1,16
 330 462 330 462 284 462 c 0,17,18
 182 462 182 462 164 378 c 1,19,-1
 76 378 l 1,20,21
 90 455 90 455 147 497 c 128,-1,22
 204 539 204 539 295 539 c 0,23,24
 376 539 376 539 423 503.5 c 128,-1,25
 470 468 470 468 470 408 c 0,26,27
 470 382 470 382 464 360 c 128,-1,28
 458 338 458 338 447 322 c 128,-1,29
 436 306 436 306 422 292 c 128,-1,30
 408 278 408 278 392 269.5 c 128,-1,31
 376 261 376 261 359.5 253 c 128,-1,32
 343 245 343 245 327.5 241 c 128,-1,33
 312 237 312 237 298.5 233 c 128,-1,34
 285 229 285 229 275 228 c 2,35,-1
 193 209 l 2,36,37
 98 186 98 186 98 124 c 0,38,39
 98 92 98 92 127.5 73 c 128,-1,40
 157 54 157 54 207 54 c 0,41,42
 240 54 240 54 266 62 c 128,-1,43
 292 70 292 70 306 80 c 128,-1,44
 320 90 320 90 331 107 c 128,-1,45
 342 124 342 124 345 132 c 128,-1,46
 348 140 348 140 353 156 c 1,0,-1
EndSplineSet
Validated: 1
EndChar

StartChar: uni01A9
Encoding: 425 425 363
Width: 611
GlyphClass: 2
Flags: MW
LayerCount: 2
Fore
SplineSet
247 365 m 1,0,-1
 79 645 l 1,1,-1
 94 729 l 1,2,-1
 619 729 l 1,3,-1
 605 647 l 1,4,-1
 195 647 l 1,5,-1
 364 365 l 1,6,-1
 95 82 l 1,7,-1
 533 82 l 1,8,-1
 519 0 l 1,9,-1
 -36 0 l 1,10,-1
 -22 82 l 1,11,-1
 247 365 l 1,0,-1
EndSplineSet
Validated: 1
EndChar

StartChar: uni01AA
Encoding: 426 426 364
Width: 333
GlyphClass: 2
Flags: MW
LayerCount: 2
Fore
SplineSet
227 549 m 0,0,1
 253 549 253 549 278 570 c 128,-1,2
 303 591 303 591 303 622 c 0,3,4
 303 643 303 643 289 656.5 c 128,-1,5
 275 670 275 670 253 670 c 0,6,7
 226 670 226 670 201.5 649 c 128,-1,8
 177 628 177 628 177 598 c 0,9,10
 177 577 177 577 191 563 c 128,-1,11
 205 549 205 549 227 549 c 0,0,1
114 585 m 0,12,13
 114 645 114 645 163.5 688.5 c 128,-1,14
 213 732 213 732 266 732 c 0,15,16
 314 732 314 732 340 707.5 c 128,-1,17
 366 683 366 683 366 641 c 0,18,19
 366 626 366 626 363 608 c 2,20,-1
 217 -76 l 2,21,22
 214 -92 214 -92 214 -104 c 0,23,24
 214 -126 214 -126 227.5 -135.5 c 128,-1,25
 241 -145 241 -145 272 -145 c 0,26,27
 275 -145 275 -145 292 -144 c 1,28,-1
 277 -215 l 1,29,30
 260 -218 260 -218 248 -218 c 0,31,32
 124 -218 124 -218 124 -136 c 0,33,34
 124 -122 124 -122 127 -109 c 2,35,-1
 255 494 l 1,36,37
 235 487 235 487 214 487 c 0,38,39
 170 487 170 487 142 515 c 128,-1,40
 114 543 114 543 114 585 c 0,12,13
EndSplineSet
Validated: 1
EndChar

StartChar: uni01AB
Encoding: 427 427 365
Width: 278
GlyphClass: 2
Flags: MW
LayerCount: 2
Fore
SplineSet
126 -22 m 1,0,1
 54 -16 54 -16 54 42 c 0,2,3
 54 48 54 48 56 60 c 2,4,-1
 126 456 l 1,5,-1
 55 456 l 1,6,-1
 67 524 l 1,7,-1
 138 524 l 1,8,-1
 163 668 l 1,9,-1
 246 668 l 1,10,-1
 221 524 l 1,11,-1
 307 524 l 1,12,-1
 295 456 l 1,13,-1
 209 456 l 1,14,-1
 145 97 l 2,15,16
 143 81 143 81 143 78 c 0,17,18
 143 62 143 62 152 56 c 128,-1,19
 161 50 161 50 183 50 c 0,20,21
 208 50 208 50 224 54 c 1,22,-1
 195 -109 l 2,23,24
 177 -218 177 -218 32 -218 c 0,25,26
 19 -218 19 -218 4 -215 c 1,27,-1
 17 -144 l 1,28,29
 34 -145 34 -145 37 -145 c 0,30,31
 75 -145 75 -145 92.5 -130 c 128,-1,32
 110 -115 110 -115 117 -76 c 2,33,-1
 126 -22 l 1,0,1
EndSplineSet
Validated: 1
EndChar

StartChar: uni01AC
Encoding: 428 428 366
Width: 611
GlyphClass: 2
Flags: MW
LayerCount: 2
Fore
SplineSet
43 539 m 0,0,1
 43 571 43 571 50.5 600.5 c 128,-1,2
 58 630 58 630 75 660.5 c 128,-1,3
 92 691 92 691 126.5 709.5 c 128,-1,4
 161 728 161 728 210 729 c 2,5,-1
 670 729 l 1,6,-1
 653 647 l 1,7,-1
 414 647 l 1,8,-1
 276 0 l 1,9,-1
 183 0 l 1,10,-1
 321 647 l 1,11,-1
 278 647 l 1,12,-1
 196 647 l 2,13,14
 168 647 168 647 150 624.5 c 128,-1,15
 132 602 132 602 132 571 c 0,16,17
 132 531 132 531 176 531 c 0,18,19
 186 531 186 531 206 532 c 1,20,-1
 189 453 l 1,21,22
 164 448 164 448 141 448 c 0,23,24
 88 448 88 448 65.5 475.5 c 128,-1,25
 43 503 43 503 43 539 c 0,0,1
EndSplineSet
Validated: 1
EndChar

StartChar: uni01AD
Encoding: 429 429 367
Width: 278
GlyphClass: 2
Flags: MW
LayerCount: 2
Fore
SplineSet
212 606 m 2,0,-1
 198 524 l 1,1,-1
 284 524 l 1,2,-1
 272 456 l 1,3,-1
 186 456 l 1,4,-1
 123 97 l 2,5,6
 121 89 121 89 121 78 c 0,7,8
 121 62 121 62 129.5 56 c 128,-1,9
 138 50 138 50 160 50 c 0,10,11
 185 50 185 50 201 54 c 1,12,-1
 189 -16 l 1,13,14
 148 -23 148 -23 119 -23 c 0,15,16
 31 -23 31 -23 31 42 c 0,17,18
 31 48 31 48 33 60 c 2,19,-1
 103 456 l 1,20,-1
 32 456 l 1,21,-1
 44 524 l 1,22,-1
 115 524 l 1,23,-1
 131 613 l 2,24,25
 141 669 141 669 179 700.5 c 128,-1,26
 217 732 217 732 275 732 c 0,27,28
 297 732 297 732 321 727 c 1,29,-1
 309 658 l 1,30,31
 290 659 290 659 280 659 c 0,32,33
 223 659 223 659 212 606 c 2,0,-1
EndSplineSet
Validated: 1
EndChar

StartChar: uni01AE
Encoding: 430 430 368
Width: 611
GlyphClass: 2
Flags: MW
LayerCount: 2
Fore
SplineSet
197 -109 m 2,0,-1
 330 647 l 1,1,-1
 90 647 l 1,2,-1
 104 729 l 1,3,-1
 676 729 l 1,4,-1
 662 647 l 1,5,-1
 423 647 l 1,6,-1
 296 -76 l 2,7,8
 294 -86 294 -86 294 -91 c 0,9,10
 294 -135 294 -135 353 -135 c 0,11,12
 356 -135 356 -135 373 -134 c 1,13,-1
 359 -215 l 1,14,15
 344 -218 344 -218 331 -218 c 0,16,17
 267 -218 267 -218 231 -195 c 128,-1,18
 195 -172 195 -172 195 -129 c 0,19,20
 195 -116 195 -116 197 -109 c 2,0,-1
EndSplineSet
Validated: 1
EndChar

StartChar: Uhorn
Encoding: 431 431 369
Width: 722
GlyphClass: 2
Flags: MW
LayerCount: 2
Fore
SplineSet
771 729 m 2,0,1
 799 730 799 730 812.5 738 c 128,-1,2
 826 746 826 746 826 772 c 0,3,4
 826 788 826 788 817 802 c 1,5,-1
 892 856 l 1,6,7
 912 825 912 825 912 790 c 0,8,9
 912 736 912 736 877.5 694 c 128,-1,10
 843 652 843 652 754 646 c 1,11,-1
 663 217 l 2,12,13
 640 107 640 107 549.5 42 c 128,-1,14
 459 -23 459 -23 331 -23 c 0,15,16
 219 -23 219 -23 157.5 25.5 c 128,-1,17
 96 74 96 74 96 160 c 0,18,19
 96 189 96 189 103 217 c 2,20,-1
 211 729 l 1,21,-1
 304 729 l 1,22,-1
 196 217 l 2,23,24
 191 192 191 192 191 177 c 0,25,26
 191 118 191 118 233 88.5 c 128,-1,27
 275 59 275 59 348 59 c 0,28,29
 436 59 436 59 495 101 c 128,-1,30
 554 143 554 143 570 217 c 2,31,-1
 678 729 l 1,32,-1
 771 729 l 2,0,1
EndSplineSet
Validated: 1
EndChar

StartChar: uhorn
Encoding: 432 432 370
Width: 556
GlyphClass: 2
Flags: MW
LayerCount: 2
Fore
SplineSet
537 524 m 2,0,1
 564 525 564 525 577.5 533 c 128,-1,2
 591 541 591 541 591 567 c 0,3,4
 591 584 591 584 582 597 c 1,5,-1
 658 651 l 1,6,7
 677 619 677 619 677 585 c 0,8,9
 677 560 677 560 670 537.5 c 128,-1,10
 663 515 663 515 645.5 492.5 c 128,-1,11
 628 470 628 470 593 456 c 128,-1,12
 558 442 558 442 509 440 c 1,13,-1
 415 0 l 1,14,-1
 340 0 l 1,15,-1
 356 73 l 1,16,17
 308 21 308 21 263 -1 c 128,-1,18
 218 -23 218 -23 160 -23 c 0,19,20
 94 -23 94 -23 57 6.5 c 128,-1,21
 20 36 20 36 20 87 c 0,22,23
 20 105 20 105 24 120 c 2,24,-1
 110 524 l 1,25,-1
 193 524 l 1,26,-1
 114 153 l 2,27,28
 111 140 111 140 111 127 c 0,29,30
 111 91 111 91 134.5 70.5 c 128,-1,31
 158 50 158 50 200 50 c 0,32,33
 265 50 265 50 314.5 98.5 c 128,-1,34
 364 147 364 147 381 227 c 2,35,-1
 444 524 l 1,36,-1
 537 524 l 2,0,1
EndSplineSet
Validated: 1
EndChar

StartChar: uni01b2
Encoding: 434 434 372
Width: 722
GlyphClass: 2
Flags: MW
AnchorPoint: "Anchor-2" 519 729 basechar 0
AnchorPoint: "Anchor-1" 355 0 basechar 0
LayerCount: 2
Fore
SplineSet
329 -23 m 0,0,1
 293 -23 293 -23 265.5 -20.5 c 128,-1,2
 238 -18 238 -18 209 -8.5 c 128,-1,3
 180 1 180 1 161.5 17 c 128,-1,4
 143 33 143 33 131.5 61 c 128,-1,5
 120 89 120 89 120 128 c 0,6,7
 120 163 120 163 129 207 c 2,8,-1
 240 729 l 1,9,-1
 333 729 l 1,10,-1
 213 167 l 2,11,12
 210 152 210 152 210 139 c 0,13,14
 210 116 210 116 220 99.5 c 128,-1,15
 230 83 230 83 246.5 74.5 c 128,-1,16
 263 66 263 66 280 62.5 c 128,-1,17
 297 59 297 59 317 59 c 0,18,19
 384 59 384 59 440 80.5 c 128,-1,20
 496 102 496 102 534 138.5 c 128,-1,21
 572 175 572 175 598.5 224 c 128,-1,22
 625 273 625 273 637 326.5 c 128,-1,23
 649 380 649 380 649 436 c 0,24,25
 649 485 649 485 636 538.5 c 128,-1,26
 623 592 623 592 609 627 c 128,-1,27
 595 662 595 662 565 729 c 1,28,-1
 673 729 l 1,29,30
 745 594 745 594 745 455 c 0,31,32
 745 387 745 387 728 319.5 c 128,-1,33
 711 252 711 252 676.5 190.5 c 128,-1,34
 642 129 642 129 593.5 81.5 c 128,-1,35
 545 34 545 34 476.5 5.5 c 128,-1,36
 408 -23 408 -23 329 -23 c 0,0,1
EndSplineSet
Validated: 1
EndChar

StartChar: uni01B3
Encoding: 435 435 373
Width: 788
GlyphClass: 2
Flags: MW
LayerCount: 2
Fore
SplineSet
699 526 m 1,0,1
 705 533 705 533 713.5 541.5 c 128,-1,2
 722 550 722 550 730 564 c 128,-1,3
 738 578 738 578 738 589 c 0,4,5
 738 609 738 609 721 623.5 c 128,-1,6
 704 638 704 638 686 638 c 0,7,8
 664 638 664 638 643 614 c 2,9,-1
 370 286 l 1,10,-1
 309 0 l 1,11,-1
 216 0 l 1,12,-1
 277 286 l 1,13,-1
 90 729 l 1,14,-1
 205 729 l 1,15,-1
 344 374 l 1,16,-1
 579 665 l 2,17,18
 637 729 637 729 702 729 c 0,19,20
 746 729 746 729 789 692.5 c 128,-1,21
 832 656 832 656 832 607 c 0,22,23
 832 547 832 547 757 484 c 1,24,-1
 699 526 l 1,0,1
EndSplineSet
Validated: 1
EndChar

StartChar: uni01B4
Encoding: 436 436 374
Width: 616
GlyphClass: 2
Flags: MW
LayerCount: 2
Fore
SplineSet
585 438 m 128,-1,1
 585 450 585 450 571 458.5 c 128,-1,2
 557 467 557 467 548 467 c 0,3,4
 524 467 524 467 499 427 c 2,5,-1
 187 -110 l 2,6,7
 122 -218 122 -218 29 -218 c 0,8,9
 -2 -218 -2 -218 -24 -205 c 1,10,-1
 -8 -130 l 1,11,12
 18 -136 18 -136 35 -136 c 0,13,14
 83 -136 83 -136 112 -85 c 2,15,-1
 162 0 l 1,16,-1
 97 524 l 1,17,-1
 186 524 l 1,18,-1
 233 116 l 1,19,-1
 436 475 l 2,20,21
 477 543 477 543 548 543 c 0,22,23
 606 543 606 543 639.5 519 c 128,-1,24
 673 495 673 495 673 453 c 0,25,26
 673 440 673 440 670.5 428.5 c 128,-1,27
 668 417 668 417 663 406.5 c 128,-1,28
 658 396 658 396 651.5 384 c 128,-1,29
 645 372 645 372 637 359 c 1,30,-1
 564 388 l 1,31,0
 585 426 585 426 585 438 c 128,-1,1
EndSplineSet
Validated: 1
EndChar

StartChar: uni01B5
Encoding: 437 437 375
Width: 611
GlyphClass: 2
Flags: MW
LayerCount: 2
Fore
SplineSet
728 729 m 1,0,-1
 711 645 l 1,1,-1
 475 406 l 1,2,-1
 552 406 l 1,3,-1
 538 339 l 1,4,-1
 409 339 l 1,5,-1
 155 82 l 1,6,-1
 593 82 l 1,7,-1
 576 0 l 1,8,-1
 21 0 l 1,9,-1
 38 82 l 1,10,-1
 292 339 l 1,11,-1
 205 339 l 1,12,-1
 219 406 l 1,13,-1
 358 406 l 1,14,-1
 596 647 l 1,15,-1
 186 647 l 1,16,-1
 203 729 l 1,17,-1
 728 729 l 1,0,-1
EndSplineSet
Validated: 1
EndChar

StartChar: uni01B6
Encoding: 438 438 376
Width: 500
GlyphClass: 2
Flags: MW
LayerCount: 2
Fore
SplineSet
559 524 m 1,0,-1
 543 450 l 1,1,-1
 388 301 l 1,2,-1
 471 301 l 1,3,-1
 457 234 l 1,4,-1
 319 234 l 1,5,-1
 152 73 l 1,6,-1
 477 73 l 1,7,-1
 461 0 l 1,8,-1
 35 0 l 1,9,-1
 51 75 l 1,10,-1
 217 234 l 1,11,-1
 124 234 l 1,12,-1
 138 301 l 1,13,-1
 287 301 l 1,14,-1
 444 451 l 1,15,-1
 152 451 l 1,16,-1
 168 524 l 1,17,-1
 559 524 l 1,0,-1
EndSplineSet
Validated: 1
EndChar

StartChar: uni01B7
Encoding: 439 439 377
Width: 611
GlyphClass: 2
Flags: MW
LayerCount: 2
Fore
SplineSet
306 55 m 0,0,1
 400 55 400 55 463.5 104.5 c 128,-1,2
 527 154 527 154 527 233 c 0,3,4
 527 355 527 355 319 355 c 1,5,-1
 335 430 l 1,6,7
 356 430 356 430 372.5 435.5 c 128,-1,8
 389 441 389 441 397 447 c 128,-1,9
 405 453 405 453 419 466 c 2,10,-1
 598 647 l 1,11,-1
 188 647 l 1,12,-1
 206 729 l 1,13,-1
 731 729 l 1,14,-1
 713 645 l 1,15,-1
 484 413 l 1,16,17
 548 396 548 396 584.5 365 c 128,-1,18
 621 334 621 334 621 265 c 0,19,20
 621 136 621 136 525.5 56.5 c 128,-1,21
 430 -23 430 -23 286 -23 c 0,22,23
 67 -23 67 -23 67 156 c 0,24,25
 67 182 67 182 71 206 c 1,26,-1
 159 206 l 1,27,28
 156 188 156 188 156 172 c 0,29,30
 156 55 156 55 306 55 c 0,0,1
EndSplineSet
Validated: 1
EndChar

StartChar: uni01B8
Encoding: 440 440 378
Width: 611
GlyphClass: 2
Flags: MW
LayerCount: 2
Fore
SplineSet
444 355 m 1,0,1
 367 355 367 355 310.5 337 c 128,-1,2
 254 319 254 319 225 289.5 c 128,-1,3
 196 260 196 260 183.5 230 c 128,-1,4
 171 200 171 200 171 169 c 0,5,6
 171 116 171 116 215 85.5 c 128,-1,7
 259 55 259 55 331 55 c 0,8,9
 501 55 501 55 542 206 c 1,10,-1
 630 206 l 1,11,12
 565 -23 565 -23 317 -23 c 0,13,14
 207 -23 207 -23 143 24.5 c 128,-1,15
 79 72 79 72 79 154 c 0,16,17
 79 173 79 173 84 198 c 0,18,19
 95 254 95 254 117.5 294 c 128,-1,20
 140 334 140 334 173 357 c 128,-1,21
 206 380 206 380 235 392 c 128,-1,22
 264 404 264 404 305 413 c 1,23,-1
 174 645 l 1,24,-1
 192 729 l 1,25,-1
 717 729 l 1,26,-1
 699 647 l 1,27,-1
 289 647 l 1,28,-1
 392 466 l 2,29,30
 402 452 402 452 406.5 447 c 128,-1,31
 411 442 411 442 425 436 c 128,-1,32
 439 430 439 430 460 430 c 1,33,-1
 444 355 l 1,0,1
EndSplineSet
Validated: 1
EndChar

StartChar: uni01B9
Encoding: 441 441 379
Width: 500
GlyphClass: 2
Flags: MW
LayerCount: 2
Fore
SplineSet
22 25 m 0,0,1
 22 46 22 46 26 70.5 c 128,-1,2
 30 95 30 95 45 130 c 128,-1,3
 60 165 60 165 83.5 193.5 c 128,-1,4
 107 222 107 222 152 245.5 c 128,-1,5
 197 269 197 269 256 276 c 1,6,-1
 150 450 l 1,7,-1
 166 524 l 1,8,-1
 557 524 l 1,9,-1
 541 451 l 1,10,-1
 249 451 l 1,11,-1
 356 280 l 1,12,-1
 340 205 l 1,13,-1
 292 205 l 2,14,15
 241 205 241 205 204 189 c 128,-1,16
 167 173 167 173 148.5 147 c 128,-1,17
 130 121 130 121 122 94 c 128,-1,18
 114 67 114 67 114 39 c 0,19,20
 114 -11 114 -11 145.5 -38 c 128,-1,21
 177 -65 177 -65 235 -65 c 0,22,23
 307 -65 307 -65 351 -28 c 128,-1,24
 395 9 395 9 416 86 c 1,25,-1
 504 86 l 1,26,27
 439 -143 439 -143 221 -143 c 0,28,29
 128 -143 128 -143 75 -98 c 128,-1,30
 22 -53 22 -53 22 25 c 0,0,1
EndSplineSet
Validated: 1
EndChar

StartChar: uni01ba
Encoding: 442 442 380
Width: 500
GlyphClass: 2
Flags: MW
AnchorPoint: "Anchor-2" 364 538 basechar 0
LayerCount: 2
Fore
SplineSet
359 276 m 1,0,1
 510 258 510 258 510 148 c 0,2,3
 510 55 510 55 433 -7.5 c 128,-1,4
 356 -70 356 -70 244 -70 c 0,5,6
 224 -70 224 -70 182.5 -61.5 c 128,-1,7
 141 -53 141 -53 126 -53 c 0,8,9
 97 -53 97 -53 97 -79 c 0,10,11
 97 -103 97 -103 124 -116 c 128,-1,12
 151 -129 151 -129 201 -129 c 0,13,14
 287 -129 287 -129 394 -91 c 1,15,-1
 402 -160 l 1,16,17
 391 -164 391 -164 376.5 -168.5 c 128,-1,18
 362 -173 362 -173 347 -178 c 128,-1,19
 332 -183 332 -183 313 -187 c 128,-1,20
 294 -191 294 -191 275 -194.5 c 128,-1,21
 256 -198 256 -198 232.5 -200 c 128,-1,22
 209 -202 209 -202 185 -202 c 0,23,24
 101 -202 101 -202 59.5 -173 c 128,-1,25
 18 -144 18 -144 18 -92 c 0,26,27
 18 -45 18 -45 44 -13 c 128,-1,28
 70 19 70 19 134 19 c 0,29,30
 163 19 163 19 207.5 11 c 128,-1,31
 252 3 252 3 260 3 c 0,32,33
 282 3 282 3 309.5 10 c 128,-1,34
 337 17 337 17 364 30 c 128,-1,35
 391 43 391 43 409.5 67 c 128,-1,36
 428 91 428 91 428 119 c 0,37,38
 428 157 428 157 392.5 181 c 128,-1,39
 357 205 357 205 293 205 c 2,40,-1
 245 205 l 1,41,-1
 261 280 l 1,42,-1
 440 451 l 1,43,-1
 148 451 l 1,44,-1
 163 524 l 1,45,-1
 554 524 l 1,46,-1
 539 450 l 1,47,-1
 359 276 l 1,0,1
EndSplineSet
Validated: 1
EndChar

StartChar: uni01bb
Encoding: 443 443 381
Width: 556
GlyphClass: 2
Flags: MW
LayerCount: 2
Fore
SplineSet
148 463 m 1,0,1
 208 709 208 709 435 709 c 0,2,3
 521 709 521 709 572 665 c 128,-1,4
 623 621 623 621 623 547.5 c 128,-1,5
 623 474 623 474 577 409.5 c 128,-1,6
 531 345 531 345 445 299 c 1,7,-1
 524 263 l 1,8,-1
 508 186 l 1,9,-1
 355 254 l 1,10,-1
 311 233 l 2,11,12
 238 198 238 198 203 165 c 128,-1,13
 168 132 168 132 151 87 c 1,14,-1
 524 87 l 1,15,-1
 506 0 l 1,16,-1
 34 0 l 1,17,18
 64 111 64 111 113.5 173 c 128,-1,19
 163 235 163 235 270 292 c 1,20,-1
 194 326 l 1,21,-1
 211 403 l 1,22,-1
 358 337 l 1,23,-1
 401 359 l 2,24,25
 464 391 464 391 497 435 c 128,-1,26
 530 479 530 479 530 528 c 0,27,28
 530 574 530 574 498.5 603 c 128,-1,29
 467 632 467 632 415 632 c 0,30,31
 380 632 380 632 351.5 620.5 c 128,-1,32
 323 609 323 609 305 592 c 128,-1,33
 287 575 287 575 272 550.5 c 128,-1,34
 257 526 257 526 250 506.5 c 128,-1,35
 243 487 243 487 236 463 c 1,36,-1
 148 463 l 1,0,1
EndSplineSet
Validated: 1
EndChar

StartChar: uni01be
Encoding: 446 446 382
Width: 556
GlyphClass: 2
Flags: MW
LayerCount: 2
Fore
SplineSet
279 -21 m 0,0,1
 192 -21 192 -21 146.5 22 c 128,-1,2
 101 65 101 65 101 144 c 0,3,4
 101 176 101 176 109 213 c 1,5,-1
 188 213 l 1,6,7
 182 185 182 185 182 160 c 0,8,9
 182 111 182 111 207 81 c 128,-1,10
 232 51 232 51 289 51 c 0,11,12
 328 51 328 51 358 61.5 c 128,-1,13
 388 72 388 72 405.5 88 c 128,-1,14
 423 104 423 104 433.5 124.5 c 128,-1,15
 444 145 444 145 448 162 c 128,-1,16
 452 179 452 179 452 195 c 0,17,18
 452 223 452 223 437.5 243 c 128,-1,19
 423 263 423 263 403 275.5 c 0,20,-1
 363 300.5 l 0,21,22
 343 313 343 313 329 335 c 128,-1,23
 315 357 315 357 315 388 c 0,24,25
 315 405 315 405 320 426 c 2,26,-1
 326 456 l 1,27,-1
 255 456 l 1,28,-1
 269 524 l 1,29,-1
 340 524 l 1,30,-1
 371 668 l 1,31,-1
 454 668 l 1,32,-1
 423 524 l 1,33,-1
 509 524 l 1,34,-1
 495 456 l 1,35,-1
 409 456 l 1,36,-1
 404 434 l 2,37,38
 402 424 402 424 402 415 c 0,39,40
 402 393 402 393 416 374 c 128,-1,41
 430 355 430 355 450 341 c 128,-1,42
 470 327 470 327 489.5 311 c 128,-1,43
 509 295 509 295 523 269.5 c 128,-1,44
 537 244 537 244 537 211 c 0,45,46
 537 182 537 182 528 151 c 128,-1,47
 519 120 519 120 498.5 89 c 128,-1,48
 478 58 478 58 449 34 c 128,-1,49
 420 10 420 10 375.5 -5.5 c 128,-1,50
 331 -21 331 -21 279 -21 c 0,0,1
EndSplineSet
Validated: 1
EndChar

StartChar: uni01bf
Encoding: 447 447 383
Width: 556
GlyphClass: 2
Flags: MW
LayerCount: 2
Fore
SplineSet
215 360 m 1,0,-1
 144 26 l 1,1,2
 519 241 519 241 519 400 c 0,3,4
 519 431 519 431 496 446.5 c 128,-1,5
 473 462 473 462 437 462 c 0,6,7
 395 462 395 462 337 438.5 c 128,-1,8
 279 415 279 415 215 360 c 1,0,-1
125 -63 m 1,9,-1
 92 -218 l 1,10,-1
 8 -218 l 1,11,-1
 165 524 l 1,12,-1
 249 524 l 1,13,-1
 232 444 l 1,14,15
 305 503 305 503 357 521.5 c 128,-1,16
 409 540 409 540 487 540 c 0,17,18
 542 540 542 540 575 506.5 c 128,-1,19
 608 473 608 473 608 415 c 0,20,21
 608 364 608 364 584 311.5 c 128,-1,22
 560 259 560 259 525 217.5 c 128,-1,23
 490 176 490 176 438 132.5 c 128,-1,24
 386 89 386 89 344 60.5 c 128,-1,25
 302 32 302 32 250 2.5 c 128,-1,26
 198 -27 198 -27 176.5 -37.5 c 128,-1,27
 155 -48 155 -48 131 -60 c 0,28,29
 126 -63 126 -63 125 -63 c 1,9,-1
EndSplineSet
Validated: 1
EndChar

StartChar: uni01C2
Encoding: 450 450 386
Width: 584
GlyphClass: 2
Flags: MW
LayerCount: 2
Fore
SplineSet
572 183 m 1,0,-1
 558 111 l 1,1,-1
 346 111 l 1,2,-1
 277 -212 l 1,3,-1
 217 -212 l 1,4,-1
 286 111 l 1,5,-1
 74 111 l 1,6,-1
 89 183 l 1,7,-1
 301 183 l 1,8,-1
 323 283 l 1,9,-1
 111 283 l 1,10,-1
 125 355 l 1,11,-1
 338 355 l 1,12,-1
 418 729 l 1,13,-1
 478 729 l 1,14,-1
 398 355 l 1,15,-1
 609 355 l 1,16,-1
 594 283 l 1,17,-1
 383 283 l 1,18,-1
 361 183 l 1,19,-1
 572 183 l 1,0,-1
EndSplineSet
Validated: 1
EndChar

StartChar: uni01e4
Encoding: 484 484 420
Width: 778
GlyphClass: 2
Flags: MW
LayerCount: 2
Fore
SplineSet
205 275 m 0,0,1
 205 233 205 233 214.5 197 c 128,-1,2
 224 161 224 161 246.5 128.5 c 128,-1,3
 269 96 269 96 310.5 77.5 c 128,-1,4
 352 59 352 59 411 59 c 0,5,6
 481 59 481 59 542.5 92 c 128,-1,7
 604 125 604 125 644 182 c 1,8,-1
 444 182 l 1,9,-1
 456 240 l 1,10,-1
 674 240 l 1,11,12
 682 259 682 259 687 283 c 2,13,-1
 691 303 l 1,14,-1
 469 303 l 1,15,-1
 487 385 l 1,16,-1
 791 385 l 1,17,-1
 760 240 l 1,18,-1
 813 240 l 1,19,-1
 801 182 l 1,20,-1
 748 182 l 1,21,-1
 708 -4 l 1,22,-1
 649 -4 l 1,23,-1
 647 93 l 1,24,25
 518 -23 518 -23 373 -23 c 0,26,27
 250 -23 250 -23 179 52 c 128,-1,28
 108 127 108 127 108 254 c 0,29,30
 108 313 108 313 124 377.5 c 128,-1,31
 140 442 140 442 175.5 507.5 c 128,-1,32
 211 573 211 573 261.5 624.5 c 128,-1,33
 312 676 312 676 387.5 708.5 c 128,-1,34
 463 741 463 741 552 741 c 0,35,36
 673 741 673 741 740 683 c 128,-1,37
 807 625 807 625 807 520 c 0,38,39
 807 508 l 1,40,-1
 712 508 l 1,41,42
 712 578 712 578 664 618.5 c 128,-1,43
 616 659 616 659 533 659 c 0,44,45
 459 659 459 659 396 625 c 128,-1,46
 333 591 333 591 292 536 c 128,-1,47
 251 481 251 481 228 413 c 128,-1,48
 205 345 205 345 205 275 c 0,0,1
EndSplineSet
Validated: 1
EndChar

StartChar: uni01e5
Encoding: 485 485 421
Width: 556
GlyphClass: 2
Flags: MW
LayerCount: 2
Fore
SplineSet
359 462 m 0,0,1
 312 462 312 462 272.5 434.5 c 128,-1,2
 233 407 233 407 210 364 c 128,-1,3
 187 321 187 321 174.5 274.5 c 128,-1,4
 162 228 162 228 162 185 c 0,5,6
 162 122 162 122 191 88 c 128,-1,7
 220 54 220 54 273 54 c 0,8,9
 321 54 321 54 359.5 81.5 c 128,-1,10
 398 109 398 109 420.5 152 c 128,-1,11
 443 195 443 195 455 242 c 128,-1,12
 467 289 467 289 467 333 c 0,13,14
 467 395 467 395 439.5 428.5 c 128,-1,15
 412 462 412 462 359 462 c 0,0,1
118 -60 m 1,16,17
 118 -66 l 0,18,19
 118 -88 118 -88 127.5 -104.5 c 128,-1,20
 137 -121 137 -121 149 -129 c 128,-1,21
 161 -137 161 -137 178 -141.5 c 128,-1,22
 195 -146 195 -146 205 -147 c 128,-1,23
 215 -148 215 -148 227 -148 c 0,24,25
 297 -148 297 -148 344 -108 c 1,26,-1
 245 -108 l 1,27,-1
 256 -56 l 1,28,-1
 382 -56 l 1,29,30
 400 -20 400 -20 413 44 c 2,31,-1
 419 71 l 1,32,33
 373 21 373 21 331 -1 c 128,-1,34
 289 -23 289 -23 240 -23 c 0,35,36
 165 -23 165 -23 119.5 29 c 128,-1,37
 74 81 74 81 74 171 c 0,38,39
 74 219 74 219 86.5 270.5 c 128,-1,40
 99 322 99 322 124.5 370 c 128,-1,41
 150 418 150 418 184.5 455.5 c 128,-1,42
 219 493 219 493 266.5 516 c 128,-1,43
 314 539 314 539 367 539 c 0,44,45
 465 539 465 539 507 448 c 1,46,-1
 523 524 l 1,47,-1
 600 524 l 1,48,-1
 507 86 l 2,49,50
 488 -5 488 -5 466 -56 c 1,51,-1
 502 -56 l 1,52,-1
 491 -108 l 1,53,-1
 438 -108 l 1,54,55
 404 -162 404 -162 344.5 -190 c 128,-1,56
 285 -218 285 -218 209 -218 c 0,57,58
 124 -218 124 -218 78 -182.5 c 128,-1,59
 32 -147 32 -147 32 -83 c 0,60,61
 32 -72 32 -72 33 -60 c 1,62,-1
 118 -60 l 1,16,17
EndSplineSet
Validated: 1
EndChar

StartChar: uni01EA
Encoding: 490 490 426
Width: 778
GlyphClass: 2
Flags: MW
LayerCount: 2
Fore
SplineSet
186 -146 m 0,0,1
 186 -64 186 -64 316 -16 c 1,2,3
 273 -8 273 -8 237.5 11 c 128,-1,4
 202 30 202 30 170.5 61.5 c 128,-1,5
 139 93 139 93 121.5 144.5 c 128,-1,6
 104 196 104 196 104 263 c 0,7,8
 104 358 104 358 141.5 451.5 c 128,-1,9
 179 545 179 545 246 614 c 0,10,11
 367 741 367 741 537 741 c 0,12,13
 620 741 620 741 680 715 c 128,-1,14
 740 689 740 689 770.5 646 c 128,-1,15
 801 603 801 603 814.5 558 c 128,-1,16
 828 513 828 513 828 464 c 0,17,18
 828 438 828 438 823.5 403.5 c 128,-1,19
 819 369 819 369 806 321 c 128,-1,20
 793 273 793 273 772.5 227 c 128,-1,21
 752 181 752 181 717.5 135 c 128,-1,22
 683 89 683 89 639 54.5 c 128,-1,23
 595 20 595 20 531 -1.5 c 128,-1,24
 467 -23 467 -23 391 -23 c 2,25,-1
 372 -23 l 1,26,27
 350 -33 350 -33 339 -39 c 128,-1,28
 328 -45 328 -45 305.5 -59.5 c 128,-1,29
 283 -74 283 -74 272 -92.5 c 128,-1,30
 261 -111 261 -111 261 -132 c 0,31,32
 261 -152 261 -152 279.5 -164 c 128,-1,33
 298 -176 298 -176 327 -176 c 0,34,35
 367 -176 367 -176 397 -166 c 1,36,-1
 388 -211 l 1,37,38
 358 -221 358 -221 320 -221 c 0,39,40
 256 -221 256 -221 221 -201 c 128,-1,41
 186 -181 186 -181 186 -146 c 0,0,1
732 446 m 0,42,43
 732 507 732 507 712.5 551 c 128,-1,44
 693 595 693 595 660.5 617.5 c 128,-1,45
 628 640 628 640 594.5 650 c 128,-1,46
 561 660 561 660 525 660 c 0,47,48
 455 660 455 660 391.5 626.5 c 128,-1,49
 328 593 328 593 284 533 c 0,50,51
 200 417 200 417 200 271 c 0,52,53
 200 211 200 211 220 166.5 c 128,-1,54
 240 122 240 122 272 100 c 128,-1,55
 304 78 304 78 337 68 c 128,-1,56
 370 58 370 58 404 58 c 0,57,58
 470 58 470 58 524 81 c 128,-1,59
 578 104 578 104 612.5 141.5 c 128,-1,60
 647 179 647 179 671.5 222 c 128,-1,61
 696 265 696 265 708.5 311 c 128,-1,62
 721 357 721 357 726.5 390 c 128,-1,63
 732 423 732 423 732 446 c 0,42,43
EndSplineSet
Validated: 1
EndChar

StartChar: uni01EB
Encoding: 491 491 427
Width: 556
GlyphClass: 2
Flags: MW
LayerCount: 2
Fore
SplineSet
283 54 m 0,0,1
 332 54 332 54 370.5 77.5 c 128,-1,2
 409 101 409 101 430.5 134.5 c 128,-1,3
 452 168 452 168 465.5 209.5 c 128,-1,4
 479 251 479 251 483.5 281 c 128,-1,5
 488 311 488 311 488 333 c 0,6,7
 488 394 488 394 457 428 c 128,-1,8
 426 462 426 462 371 462 c 0,9,10
 323 462 323 462 284.5 438 c 128,-1,11
 246 414 246 414 225 380.5 c 128,-1,12
 204 347 204 347 190.5 305.5 c 128,-1,13
 177 264 177 264 172.5 234.5 c 128,-1,14
 168 205 168 205 168 184 c 0,15,16
 168 124 168 124 199 89 c 128,-1,17
 230 54 230 54 283 54 c 0,0,1
384 539 m 0,18,19
 471 539 471 539 523.5 487 c 128,-1,20
 576 435 576 435 576 352 c 0,21,22
 576 287 576 287 553.5 213.5 c 128,-1,23
 531 140 531 140 497 93 c 0,24,25
 419 -14 419 -14 291 -22 c 1,26,27
 283 -25 283 -25 271.5 -31 c 128,-1,28
 260 -37 260 -37 247.5 -43.5 c 128,-1,29
 235 -50 235 -50 223 -59.5 c 128,-1,30
 211 -69 211 -69 201 -79.5 c 128,-1,31
 191 -90 191 -90 185 -103.5 c 128,-1,32
 179 -117 179 -117 179 -132 c 0,33,34
 179 -152 179 -152 197.5 -164 c 128,-1,35
 216 -176 216 -176 245 -176 c 0,36,37
 285 -176 285 -176 315 -166 c 1,38,-1
 306 -211 l 1,39,40
 276 -221 276 -221 238 -221 c 0,41,42
 174 -221 174 -221 139 -201 c 128,-1,43
 104 -181 104 -181 104 -146 c 0,44,45
 104 -67 104 -67 226 -19 c 1,46,47
 159 -6 159 -6 119.5 43 c 128,-1,48
 80 92 80 92 80 164 c 0,49,50
 80 228 80 228 102 301.5 c 128,-1,51
 124 375 124 375 158 423 c 0,52,53
 197 478 197 478 255.5 508.5 c 128,-1,54
 314 539 314 539 384 539 c 0,18,19
EndSplineSet
Validated: 1
EndChar

StartChar: uni01f7
Encoding: 503 503 438
Width: 630
GlyphClass: 2
Flags: MW
LayerCount: 2
Fore
SplineSet
304 555 m 1,0,-1
 235 229 l 1,1,2
 342 291 342 291 419 347.5 c 128,-1,3
 496 404 496 404 535.5 449.5 c 128,-1,4
 575 495 575 495 592 530 c 128,-1,5
 609 565 609 565 609 595 c 0,6,7
 609 624 609 624 583.5 641 c 128,-1,8
 558 658 558 658 527 658 c 0,9,10
 485 658 485 658 427 634.5 c 128,-1,11
 369 611 369 611 304 555 c 1,0,-1
214 132 m 1,12,-1
 186 0 l 1,13,-1
 91 0 l 1,14,-1
 246 727 l 1,15,-1
 341 727 l 1,16,-1
 324 647 l 1,17,18
 397 706 397 706 448.5 724.5 c 128,-1,19
 500 743 500 743 578 743 c 0,20,21
 634 743 634 743 670 708.5 c 128,-1,22
 706 674 706 674 706 614 c 0,23,24
 706 563 706 563 679.5 509 c 128,-1,25
 653 455 653 455 615 411.5 c 128,-1,26
 577 368 577 368 522 323.5 c 128,-1,27
 467 279 467 279 422.5 249.5 c 128,-1,28
 378 220 378 220 326 190.5 c 128,-1,29
 274 161 274 161 253.5 151 c 128,-1,30
 233 141 233 141 216 133 c 2,31,32
 214 132 l 1,12,-1
EndSplineSet
Validated: 1
EndChar

StartChar: Scommaaccent
Encoding: 536 536 471
Width: 667
GlyphClass: 2
Flags: MW
LayerCount: 2
Fore
SplineSet
488 741 m 0,0,1
 552 741 552 741 599 724.5 c 128,-1,2
 646 708 646 708 669.5 681 c 128,-1,3
 693 654 693 654 703.5 626.5 c 128,-1,4
 714 599 714 599 714 571 c 0,5,6
 714 552 714 552 706 515 c 1,7,-1
 618 515 l 1,8,9
 622 542 622 542 622 551 c 0,10,11
 622 660 622 660 470 660 c 0,12,13
 386 660 386 660 330 621 c 128,-1,14
 274 582 274 582 274 518 c 0,15,16
 274 485 274 485 295.5 467 c 128,-1,17
 317 449 317 449 375 432 c 2,18,-1
 547 383 l 2,19,20
 609 366 609 366 639 323.5 c 128,-1,21
 669 281 669 281 669 237 c 0,22,23
 669 217 669 217 662 189.5 c 128,-1,24
 655 162 655 162 632 123.5 c 128,-1,25
 609 85 609 85 574 53.5 c 128,-1,26
 539 22 539 22 475 -0.5 c 128,-1,27
 411 -23 411 -23 330 -23 c 0,28,29
 217 -23 217 -23 153 28 c 128,-1,30
 89 79 89 79 89 169 c 0,31,32
 89 199 89 199 98 232 c 1,33,-1
 185 232 l 1,34,35
 181 207 181 207 181 191 c 0,36,37
 181 123 181 123 221 90.5 c 128,-1,38
 261 58 261 58 346 58 c 0,39,40
 450 58 450 58 511.5 102 c 128,-1,41
 573 146 573 146 573 209 c 0,42,43
 573 245 573 245 546.5 268.5 c 128,-1,44
 520 292 520 292 460 309 c 2,45,-1
 289 357 l 2,46,47
 239 371 239 371 208.5 408 c 128,-1,48
 178 445 178 445 178 492 c 0,49,50
 178 530 178 530 198.5 577.5 c 128,-1,51
 219 625 219 625 250 656 c 0,52,53
 332 741 332 741 488 741 c 0,0,1
276 -60 m 1,54,-1
 376 -60 l 1,55,-1
 357 -153 l 2,56,57
 343 -215 343 -215 309 -249.5 c 128,-1,58
 275 -284 275 -284 228 -284 c 1,59,-1
 236 -246 l 1,60,61
 294 -246 294 -246 310 -158 c 1,62,-1
 255 -158 l 1,63,-1
 276 -60 l 1,54,-1
EndSplineSet
Validated: 1
EndChar

StartChar: scommaaccent
Encoding: 537 537 472
Width: 500
GlyphClass: 2
Flags: MW
LayerCount: 2
Fore
SplineSet
123 345 m 0,0,1
 123 426 123 426 187.5 482.5 c 128,-1,2
 252 539 252 539 356 539 c 0,3,4
 429 539 429 539 474.5 506 c 128,-1,5
 520 473 520 473 520 421 c 0,6,7
 520 403 520 403 514 378 c 1,8,-1
 430 378 l 1,9,10
 431 386 431 386 431 400 c 0,11,12
 431 429 431 429 407 445.5 c 128,-1,13
 383 462 383 462 339 462 c 0,14,15
 282 462 282 462 246.5 434.5 c 128,-1,16
 211 407 211 407 211 367 c 0,17,18
 211 328 211 328 296 307 c 2,19,-1
 372 288 l 2,20,21
 438 272 438 272 465.5 245.5 c 128,-1,22
 493 219 493 219 493 173 c 0,23,24
 493 84 493 84 426 30.5 c 128,-1,25
 359 -23 359 -23 247 -23 c 0,26,27
 160 -23 160 -23 110.5 11 c 128,-1,28
 61 45 61 45 61 105 c 0,29,30
 61 128 61 128 67 156 c 1,31,-1
 156 156 l 1,32,33
 154 136 154 136 154 131 c 0,34,35
 154 94 154 94 182 74 c 128,-1,36
 210 54 210 54 262 54 c 0,37,38
 304 54 304 54 334.5 66 c 128,-1,39
 365 78 365 78 379 95 c 128,-1,40
 393 112 393 112 399 126 c 128,-1,41
 405 140 405 140 405 150 c 0,42,43
 405 165 405 165 396.5 177 c 128,-1,44
 388 189 388 189 376.5 194 c 128,-1,45
 365 199 365 199 353.5 203.5 c 128,-1,46
 342 208 342 208 335 209 c 2,47,-1
 261 228 l 2,48,49
 184 248 184 248 153.5 273.5 c 128,-1,50
 123 299 123 299 123 345 c 0,0,1
191 -60 m 1,51,-1
 291 -60 l 1,52,-1
 272 -153 l 2,53,54
 258 -215 258 -215 224 -249.5 c 128,-1,55
 190 -284 190 -284 143 -284 c 1,56,-1
 151 -246 l 1,57,58
 209 -246 209 -246 225 -158 c 1,59,-1
 170 -158 l 1,60,-1
 191 -60 l 1,51,-1
EndSplineSet
Validated: 1
EndChar

StartChar: uni021A
Encoding: 538 538 473
Width: 611
GlyphClass: 2
Flags: MW
LayerCount: 2
Fore
SplineSet
493 647 m 1,0,-1
 355 0 l 1,1,-1
 261 0 l 1,2,-1
 399 647 l 1,3,-1
 158 647 l 1,4,-1
 175 729 l 1,5,-1
 748 729 l 1,6,-1
 731 647 l 1,7,-1
 493 647 l 1,0,-1
244 -60 m 1,8,-1
 344 -60 l 1,9,-1
 325 -153 l 2,10,11
 311 -215 311 -215 277 -249.5 c 128,-1,12
 243 -284 243 -284 196 -284 c 1,13,-1
 204 -246 l 1,14,15
 262 -246 262 -246 278 -158 c 1,16,-1
 223 -158 l 1,17,-1
 244 -60 l 1,8,-1
EndSplineSet
Validated: 1
EndChar

StartChar: uni021B
Encoding: 539 539 474
Width: 278
GlyphClass: 2
Flags: MW
LayerCount: 2
Fore
SplineSet
366 524 m 1,0,-1
 351 457 l 1,1,-1
 263 457 l 1,2,-1
 185 90 l 2,3,4
 183 80 183 80 183 76 c 0,5,6
 183 64 183 64 192.5 56.5 c 128,-1,7
 202 49 202 49 218 49 c 128,-1,8
 234 49 234 49 267 57 c 1,9,-1
 251 -16 l 1,10,11
 225 -23 225 -23 186 -23 c 0,12,13
 145 -23 145 -23 121 -2 c 128,-1,14
 97 19 97 19 97 56 c 0,15,16
 97 72 97 72 100 87 c 2,17,-1
 179 457 l 1,18,-1
 108 457 l 1,19,-1
 122 524 l 1,20,-1
 193 524 l 1,21,-1
 224 668 l 1,22,-1
 308 668 l 1,23,-1
 277 524 l 1,24,-1
 366 524 l 1,0,-1
103 -60 m 1,25,-1
 203 -60 l 1,26,-1
 184 -153 l 2,27,28
 170 -215 170 -215 136 -249.5 c 128,-1,29
 102 -284 102 -284 55 -284 c 1,30,-1
 63 -246 l 1,31,32
 121 -246 121 -246 137 -158 c 1,33,-1
 82 -158 l 1,34,-1
 103 -60 l 1,25,-1
EndSplineSet
Validated: 1
EndChar

StartChar: uni021c
Encoding: 540 540 475
Width: 521
GlyphClass: 2
Flags: MW
LayerCount: 2
Fore
SplineSet
389 632 m 0,0,1
 313 632 313 632 275.5 590.5 c 128,-1,2
 238 549 238 549 222 480 c 1,3,-1
 134 480 l 1,4,5
 187 709 187 709 405 709 c 0,6,7
 491 709 491 709 538 671 c 128,-1,8
 585 633 585 633 585 564 c 0,9,10
 585 523 585 523 571.5 487 c 128,-1,11
 558 451 558 451 538 427.5 c 128,-1,12
 518 404 518 404 501.5 390.5 c 128,-1,13
 485 377 485 377 472 370 c 1,14,15
 539 332 539 332 539 251 c 0,16,17
 539 216 539 216 530.5 185.5 c 128,-1,18
 522 155 522 155 506 130.5 c 128,-1,19
 490 106 490 106 467.5 83.5 c 128,-1,20
 445 61 445 61 416.5 43.5 c 128,-1,21
 388 26 388 26 355 9 c 128,-1,22
 322 -8 322 -8 285 -21.5 c 128,-1,23
 248 -35 248 -35 207.5 -48.5 c 128,-1,24
 167 -62 167 -62 125 -74 c 128,-1,25
 83 -86 83 -86 39 -100 c 1,26,-1
 35 -13 l 1,27,28
 47 -11 47 -11 67 -6 c 128,-1,29
 87 -1 87 -1 141 13.5 c 128,-1,30
 195 28 195 28 242.5 48.5 c 128,-1,31
 290 69 290 69 339.5 96 c 128,-1,32
 389 123 389 123 418.5 160 c 128,-1,33
 448 197 448 197 448 238 c 0,34,35
 448 261 448 261 437.5 277.5 c 128,-1,36
 427 294 427 294 418 299 c 128,-1,37
 409 304 409 304 386 316 c 1,38,39
 315 282 315 282 218 254 c 1,40,-1
 214 329 l 1,41,42
 245 341 245 341 274.5 352 c 128,-1,43
 304 363 304 363 332 375.5 c 128,-1,44
 360 388 360 388 384 400 c 128,-1,45
 408 412 408 412 428 427.5 c 128,-1,46
 448 443 448 443 462 460 c 128,-1,47
 476 477 476 477 484 498 c 128,-1,48
 492 519 492 519 492 543 c 0,49,50
 492 585 492 585 465 608.5 c 128,-1,51
 438 632 438 632 389 632 c 0,0,1
EndSplineSet
Validated: 1
EndChar

